<svg xmlns="http://www.w3.org/2000/svg" xmlns:xlink="http://www.w3.org/1999/xlink" width="174.414" height="148.5" viewBox="0 0 174.414 148.5">
  <defs>
    <linearGradient id="linear-gradient" x1="-136.405" y1="0.797" x2="-136.914" y2="4.084" gradientUnits="objectBoundingBox">
      <stop offset="0" stop-color="#f9aa20"/>
      <stop offset="1" stop-color="#dd158b"/>
    </linearGradient>
    <linearGradient id="linear-gradient-2" x1="-78.877" y1="21.243" x2="-79.439" y2="24.46" gradientUnits="objectBoundingBox">
      <stop offset="0" stop-color="#aa80f9"/>
      <stop offset="0.996" stop-color="#6165d7"/>
    </linearGradient>
    <linearGradient id="linear-gradient-3" x1="29.779" y1="0.445" x2="30.886" y2="0.445" gradientUnits="objectBoundingBox">
      <stop offset="0" stop-color="#444b8c"/>
      <stop offset="0.996" stop-color="#26264f"/>
    </linearGradient>
    <linearGradient id="linear-gradient-4" x1="-62.882" y1="-8.872" x2="-62.481" y2="-7.614" xlink:href="#linear-gradient-2"/>
    <linearGradient id="linear-gradient-5" x1="-432.219" y1="-80.866" x2="-428.94" y2="-67.997" xlink:href="#linear-gradient-2"/>
    <linearGradient id="linear-gradient-6" x1="-362.575" y1="-100.417" x2="-359.7" y2="-84.149" xlink:href="#linear-gradient-2"/>
    <linearGradient id="linear-gradient-7" x1="-361.636" y1="-95.25" x2="-358.751" y2="-78.816" xlink:href="#linear-gradient-2"/>
    <linearGradient id="linear-gradient-8" x1="-428.569" y1="-79.417" x2="-425.311" y2="-66.606" xlink:href="#linear-gradient-2"/>
    <linearGradient id="linear-gradient-9" x1="-246.098" y1="-29.115" x2="-245.788" y2="-28.293" xlink:href="#linear-gradient-2"/>
    <linearGradient id="linear-gradient-10" x1="-63.718" y1="-12.131" x2="-62.743" y2="-12.131" xlink:href="#linear-gradient-2"/>
    <linearGradient id="linear-gradient-11" x1="-162.148" y1="-7.265" x2="-163.349" y2="-7.359" gradientUnits="objectBoundingBox">
      <stop offset="0" stop-color="#311944"/>
      <stop offset="1" stop-color="#893976"/>
    </linearGradient>
    <linearGradient id="linear-gradient-12" x1="-161.703" y1="-7.973" x2="-160.019" y2="-7.919" gradientUnits="objectBoundingBox">
      <stop offset="0.004" stop-color="#e38ddd"/>
      <stop offset="1" stop-color="#9571f6"/>
    </linearGradient>
    <linearGradient id="linear-gradient-13" x1="-1067.797" y1="-70.388" x2="-1064.346" y2="-68.35" gradientUnits="objectBoundingBox">
      <stop offset="0" stop-color="#f57e53"/>
      <stop offset="0.005" stop-color="#f58152"/>
      <stop offset="0.042" stop-color="#f8994d"/>
      <stop offset="0.084" stop-color="#fbac49"/>
      <stop offset="0.133" stop-color="#fdb946"/>
      <stop offset="0.196" stop-color="#fec144"/>
      <stop offset="0.318" stop-color="#ffc444"/>
      <stop offset="0.455" stop-color="#fdb946"/>
      <stop offset="0.694" stop-color="#f99c4c"/>
      <stop offset="0.996" stop-color="#f36f56"/>
    </linearGradient>
    <linearGradient id="linear-gradient-14" x1="-2.666" y1="1.589" x2="-1.667" y2="1.589" gradientUnits="objectBoundingBox">
      <stop offset="0" stop-color="#ff9085"/>
      <stop offset="1" stop-color="#fb6fbb"/>
    </linearGradient>
    <linearGradient id="linear-gradient-15" x1="-3621.734" y1="-104.698" x2="-3619.393" y2="-104.698" xlink:href="#linear-gradient-14"/>
    <linearGradient id="linear-gradient-16" x1="-3627.988" y1="-104.453" x2="-3625.642" y2="-104.453" xlink:href="#linear-gradient-14"/>
    <linearGradient id="linear-gradient-17" x1="-3634.16" y1="-104.21" x2="-3631.81" y2="-104.21" xlink:href="#linear-gradient-14"/>
    <linearGradient id="linear-gradient-18" x1="-3.674" y1="2.259" x2="-2.674" y2="2.259" xlink:href="#linear-gradient-14"/>
    <linearGradient id="linear-gradient-19" x1="-254.22" y1="-9.581" x2="-251.659" y2="-9.518" gradientUnits="objectBoundingBox">
      <stop offset="0" stop-color="#fb6fbb"/>
      <stop offset="1" stop-color="#ff9085"/>
    </linearGradient>
    <linearGradient id="linear-gradient-20" x1="-1244.475" y1="-40.138" x2="-1242.701" y2="-40.138" xlink:href="#linear-gradient-19"/>
    <linearGradient id="linear-gradient-21" x1="-1028.866" y1="-29.881" x2="-1026.954" y2="-29.881" xlink:href="#linear-gradient-19"/>
    <linearGradient id="linear-gradient-22" x1="-1033.174" y1="-134.345" x2="-1032.134" y2="-134.345" xlink:href="#linear-gradient-14"/>
    <linearGradient id="linear-gradient-23" x1="-0.51" y1="0.686" x2="-0.89" y2="1.13" xlink:href="#linear-gradient"/>
    <linearGradient id="linear-gradient-24" x1="1.235" y1="0.724" x2="-2.711" y2="2.461" gradientUnits="objectBoundingBox">
      <stop offset="0" stop-color="#ab316d"/>
      <stop offset="1" stop-color="#792d3d"/>
    </linearGradient>
    <linearGradient id="linear-gradient-25" x1="-4.12" y1="3.518" x2="-8.908" y2="5.003" xlink:href="#linear-gradient-24"/>
    <linearGradient id="linear-gradient-26" x1="-25.441" y1="16.705" x2="-29.636" y2="18.301" gradientUnits="objectBoundingBox">
      <stop offset="0" stop-color="#ffc444"/>
      <stop offset="0.996" stop-color="#f36f56"/>
    </linearGradient>
    <linearGradient id="linear-gradient-27" x1="-47.419" y1="0.337" x2="-47.697" y2="0.85" xlink:href="#linear-gradient"/>
    <linearGradient id="linear-gradient-28" x1="-300.944" y1="-2.482" x2="-300.962" y2="2.535" gradientUnits="objectBoundingBox">
      <stop offset="0" stop-color="#f9b776"/>
      <stop offset="1" stop-color="#f47960"/>
    </linearGradient>
    <linearGradient id="linear-gradient-29" x1="-116.502" y1="0.743" x2="-116.243" y2="-0.491" gradientUnits="objectBoundingBox">
      <stop offset="0" stop-color="#2b3582"/>
      <stop offset="1" stop-color="#150e42"/>
    </linearGradient>
    <linearGradient id="linear-gradient-30" x1="-326.925" y1="-7.69" x2="-326.945" y2="0.411" xlink:href="#linear-gradient-28"/>
    <linearGradient id="linear-gradient-31" x1="-277.976" y1="2.226" x2="-280.407" y2="-1.529" gradientUnits="objectBoundingBox">
      <stop offset="0" stop-color="#fdf53f"/>
      <stop offset="0.665" stop-color="#e57a58"/>
      <stop offset="1" stop-color="#d93c65"/>
    </linearGradient>
    <linearGradient id="linear-gradient-32" x1="-360.048" y1="3.031" x2="-363.214" y2="-4.449" xlink:href="#linear-gradient-31"/>
    <linearGradient id="linear-gradient-33" x1="-79.421" y1="0.224" x2="-80.111" y2="0.657" xlink:href="#linear-gradient-29"/>
    <linearGradient id="linear-gradient-34" x1="-147.089" y1="-0.051" x2="-146.44" y2="1.692" xlink:href="#linear-gradient-31"/>
    <linearGradient id="linear-gradient-35" x1="-547.245" y1="1.062" x2="-547.134" y2="0.1" xlink:href="#linear-gradient-28"/>
    <linearGradient id="linear-gradient-36" x1="-347.871" y1="0.82" x2="-348.182" y2="-0.114" xlink:href="#linear-gradient-28"/>
    <linearGradient id="linear-gradient-37" x1="-1653.421" y1="2.058" x2="-1654.893" y2="-0.895" xlink:href="#linear-gradient-28"/>
    <linearGradient id="linear-gradient-38" x1="0" y1="0.5" x2="1" y2="0.5" xlink:href="#linear-gradient-28"/>
    <linearGradient id="linear-gradient-39" x1="0" y1="0.5" x2="1" y2="0.5" xlink:href="#linear-gradient-29"/>
    <linearGradient id="linear-gradient-40" x1="1.084" y1="-0.998" x2="0.396" y2="0.879" xlink:href="#linear-gradient-28"/>
    <linearGradient id="linear-gradient-41" x1="0.792" y1="0.057" x2="-0.426" y2="1.971" gradientUnits="objectBoundingBox">
      <stop offset="0" stop-color="#a737d5"/>
      <stop offset="1" stop-color="#ef497a"/>
    </linearGradient>
    <linearGradient id="linear-gradient-42" x1="-1.299" y1="3.896" x2="-3.375" y2="7.865" gradientUnits="objectBoundingBox">
      <stop offset="0" stop-color="#cb236d"/>
      <stop offset="1" stop-color="#4c246d"/>
    </linearGradient>
    <linearGradient id="linear-gradient-43" x1="1.311" y1="-0.473" x2="-0.036" y2="1.136" xlink:href="#linear-gradient-31"/>
  </defs>
  <g id="Group_32429" data-name="Group 32429" transform="translate(-638.494 -189.5)">
    <g id="Group_32426" data-name="Group 32426">
      <g id="Group_32400" data-name="Group 32400">
        <g id="Group_32399" data-name="Group 32399">
          <path id="Path_271795" data-name="Path 271795" d="M665.818,310.43c-9.622-1.671-21.747-5.481-26.268-14.911-1.075-2.244-2.063-6.553.967-8.025,2.77-1.345,6.2.357,8.125,2.353,1.416,1.468,2.431,4.648,4.048,5.711,2.366,1.556,3.85-2.338,3.871-3.971.047-3.652-4.373-5.343-7.319-6.267-4.89-1.533-10.6-2.915-10.044-8.477s6.142-8.667,10.216-6.042c3.357,2.163,2.682,6.431,4.923,9.11,1.991,2.379,2.883-1.3,2.824-3.126-.129-3.967-3.478-6.979-5.918-9.741-2.759-3.123-5.686-9.29-2.429-13.113,1.874-2.2,6.4-2.535,9.049-2.033,12.951,2.459,3.561,18.945,5.848,20.932s4.675-1.209,4.89-6.218,1.147-8.67,6.3-6.836,5.573,14.963-.619,19.728-.091,10.531,1.671,7c1.272-2.551,2.591-9.32,5.968-9.919,5.626-1,5.04,10.376,3.319,12.952-2.412,3.612-7.53,4.194-10.51,7.27-.865.894-2.829,3.115-2.166,4.507.925,1.941,3.828.037,4.9-.8,2.412-1.873,5.926-8.446,9-3.841C690.269,302.36,683.147,310.224,665.818,310.43Z" fill="url(#linear-gradient)"/>
          <g id="Group_32398" data-name="Group 32398" opacity="0.8" style="mix-blend-mode: soft-light;isolation: isolate">
            <path id="Path_271796" data-name="Path 271796" d="M664.46,309.549a.494.494,0,0,0,.44-.47,134.4,134.4,0,0,0-6.457-44.037.429.429,0,0,0-.525-.292.408.408,0,0,0-.272.516,133.553,133.553,0,0,1,6.418,43.765.484.484,0,0,0,.388.517Z" fill="#fff"/>
          </g>
        </g>
        <path id="Path_271797" data-name="Path 271797" d="M658.19,308.455c.415-2.019,4.33-2.427,5.91-2.654.917-.131,2.218-.251,2.727-1.169.534-.965-.178-1.76-1.127-1.977-1.7-.388-3.588.617-5.2,1.042a7.3,7.3,0,0,1-5.179-.182,5.356,5.356,0,0,1-2.876-3.573c-.635-4.086,3.412-3.673,6.031-2.987,1.271.333,3.785.652,4.091-1.151.326-1.918-2.085-3-3.6-3.124a53.406,53.406,0,0,0-5.917.242c-1.778.05-3.868-.236-4.27-2.3a4.435,4.435,0,0,1,1.981-4.243c3.057-2.03,6.8,1.828,9.958,1.961,1.118.046,3-.692,3.362-1.879.368-1.208-1.184-2.1-2.035-2.587-2.522-1.436-14.3-3.653-9.829-8.583a7.251,7.251,0,0,1,4.907-2.205c3.149.053,6.587,2.344,8.928,4.292a33.242,33.242,0,0,1,8.816,11.564c4.366,9.65,1.768,15.875,1.768,15.875a17.04,17.04,0,0,1-6.16,5.693c-2.846,1.392-7.179,1.867-10.149.555C659.366,310.644,657.933,309.706,658.19,308.455Z" fill="url(#linear-gradient-2)"/>
      </g>
      <g id="Group_32425" data-name="Group 32425">
        <g id="Group_32405" data-name="Group 32405">
          <g id="Group_32403" data-name="Group 32403">
            <g id="Group_32402" data-name="Group 32402">
              <g id="Group_32401" data-name="Group 32401">
                <path id="Path_271798" data-name="Path 271798" d="M723.1,197.513l6.124,111.5a2.853,2.853,0,0,1-2.676,3.1l-53.981,2.124c-3.283-.03-4.974-1.875-5.075-3.632L660.731,192.57c-.1-1.773,1.606-3.263,4.915-3.049l54.412,4.712A3.512,3.512,0,0,1,723.1,197.513Z" fill="url(#linear-gradient-3)"/>
                <path id="Path_271799" data-name="Path 271799" d="M725.549,197.48l6.144,112.077a2.866,2.866,0,0,1-2.686,3.116l-55.939,1.619a3.32,3.32,0,0,1-3.363-3.119l-6.784-118.664a2.743,2.743,0,0,1,3.03-2.976l56.546,4.649A3.531,3.531,0,0,1,725.549,197.48Z" fill="#26264f"/>
                <path id="Path_271800" data-name="Path 271800" d="M724.1,203.585l5.7,103.879a2.673,2.673,0,0,1-2.514,2.906l-52.609,1.406a3.1,3.1,0,0,1-3.127-2.911l-6.257-109.6a2.569,2.569,0,0,1,2.814-2.789l53.138,4.05A3.271,3.271,0,0,1,724.1,203.585Z" fill="#d8dee8"/>
              </g>
              <path id="Path_271801" data-name="Path 271801" d="M696.2,195.5a.91.91,0,0,1-.988,1,1.261,1.261,0,0,1-1.112-1.17.91.91,0,0,1,.99-1A1.26,1.26,0,0,1,696.2,195.5Z" fill="#fff"/>
            </g>
          </g>
          <g id="Group_32404" data-name="Group 32404" opacity="0.3" style="mix-blend-mode: soft-light;isolation: isolate">
            <path id="Path_271802" data-name="Path 271802" d="M688.625,249.735c-4.817-16.618,5.193-24.44.4-39.847-2.607-8.383-8.284-14.793-14.626-19.661l-8.451-.694a2.743,2.743,0,0,0-3.03,2.976l6.784,118.664a3.321,3.321,0,0,0,3.363,3.119l48.295-1.4c.4-12.342-2.35-21.259-5.559-27.654C706.986,267.669,693.612,266.944,688.625,249.735Z" fill="#f4f7fa"/>
          </g>
        </g>
        <g id="Group_32411" data-name="Group 32411">
          <g id="Group_32410" data-name="Group 32410">
            <path id="Path_271803" data-name="Path 271803" d="M720.73,211.474l24.815,20.789c-21.491,9.522-19.158,39-40.649,48.524L680.08,260C701.571,250.476,699.238,221,720.73,211.474Z" fill="url(#linear-gradient-4)"/>
            <path id="Path_271804" data-name="Path 271804" d="M741.345,231.888c-18.243,10.147-17.7,36.032-35.943,46.179l-21.121-17.694c18.242-10.147,17.7-36.032,35.942-46.179Z" fill="#fff"/>
            <g id="Group_32408" data-name="Group 32408">
              <g id="Group_32406" data-name="Group 32406">
                <path id="Path_271805" data-name="Path 271805" d="M688.068,257.372c.093.078.175.152.259.233l.022.022a3.971,3.971,0,0,1,1.291,3.24,3.591,3.591,0,0,1-1.655,2.61,5.187,5.187,0,0,1-.475.283,6.767,6.767,0,0,1-2.13.678l-5.3-4.44a28.6,28.6,0,0,0,6.1-3.665A5.5,5.5,0,0,1,688.068,257.372Z" fill="url(#linear-gradient-5)"/>
                <path id="Path_271806" data-name="Path 271806" d="M709.682,275.478a4.947,4.947,0,0,1,1.288,1.666,28.582,28.582,0,0,1-6.074,3.643l-5.424-4.543a7.071,7.071,0,0,1,1.593-1.129q.252-.133.513-.251c2.594-1.173,5.767-1.155,7.874.432l.025.019C709.546,275.367,709.618,275.424,709.682,275.478Z" fill="url(#linear-gradient-6)"/>
              </g>
              <g id="Group_32407" data-name="Group 32407">
                <path id="Path_271807" data-name="Path 271807" d="M720.73,211.474l5.3,4.44a7.071,7.071,0,0,1-1.593,1.129q-.252.134-.513.251c-2.568,1.16-5.694,1.162-7.8-.378-.1-.071-.179-.133-.272-.211a4.315,4.315,0,0,1-1.224-1.566A28.554,28.554,0,0,1,720.73,211.474Z" fill="url(#linear-gradient-7)"/>
                <path id="Path_271808" data-name="Path 271808" d="M740.122,227.72l5.423,4.543a28.584,28.584,0,0,0-6.074,3.643,6.283,6.283,0,0,1-2.006-1.094c-.065-.054-.134-.114-.2-.172l-.023-.021a4.082,4.082,0,0,1-1.392-3.052,3.552,3.552,0,0,1,1.669-2.88A5.146,5.146,0,0,1,738,228.4,6.747,6.747,0,0,1,740.122,227.72Z" fill="url(#linear-gradient-8)"/>
              </g>
            </g>
            <path id="Path_271809" data-name="Path 271809" d="M717.205,237.549c3.961,3.319,5.1,9.763,2.781,14.591s-7.63,5.868-11.627,2.52c-3.961-3.318-5.1-9.763-2.782-14.591S713.208,234.2,717.205,237.549Z" fill="url(#linear-gradient-9)"/>
            <g id="Group_32409" data-name="Group 32409">
              <path id="Path_271810" data-name="Path 271810" d="M714.257,243.311a4.436,4.436,0,0,0-2.271,1.6l-1.762-1.476.07-.121a5.931,5.931,0,0,1,.776-1.046,4.894,4.894,0,0,1,.51-.471.489.489,0,0,0,.008-.7l-.725-.739a.355.355,0,0,0-.516-.015c-.24.239-.477.509-.7.773a10.725,10.725,0,0,0-.826,1.147l-.616-.516a.343.343,0,0,0-.538.071.489.489,0,0,0,.114.621l.629.527a5.358,5.358,0,0,0-.636,2.9,3.222,3.222,0,0,0,1.185,2.21,2.3,2.3,0,0,0,2.059.6,4.344,4.344,0,0,0,2.163-1.578l1.956,1.649a7.866,7.866,0,0,1-.877,1.228,7.145,7.145,0,0,1-.668.669.53.53,0,0,0,0,.743l.938.937a.35.35,0,0,0,.521,0,9.054,9.054,0,0,0,.679-.828,12.446,12.446,0,0,0,.837-1.334l.1-.177.67.561a.318.318,0,0,0,.521-.083l0-.007a.528.528,0,0,0-.132-.63l-.679-.569a6.414,6.414,0,0,0,.543-2.2,4.621,4.621,0,0,0-.038-.883,3.537,3.537,0,0,0-1.265-2.283A2.271,2.271,0,0,0,714.257,243.311Zm-.539,3.159a1.753,1.753,0,0,1,.81-.535.847.847,0,0,1,.725.223,1.274,1.274,0,0,1,.46.8,1.686,1.686,0,0,1-.2,1.015Zm-2.987-.438a.726.726,0,0,1-.652-.184,1.1,1.1,0,0,1-.392-.72,2,2,0,0,1,.154-.963l1.617,1.355A1.48,1.48,0,0,1,710.731,246.032Z" fill="#fff"/>
            </g>
            <path id="Path_271811" data-name="Path 271811" d="M745.465,232.2l.08.067c-21.491,9.522-19.158,39-40.649,48.524L680.6,260.437a31.2,31.2,0,0,1,3.84-.155,29.179,29.179,0,0,1,5.2.585,35.184,35.184,0,0,1,6.9,2.2c12.5,5.385,16.125.929,18.338-6.62.607-2,1.134-4.2,1.771-6.443.28-.985.593-1.978.941-2.963a36.4,36.4,0,0,1,2.486-5.6c3.224-6.036,8.848-10.1,15.774-9.881a19.51,19.51,0,0,1,3.859.47,10.119,10.119,0,0,0,1.065.174A26.874,26.874,0,0,0,745.465,232.2Z" opacity="0.2" fill="url(#linear-gradient-10)" style="mix-blend-mode: multiply;isolation: isolate"/>
          </g>
        </g>
        <g id="Group_32422" data-name="Group 32422">
          <path id="Path_271812" data-name="Path 271812" d="M724.539,236.487a1.376,1.376,0,0,1,.846,1.756L707.929,280.5a1.741,1.741,0,0,1-2.1.908l-27.992-11.821a1.685,1.685,0,0,1-.742-2.109l17.6-41.587a1.426,1.426,0,0,1,1.846-.655Z" fill="url(#linear-gradient-11)"/>
          <path id="Path_271813" data-name="Path 271813" d="M725,235.651a1.385,1.385,0,0,1,.851,1.77l-17.778,42.791a1.47,1.47,0,0,1-1.948.724L677.96,269.048a1.42,1.42,0,0,1-.8-1.865l17.787-42.192a1.437,1.437,0,0,1,1.86-.662Z" fill="url(#linear-gradient-12)"/>
          <g id="Group_32412" data-name="Group 32412" opacity="0.7">
            <path id="Path_271814" data-name="Path 271814" d="M703.65,264.878l-3.01,6.944a.677.677,0,0,1-.824.365l-1.75-.6a.558.558,0,0,1-.334-.762l3.032-6.94a.67.67,0,0,1,.817-.357l1.735.6A.553.553,0,0,1,703.65,264.878Z" fill="#f4f7fa"/>
            <path id="Path_271815" data-name="Path 271815" d="M707.611,255.74l-2.955,6.817a.667.667,0,0,1-.814.356l-1.732-.6a.55.55,0,0,1-.333-.75l2.976-6.813a.66.66,0,0,1,.808-.348l1.717.592A.546.546,0,0,1,707.611,255.74Z" fill="#f4f7fa"/>
            <path id="Path_271816" data-name="Path 271816" d="M711.5,246.769l-2.9,6.693a.657.657,0,0,1-.8.347l-1.715-.592a.544.544,0,0,1-.333-.739l2.923-6.69a.65.65,0,0,1,.8-.339l1.7.589A.54.54,0,0,1,711.5,246.769Z" fill="#f4f7fa"/>
            <path id="Path_271817" data-name="Path 271817" d="M715.32,237.958l-2.85,6.573a.646.646,0,0,1-.794.339l-1.7-.589a.539.539,0,0,1-.331-.729l2.87-6.569a.642.642,0,0,1,.789-.331l1.684.586A.535.535,0,0,1,715.32,237.958Z" fill="#f4f7fa"/>
          </g>
          <g id="Group_32418" data-name="Group 32418">
            <path id="Path_271818" data-name="Path 271818" d="M695.254,265.306l-1.419,3.293a1.247,1.247,0,0,1-1.637.6l-3.492-1.466a1.208,1.208,0,0,1-.689-1.574l1.433-3.279a1.245,1.245,0,0,1,1.629-.6l3.48,1.453A1.208,1.208,0,0,1,695.254,265.306Z" fill="url(#linear-gradient-13)"/>
            <path id="Path_271819" data-name="Path 271819" d="M694.819,265.4l-1.22,2.828a1.148,1.148,0,0,1-1.51.554l-3-1.259a1.113,1.113,0,0,1-.635-1.452l1.229-2.818a1.148,1.148,0,0,1,1.5-.549l2.99,1.249A1.112,1.112,0,0,1,694.819,265.4Zm-6.217.733a.957.957,0,0,0,.548,1.25l3,1.259a.987.987,0,0,0,1.3-.477l1.221-2.827a.958.958,0,0,0-.553-1.247l-2.99-1.249a.988.988,0,0,0-1.3.473Z" fill="url(#linear-gradient-14)"/>
            <g id="Group_32416" data-name="Group 32416">
              <g id="Group_32413" data-name="Group 32413">
                <path id="Path_271820" data-name="Path 271820" d="M689.491,267.606l2.036-4.681Z" fill="#f4f7fa"/>
                <path id="Path_271821" data-name="Path 271821" d="M691.6,262.956l-2.036,4.681-.149-.063,2.037-4.681Z" fill="url(#linear-gradient-15)"/>
              </g>
              <g id="Group_32414" data-name="Group 32414">
                <path id="Path_271822" data-name="Path 271822" d="M690.618,268.079l2.033-4.685Z" fill="#f4f7fa"/>
                <path id="Path_271823" data-name="Path 271823" d="M692.726,263.425l-2.033,4.685-.149-.063,2.033-4.685Z" fill="url(#linear-gradient-16)"/>
              </g>
              <g id="Group_32415" data-name="Group 32415">
                <path id="Path_271824" data-name="Path 271824" d="M691.747,268.553l2.029-4.689Z" fill="#f4f7fa"/>
                <path id="Path_271825" data-name="Path 271825" d="M693.851,263.9l-2.029,4.689-.149-.063,2.03-4.688Z" fill="url(#linear-gradient-17)"/>
              </g>
            </g>
            <g id="Group_32417" data-name="Group 32417">
              <path id="Path_271826" data-name="Path 271826" d="M693.877,265.9l-.566,1.31a.693.693,0,0,1-.911.334l-2.618-1.1a.673.673,0,0,1-.384-.876l.569-1.307a.694.694,0,0,1,.909-.332l2.614,1.093A.673.673,0,0,1,693.877,265.9Z" fill="#fec045"/>
              <path id="Path_271827" data-name="Path 271827" d="M693.952,265.928l-.567,1.311a.772.772,0,0,1-1.015.372l-2.619-1.1a.748.748,0,0,1-.428-.976l.57-1.307a.771.771,0,0,1,1.013-.37l2.614,1.092A.751.751,0,0,1,693.952,265.928Zm-4.48-.329a.593.593,0,0,0,.34.775l2.618,1.1a.614.614,0,0,0,.806-.3l.566-1.311a.594.594,0,0,0-.342-.774L690.846,264a.613.613,0,0,0-.8.294Z" fill="url(#linear-gradient-18)"/>
            </g>
          </g>
          <path id="Path_271828" data-name="Path 271828" d="M706.777,263.06c-1.043,3.716-1.962,5.978-3.915,8.141a17.794,17.794,0,0,1-8.091,4.942l11.356,4.793a1.47,1.47,0,0,0,1.948-.724l17.778-42.791a1.385,1.385,0,0,0-.851-1.77l-4.513-1.817c-6.924,4.663-9.554,9.445-10.658,13.034C708.5,251.2,709.255,254.233,706.777,263.06Z" opacity="0.15" fill="url(#linear-gradient-19)" style="mix-blend-mode: multiply;isolation: isolate"/>
          <g id="Group_32419" data-name="Group 32419" opacity="0.42" style="mix-blend-mode: multiply;isolation: isolate">
            <path id="Path_271829" data-name="Path 271829" d="M709.955,265.03l-4.014,9.578a.374.374,0,0,1-.494.183l-1.607-.675a.374.374,0,0,1-.215-.48l4.029-9.562a.371.371,0,0,1,.489-.18l1.6.663A.369.369,0,0,1,709.955,265.03Z" fill="url(#linear-gradient-20)"/>
            <path id="Path_271830" data-name="Path 271830" d="M717.711,246.657,712.37,259.4a.375.375,0,0,1-.494.183l-1.607-.664a.368.368,0,0,1-.215-.476l5.36-12.721a.374.374,0,0,1,.488-.18l1.593.65A.361.361,0,0,1,717.711,246.657Z" fill="url(#linear-gradient-21)"/>
          </g>
          <path id="Path_271831" data-name="Path 271831" d="M701.435,231.167a3.762,3.762,0,0,1,1.975,5.01,3.858,3.858,0,0,1-4.957,2.125,3.763,3.763,0,0,1-1.992-4.945A3.858,3.858,0,0,1,701.435,231.167Z" opacity="0.26" fill="url(#linear-gradient-22)" style="mix-blend-mode: multiply;isolation: isolate"/>
          <g id="Group_32421" data-name="Group 32421" opacity="0.53">
            <path id="Path_271832" data-name="Path 271832" d="M694.022,261.042a.616.616,0,0,1-.338.8.6.6,0,0,1-.8-.33.616.616,0,0,1,.345-.794A.6.6,0,0,1,694.022,261.042Z" fill="#f4f7fa"/>
            <g id="Group_32420" data-name="Group 32420">
              <path id="Path_271833" data-name="Path 271833" d="M696.975,260.2a.221.221,0,0,1-.12.122.23.23,0,0,1-.3-.123,3.483,3.483,0,0,0-4.47-1.855.23.23,0,0,1-.3-.123.224.224,0,0,1,.133-.289,3.948,3.948,0,0,1,5.051,2.094A.228.228,0,0,1,696.975,260.2Z" fill="#f4f7fa"/>
              <path id="Path_271834" data-name="Path 271834" d="M696.139,260.543a.226.226,0,0,1-.123.124.231.231,0,0,1-.3-.125,2.552,2.552,0,0,0-3.3-1.369.231.231,0,0,1-.3-.124.228.228,0,0,1,.133-.294,3.018,3.018,0,0,1,3.886,1.613A.226.226,0,0,1,696.139,260.543Z" fill="#f4f7fa"/>
              <path id="Path_271835" data-name="Path 271835" d="M695.292,260.894a.224.224,0,0,1-.124.125.231.231,0,0,1-.3-.125,1.622,1.622,0,0,0-2.112-.877.228.228,0,1,1-.169-.424,2.1,2.1,0,0,1,1.591.008,2.052,2.052,0,0,1,1.116,1.116A.226.226,0,0,1,695.292,260.894Z" fill="#f4f7fa"/>
            </g>
          </g>
        </g>
        <g id="Group_32424" data-name="Group 32424">
          <path id="Path_271836" data-name="Path 271836" d="M724.322,265.746l1.484,36.011a3.1,3.1,0,0,1-.9,2.383,3.054,3.054,0,0,1-2.017.877l-45.43,1.808a3.357,3.357,0,0,1-3.562-3.194l-1.155-38.293a3.237,3.237,0,0,1,3.349-3.28l45.046.528A3.3,3.3,0,0,1,724.322,265.746Z" fill="url(#linear-gradient-23)"/>
          <path id="Path_271837" data-name="Path 271837" d="M724.957,304.142a3.09,3.09,0,0,1-2.034.876l-45.447,1.807a3.37,3.37,0,0,1-3.577-3.194l-1.155-38.293a3.237,3.237,0,0,1,3.349-3.28l.525.006c.146.993.352,2.111.548,3.183.028.149.055.31.082.453.228,1.237.426,2.255.463,2.387,1.224,4.289,3.005,9.233,7.116,11.783,6.282,3.9,14.466,3.61,21.153,5.888,4.4,1.5,8.906,3.464,12.324,6.568a20.764,20.764,0,0,1,5.712,8.184A21.575,21.575,0,0,1,724.957,304.142Z" opacity="0.2" fill="url(#linear-gradient-24)" style="mix-blend-mode: multiply;isolation: isolate"/>
          <g id="Group_32423" data-name="Group 32423" opacity="0.7">
            <path id="Path_271838" data-name="Path 271838" d="M719.34,303.3h0l-1.564.027a.335.335,0,0,1-.335-.324.3.3,0,0,1,.308-.31l1.56-.034h0a2.545,2.545,0,0,0,.784-.154.315.315,0,0,1,.4.206.345.345,0,0,1-.219.419A3,3,0,0,1,719.34,303.3Zm-4.015.088-2.463.092a.323.323,0,1,1-.025-.646l2.463-.09a.322.322,0,1,1,.025.644Zm-4.94.185-2.493.093a.325.325,0,1,1-.024-.65l2.492-.091a.324.324,0,1,1,.025.648Zm-5,.187-2.522.1a.327.327,0,1,1-.024-.654l2.522-.093a.326.326,0,1,1,.024.652Zm-5.06.19-2.553.1a.329.329,0,1,1-.023-.658l2.553-.093a.328.328,0,1,1,.023.656Zm-5.121.191-2.584.1a.335.335,0,0,1-.353-.318.338.338,0,0,1,.33-.344l2.584-.1a.33.33,0,1,1,.023.66Zm-5.184.194-2.615.1a.338.338,0,0,1-.357-.32.342.342,0,0,1,.335-.346l2.615-.1a.332.332,0,1,1,.022.664Zm-5.247.2-2.647.1a.342.342,0,0,1-.362-.322.346.346,0,0,1,.34-.348l2.648-.1a.34.34,0,0,1,.359.321A.344.344,0,0,1,684.773,304.527Zm-5.308.121a.345.345,0,0,1-.071,0,4.408,4.408,0,0,1-2.5-1.3.326.326,0,0,1,.027-.477.367.367,0,0,1,.5.022,3.7,3.7,0,0,0,2.1,1.092.335.335,0,0,1,.287.387A.352.352,0,0,1,679.465,304.648Zm42.676-2.911a.324.324,0,0,1-.2-.062.32.32,0,0,1-.071-.446,3.269,3.269,0,0,0,.623-2.07.315.315,0,0,1,.3-.329.324.324,0,0,1,.331.309,3.9,3.9,0,0,1-.743,2.467A.318.318,0,0,1,722.141,301.737Zm-46-.6a.347.347,0,0,1-.37-.307c0-.05-.012-.093-.013-.143l-.074-2.415a.324.324,0,0,1,.314-.351.318.318,0,0,1,.335.323l.074,2.413c0,.042.04.081.042.123a.323.323,0,0,1-.313.355S676.146,301.137,676.141,301.137Zm46.669-2.885c-.176.006-.264-.129-.272-.305l-.1-2.414c-.008-.176.069-.326.245-.331s.264.131.271.307l.1,2.412C723.062,298.1,722.985,298.247,722.81,298.252Zm-46.869-2.207a.319.319,0,0,1-.335-.324l-.078-2.548a.325.325,0,1,1,.649-.022l.078,2.545A.323.323,0,0,1,675.941,296.045Zm46.673-2.617c-.176,0-.264-.131-.271-.307l-.1-2.409c-.007-.176.07-.324.245-.328s.264.132.271.308l.1,2.407C722.866,293.274,722.789,293.423,722.614,293.428Zm-46.829-2.474a.321.321,0,0,1-.335-.325l-.077-2.543a.318.318,0,0,1,.314-.344.323.323,0,0,1,.334.327l.078,2.539A.32.32,0,0,1,675.785,290.954Zm46.633-2.341c-.175,0-.264-.133-.271-.308l-.1-2.4c-.007-.175.07-.321.245-.324s.263.134.27.309l.1,2.4C722.67,288.462,722.594,288.61,722.418,288.613Zm-46.789-2.739a.323.323,0,0,1-.334-.327l-.078-2.537a.315.315,0,0,1,.314-.34.324.324,0,0,1,.334.327l.078,2.535A.316.316,0,0,1,675.629,285.874Zm46.594-2.066c-.175,0-.263-.135-.271-.31l-.1-2.4c-.007-.175.07-.32.245-.322s.263.136.27.311l.1,2.4C722.475,283.66,722.4,283.806,722.223,283.808Zm-46.749-3a.325.325,0,0,1-.334-.329l-.077-2.531a.31.31,0,0,1,.313-.337.326.326,0,0,1,.334.329l.077,2.529A.313.313,0,0,1,675.474,280.8Zm46.554-1.792c-.175,0-.263-.136-.27-.311l-.1-2.395c-.007-.174.07-.318.245-.319s.263.138.27.313l.1,2.392C722.28,278.867,722.2,279.012,722.028,279.013Zm-46.709-3.266a.328.328,0,0,1-.334-.33l-.077-2.526a.308.308,0,0,1,.313-.334.329.329,0,0,1,.334.331l.077,2.523A.309.309,0,0,1,675.319,275.747Zm46.515-1.519c-.175,0-.263-.138-.27-.313l-.1-2.389c-.007-.174.07-.317.244-.316s.263.139.27.313l.1,2.388C722.086,274.085,722.009,274.228,721.834,274.228ZM675.165,270.7a.33.33,0,0,1-.334-.332l-.058-1.9a3.888,3.888,0,0,1,.044-.675.342.342,0,0,1,.4-.271.323.323,0,0,1,.267.382,3.244,3.244,0,0,0-.066.565l.058,1.894A.306.306,0,0,1,675.165,270.7Zm46.475-1.247c-.175,0-.263-.141-.27-.315l-.019-.461a3.438,3.438,0,0,0-.576-1.675.3.3,0,0,1,.068-.431.3.3,0,0,1,.415.112,4,4,0,0,1,.608,1.994l.018.461C721.891,269.312,721.815,269.454,721.64,269.453Zm-45.272-3.429a.373.373,0,0,1-.263-.109.318.318,0,0,1,.008-.468,4.305,4.305,0,0,1,2.574-1.038.365.365,0,0,1,.384.309.321.321,0,0,1-.313.35,3.609,3.609,0,0,0-2.155.871A.348.348,0,0,1,676.368,266.024Zm42.773-.391a.313.313,0,0,1-.115-.022,3.408,3.408,0,0,0-1.2-.227l-1.084-.009a.337.337,0,0,1-.332-.319.3.3,0,0,1,.307-.313l1.084.01a4.058,4.058,0,0,1,1.427.272.33.33,0,0,1,.2.409A.3.3,0,0,1,719.141,265.633Zm-4.826-.278-2.444-.021a.339.339,0,0,1-.336-.32.3.3,0,0,1,.311-.315l2.444.022a.339.339,0,0,1,.334.32A.3.3,0,0,1,714.315,265.355Zm-4.9-.041-2.474-.021a.341.341,0,0,1-.339-.322.305.305,0,0,1,.315-.317l2.473.022a.342.342,0,0,1,.338.322A.306.306,0,0,1,709.412,265.314Zm-4.962-.041-2.5-.021a.345.345,0,0,1-.343-.325.309.309,0,0,1,.32-.318l2.5.023a.342.342,0,0,1,.341.323A.308.308,0,0,1,704.45,265.273Zm-5.021-.042-2.533-.021a.347.347,0,0,1-.346-.327.311.311,0,0,1,.323-.32l2.533.023a.347.347,0,0,1,.345.325A.312.312,0,0,1,699.429,265.231Zm-5.081-.042-2.563-.022a.349.349,0,0,1-.351-.328.315.315,0,0,1,.328-.322l2.563.023a.349.349,0,0,1,.349.327A.315.315,0,0,1,694.348,265.189Zm-5.142-.043-2.595-.022a.352.352,0,0,1-.354-.33.318.318,0,0,1,.332-.324l2.6.023a.352.352,0,0,1,.352.33A.318.318,0,0,1,689.206,265.146ZM684,265.1l-2.626-.022a.358.358,0,0,1-.359-.333.324.324,0,0,1,.338-.326l2.625.024a.355.355,0,0,1,.356.331A.321.321,0,0,1,684,265.1Z" fill="#fff"/>
          </g>
          <path id="Path_271839" data-name="Path 271839" d="M725.708,275.707a.969.969,0,0,0-.891-.11l-9.378,3.53a3.416,3.416,0,0,0-2.25,3.254l.148,3.836a3.654,3.654,0,0,0,2.742,3.271l9.432,2.507a.993.993,0,0,0,.866-.175.974.974,0,0,0,.371-.791l-.6-14.527A1,1,0,0,0,725.708,275.707Z" fill="url(#linear-gradient-25)"/>
          <path id="Path_271840" data-name="Path 271840" d="M719.243,284.128a1.877,1.877,0,0,1-1.859,1.955,1.993,1.993,0,0,1-2.021-1.9,1.875,1.875,0,0,1,1.868-1.953A1.993,1.993,0,0,1,719.243,284.128Z" fill="url(#linear-gradient-26)"/>
        </g>
      </g>
    </g>
    <g id="Group_32428" data-name="Group 32428">
      <path id="Path_271841" data-name="Path 271841" d="M800.94,251.118s10.848,6.009,11.745,16.179.075,52.384-21.677,62.773-50.546,8-61.567,6.86-17.133-8.626-18.5-13.784-3.57-24.368,8.025-30.565,23.771-15.691,35.939-24.936S787.929,243.31,800.94,251.118Z" fill="url(#linear-gradient-27)"/>
      <path id="Path_271842" data-name="Path 271842" d="M722.386,296.087s2.928.155,3.287,6.178a34.791,34.791,0,0,1-15.959,7.535c-.689.108.962-4.7,1.21-5.351C712.1,301.349,715.824,299.353,722.386,296.087Z" fill="url(#linear-gradient-28)"/>
      <path id="Path_271843" data-name="Path 271843" d="M755.359,289H752.42a7.507,7.507,0,0,1-5.395-2.282c-4.867-5.022-17.03-16.843-26.645-20.1a3.25,3.25,0,0,0-3.973,1.718c-2.007,4.282-4.823,14.249,1.845,29.333a3.007,3.007,0,0,0,4.355,1.366,2.459,2.459,0,0,0,.936-1.143l-.733-17.631s16.176,14.147,18.987,16.878S758.9,298.208,755.359,289Z" fill="url(#linear-gradient-29)"/>
      <path id="Path_271844" data-name="Path 271844" d="M695.628,332.975A23.224,23.224,0,0,1,708.3,327.43l2.014,1.232a21.927,21.927,0,0,1-3.63,3.9c-2.156,1.252-5.486,2.948-8.246,3.316C695.751,336.231,695.355,334.61,695.628,332.975Z" fill="url(#linear-gradient-30)"/>
      <path id="Path_271845" data-name="Path 271845" d="M710.924,304.449c1.595.516,2.3,2.776,6.344,1.281a35.824,35.824,0,0,0,8.324-4.385c.034.291.062.6.081.92,0,0-7.158,6.809-16.329,8.257a.912.912,0,0,1-.986-1.229A23.077,23.077,0,0,1,710.924,304.449Z" fill="url(#linear-gradient-31)"/>
      <path id="Path_271846" data-name="Path 271846" d="M693.677,334.912a21.414,21.414,0,0,1,1.951-1.937c-.273,1.635.123,3.256,2.807,2.9,2.76-.368,6.09-2.064,8.246-3.316a17.825,17.825,0,0,1-12.005,4.607A1.361,1.361,0,0,1,693.677,334.912Z" fill="url(#linear-gradient-32)"/>
      <path id="Path_271847" data-name="Path 271847" d="M755.133,293.475l-28.932.313s-16.523,13.67-19.52,34.515c0,0-.5,1.533,2.489,1.795a57.344,57.344,0,0,0,16.5-18.059c7.987-14.144,23.809-7.777,23.809-7.777,5.2-3.748,12.545-4.512,18.08-5.76Z" fill="url(#linear-gradient-33)"/>
      <path id="Path_271848" data-name="Path 271848" d="M752.781,293.219a83.343,83.343,0,0,0,4.3-18.983,40.924,40.924,0,0,0-4.211-3.187,1.172,1.172,0,0,1-.457-1.519c1.191-2.466,8.392-12.152,8.931-12.287,2.932-.731,14.956-6.448,23.425,5.135,3.634,4.972-.721,20.275-17.21,36.124l-3.4.65Z" fill="url(#linear-gradient-34)"/>
      <path id="Path_271849" data-name="Path 271849" d="M772.17,249.071l2.153,7.181a.791.791,0,0,1-.307.88,8.02,8.02,0,0,1-7.463.749,1.17,1.17,0,0,1-.753-1.005l-.51-6.256Z" fill="url(#linear-gradient-35)"/>
      <g id="Group_32427" data-name="Group 32427">
        <path id="Path_271850" data-name="Path 271850" d="M759.562,243.255s1.058,7.444,3.918,9.734,8.431.565,10.313-5.047l-3.75-9.6Z" fill="url(#linear-gradient-36)"/>
        <path id="Path_271851" data-name="Path 271851" d="M770.466,244.556a.368.368,0,0,1-.479-.295,9.647,9.647,0,0,0-.883-2.974s.273-.976-2.468.5-6.859,3.643-9.283,2.352c-2.363-1.258-4.757-7.59,1.489-6.417a.368.368,0,0,0,.438-.386c-.076-1.041.027-3.435,2.452-4.2a3.484,3.484,0,0,1,4.023.924.365.365,0,0,0,.573-.01,4.251,4.251,0,0,1,5.244-1.578c2.238.986,2.586,2.365,2.549,3.224a.367.367,0,0,0,.523.35,2.214,2.214,0,0,1,2.845.844c1.46,1.83-.627,3.416-1.253,3.832a.37.37,0,0,0-.167.3c-.006.952-.154,5.1-2.234,7.443a.372.372,0,0,1-.618-.107l-1.6-3.816a.371.371,0,0,0-.455-.209Z"/>
        <path id="Path_271852" data-name="Path 271852" d="M770.432,245.331s.978-3.984,2.464-2.69-.388,4.14-2.09,4.682Z" fill="url(#linear-gradient-37)"/>
      </g>
      <path id="Path_271853" data-name="Path 271853" d="M757.084,274.386a.149.149,0,0,1-.149-.149,43.965,43.965,0,0,1,1.671-10.137.15.15,0,1,1,.288.084,43.61,43.61,0,0,0-1.66,10.052.15.15,0,0,1-.149.15Z" fill="#e78456"/>
      <path id="Path_271854" data-name="Path 271854" d="M766.429,276.5a.154.154,0,0,1-.093-.032.151.151,0,0,1-.025-.211c.045-.056,4.511-5.733,6.039-9.606a.15.15,0,0,1,.279.11c-1.545,3.914-6.037,9.625-6.083,9.682A.149.149,0,0,1,766.429,276.5Z" fill="#e78456"/>
      <path id="Path_271855" data-name="Path 271855" d="M772.758,285.227l-.816-1.153a.15.15,0,1,1,.244-.173l.676.956c6.334-2.78,10.252-10.355,10.291-10.431a.15.15,0,0,1,.267.136c-.04.078-4.054,7.836-10.551,10.618Z" fill="#e78456"/>
      <path id="Path_271856" data-name="Path 271856" d="M753.124,270.083s-4.752,13.686-14.013,3.269l-.881-.391h0l-6.638-4.538.739,2.628a4.91,4.91,0,0,0,2.859,3.211l.875.36c1.664,3.459,5.23,8.7,10.721,9.694,8.241,1.492,12.468-9.642,12.468-9.642Z" fill="url(#linear-gradient-38)"/>
      <path id="Path_271857" data-name="Path 271857" d="M728.281,264.929l-.466.638a.68.68,0,0,0,.166.962l10.457,7.143a.679.679,0,0,0,.879-.1h0a.679.679,0,0,0-.078-1l-9.992-7.781A.679.679,0,0,0,728.281,264.929Z" fill="url(#linear-gradient-39)"/>
      <path id="Path_271858" data-name="Path 271858" d="M737.721,271.524c-.131-.115,8.081-4.135,11.173-3.767,3.011.359,6.553,2.609,9.856,5.275,2.973,2.4,6.032,3.95,8.9,3.83,0,0,4.91,5.34,3.822,8.561a11.469,11.469,0,0,1-10.107-3.308c-4.426-4.37-9.313-9.94-12.063-10.955a.782.782,0,0,0-.691.077,6.252,6.252,0,0,1-6.78-.229S739.086,272.718,737.721,271.524Z" fill="url(#linear-gradient-40)"/>
      <path id="Path_271859" data-name="Path 271859" d="M740.156,252.94a73.431,73.431,0,0,0,1.4,7.912,1.336,1.336,0,0,0,1.2.985c1.8.132,5.826.295,8.172-.628a1.332,1.332,0,0,0,.834-1.307,75.3,75.3,0,0,0-.768-8.378,1.341,1.341,0,0,0-1.445-1.09c-1.9.177-5.737.56-8.288,1.006A1.344,1.344,0,0,0,740.156,252.94Z" fill="url(#linear-gradient-41)"/>
      <path id="Path_271860" data-name="Path 271860" d="M734.669,255.667l.23,1.552a.646.646,0,0,0,.727.545l1.821-.252a.645.645,0,0,0,.554-.7l-.117-1.3a.646.646,0,0,0-.643-.588h-1.934A.646.646,0,0,0,734.669,255.667Z" fill="url(#linear-gradient-42)"/>
      <path id="Path_271861" data-name="Path 271861" d="M735.39,261.8l.376,2.071a1.345,1.345,0,0,0,1.736,1.04l1.376-.443a1.345,1.345,0,0,0,.928-1.394l-.172-2.021a1.345,1.345,0,0,0-1.665-1.192l-1.58.394A1.346,1.346,0,0,0,735.39,261.8Z" fill="url(#linear-gradient-43)"/>
    </g>
  </g>
</svg>
