<svg xmlns="http://www.w3.org/2000/svg" width="35.352" height="49.12" viewBox="0 0 35.352 49.12">
  <g id="Group_30878" data-name="Group 30878" transform="translate(-191.722 -284.38)">
    <path id="Path_252700" data-name="Path 252700" d="M200.686,295.577h.012c.029-4.331,3.913-7.831,8.7-7.831s8.672,3.5,8.691,7.831h.011v4.8h3.708v-4.8c-.018-6.187-5.57-11.2-12.41-11.2s-12.387,5.01-12.412,11.2v4.8h3.7Z" fill="#fff"/>
    <path id="Path_252701" data-name="Path 252701" d="M210.469,316.217a2.779,2.779,0,0,0-.693-.854,1.533,1.533,0,0,0-1.006-.346,1.549,1.549,0,0,0-1.016.346,2.82,2.82,0,0,0-.7.854,4.085,4.085,0,0,0-.406,1.093,4.386,4.386,0,0,0,0,2.12,4.091,4.091,0,0,0,.406,1.092,2.825,2.825,0,0,0,.7.855,1.549,1.549,0,0,0,1.016.346,1.533,1.533,0,0,0,1.006-.346,2.784,2.784,0,0,0,.693-.855,4.332,4.332,0,0,0,.4-1.092,4.387,4.387,0,0,0,0-2.12A4.325,4.325,0,0,0,210.469,316.217Z" fill="#fff"/>
    <path id="Path_252702" data-name="Path 252702" d="M224.688,301.5h-2.879v1.2H218.1v-1.2H200.686v1.2h-3.7v-1.2h-2.879a2.279,2.279,0,0,0-2.386,2.152v27.691a2.279,2.279,0,0,0,2.386,2.159h30.58a2.282,2.282,0,0,0,2.386-2.159V303.65A2.281,2.281,0,0,0,224.688,301.5Zm-9.336,18.44a8.841,8.841,0,0,1-.611,1.807,8.371,8.371,0,0,1-.978,1.611,6.733,6.733,0,0,1-1.326,1.3,6.219,6.219,0,0,1-1.638.866,5.757,5.757,0,0,1-1.92.313,5.827,5.827,0,0,1-1.936-.313,6.088,6.088,0,0,1-1.639-.866,6.867,6.867,0,0,1-1.325-1.3,8.158,8.158,0,0,1-.985-1.611,8.869,8.869,0,0,1-.61-1.813,8.557,8.557,0,0,1-.212-1.887,8.65,8.65,0,0,1,.212-1.893,8.864,8.864,0,0,1,.61-1.817,8.285,8.285,0,0,1,.985-1.616,6.813,6.813,0,0,1,1.325-1.3,6.031,6.031,0,0,1,1.644-.866,5.839,5.839,0,0,1,1.931-.313,5.757,5.757,0,0,1,1.92.313,6.189,6.189,0,0,1,1.638.866,6.682,6.682,0,0,1,1.326,1.3,8.5,8.5,0,0,1,.978,1.616,8.808,8.808,0,0,1,.611,1.817,8.649,8.649,0,0,1,.211,1.893A8.542,8.542,0,0,1,215.352,319.938Z" fill="#fff"/>
  </g>
</svg>
