<svg xmlns="http://www.w3.org/2000/svg" xmlns:xlink="http://www.w3.org/1999/xlink" width="170.714" height="41.39" viewBox="0 0 170.714 41.39">
  <defs>
    <linearGradient id="linear-gradient" x1="0.511" y1="-0.145" x2="0.448" y2="1.182" gradientUnits="objectBoundingBox">
      <stop offset="0" stop-color="#faab20"/>
      <stop offset="1" stop-color="#de158c"/>
    </linearGradient>
    <linearGradient id="linear-gradient-2" x1="0.54" y1="-0.117" x2="0.468" y2="1.21" xlink:href="#linear-gradient"/>
    <linearGradient id="linear-gradient-3" x1="0.532" y1="-0.09" x2="0.46" y2="1.239" xlink:href="#linear-gradient"/>
    <linearGradient id="linear-gradient-4" x1="0.533" y1="-0.063" x2="0.455" y2="1.265" xlink:href="#linear-gradient"/>
    <linearGradient id="linear-gradient-5" x1="0.617" y1="-0.044" x2="0.331" y2="1.284" xlink:href="#linear-gradient"/>
    <linearGradient id="linear-gradient-6" x1="0.531" y1="-0.026" x2="0.452" y2="1.303" xlink:href="#linear-gradient"/>
    <linearGradient id="linear-gradient-7" x1="0.529" y1="0.001" x2="0.457" y2="1.328" xlink:href="#linear-gradient"/>
    <linearGradient id="linear-gradient-8" x1="0.524" y1="0.029" x2="0.456" y2="1.356" xlink:href="#linear-gradient"/>
    <linearGradient id="linear-gradient-9" x1="0.528" y1="0.036" x2="0.475" y2="1.438" xlink:href="#linear-gradient"/>
    <linearGradient id="linear-gradient-10" x1="0.55" y1="0.109" x2="0.469" y2="1.437" xlink:href="#linear-gradient"/>
    <linearGradient id="linear-gradient-11" x1="0.581" y1="-5.135" x2="0.447" y2="4.164" xlink:href="#linear-gradient"/>
    <linearGradient id="linear-gradient-12" x1="0.58" y1="-5.05" x2="0.446" y2="4.238" xlink:href="#linear-gradient"/>
    <linearGradient id="linear-gradient-13" x1="0.579" y1="-4.975" x2="0.445" y2="4.32" xlink:href="#linear-gradient"/>
    <linearGradient id="linear-gradient-14" x1="0.544" y1="-0.174" x2="0.468" y2="1.273" xlink:href="#linear-gradient"/>
    <linearGradient id="linear-gradient-15" x1="0.545" y1="0.18" x2="0.465" y2="1.508" xlink:href="#linear-gradient"/>
    <linearGradient id="linear-gradient-16" x1="0.525" y1="-0.126" x2="0.479" y2="1.756" xlink:href="#linear-gradient"/>
    <linearGradient id="linear-gradient-17" x1="0.518" y1="0.146" x2="0.438" y2="1.62" xlink:href="#linear-gradient"/>
    <linearGradient id="linear-gradient-18" x1="0.597" y1="0.173" x2="0.337" y2="1.051" xlink:href="#linear-gradient"/>
    <linearGradient id="linear-gradient-19" x1="0.5" y1="0.138" x2="0.5" y2="0.788" xlink:href="#linear-gradient"/>
    <linearGradient id="linear-gradient-20" x1="0.5" y1="0.896" x2="0.5" y2="-0.134" xlink:href="#linear-gradient"/>
  </defs>
  <g id="Group_25939" data-name="Group 25939" transform="translate(-62.945 -37.236)">
    <g id="Group_30240" data-name="Group 30240">
      <path id="Path_182382" data-name="Path 182382" d="M107,64.017a.549.549,0,0,0-.338.125.515.515,0,0,0-.165.437l0,.674a.518.518,0,0,0,.164.437.544.544,0,0,0,.338.127l2.663,0,.019,8.926a.515.515,0,0,0,.167.437.532.532,0,0,0,.336.125h.72a.549.549,0,0,0,.337-.127.525.525,0,0,0,.164-.439l-.019-8.929,2.662,0a.561.561,0,0,0,.336-.125.523.523,0,0,0,.163-.439v-.675a.516.516,0,0,0-.167-.438.544.544,0,0,0-.337-.125Z" fill="url(#linear-gradient)"/>
      <path id="Path_182383" data-name="Path 182383" d="M117.784,67.375a1.384,1.384,0,0,1,.15-.641,1.6,1.6,0,0,1,.387-.511,1.825,1.825,0,0,1,.549-.331,1.8,1.8,0,0,1,.634-.118,1.754,1.754,0,0,1,.618.114,1.877,1.877,0,0,1,.549.33,1.673,1.673,0,0,1,.394.508,1.406,1.406,0,0,1,.149.642l0,1.943-3.427.007Zm.528-3.166a3.468,3.468,0,0,0-1.115.655,3.414,3.414,0,0,0-.811,1.059,3.227,3.227,0,0,0-.31,1.456l.017,7.362q0,.347.181.445a.68.68,0,0,0,.323.1h.705a.654.654,0,0,0,.319-.1.472.472,0,0,0,.179-.446l-.008-3.633,3.43-.008.009,3.633a.539.539,0,0,0,.063.289.625.625,0,0,0,.141.165.369.369,0,0,0,.173.079.922.922,0,0,0,.141.014h.705a.794.794,0,0,0,.133-.017.349.349,0,0,0,.163-.079.55.55,0,0,0,.142-.167.574.574,0,0,0,.064-.286l-.019-7.364a3.137,3.137,0,0,0-.324-1.448,3.454,3.454,0,0,0-.824-1.062,3.566,3.566,0,0,0-1.107-.649,3.494,3.494,0,0,0-1.183-.217,3.544,3.544,0,0,0-1.187.222" fill="url(#linear-gradient-2)"/>
      <path id="Path_182384" data-name="Path 182384" d="M128.381,63.968a3.539,3.539,0,0,0-1.386.27,3.281,3.281,0,0,0-1.813,1.851,3.668,3.668,0,0,0-.257,1.379v.221a1.555,1.555,0,0,0,.13.274c.061.11.193.161.389.161h.721a.442.442,0,0,0,.4-.157.723.723,0,0,0,.118-.283,1.181,1.181,0,0,0,.014-.219.469.469,0,0,1-.014-.141,1.732,1.732,0,0,1,.121-.641,1.775,1.775,0,0,1,.349-.558,1.724,1.724,0,0,1,.542-.385,1.646,1.646,0,0,1,.688-.144,1.714,1.714,0,0,1,.7.141,1.665,1.665,0,0,1,.55.382,1.9,1.9,0,0,1,.361.555,1.588,1.588,0,0,1,.134.643v.156a1.141,1.141,0,0,1-.318.8,1.07,1.07,0,0,1-.805.348h-1.477a.788.788,0,0,0-.641.269.849.849,0,0,0-.216.533.872.872,0,0,0,.22.54.776.776,0,0,0,.642.273l1.473,0a1.081,1.081,0,0,1,.8.335,1.1,1.1,0,0,1,.328.791l0,.548a1.608,1.608,0,0,1-.131.643,1.928,1.928,0,0,1-.359.557,1.78,1.78,0,0,1-.548.393,1.7,1.7,0,0,1-1.409-.006,1.659,1.659,0,0,1-.542-.413,1.932,1.932,0,0,1-.338-.594,2.118,2.118,0,0,1-.118-.714.41.41,0,0,0,0-.218.7.7,0,0,0-.118-.283.445.445,0,0,0-.4-.155h-.721a.424.424,0,0,0-.406.174.647.647,0,0,0-.094.3v.33a3.276,3.276,0,0,0,.246,1.212,3.469,3.469,0,0,0,.69,1.079,3.359,3.359,0,0,0,1.083.767,3.726,3.726,0,0,0,2.875-.009,3.375,3.375,0,0,0,1.087-.77,3.42,3.42,0,0,0,.687-1.083,3.234,3.234,0,0,0,.241-1.213c0-.24-.006-.469-.019-.68a3.15,3.15,0,0,0-.094-.628,2.577,2.577,0,0,0-.245-.6,2.37,2.37,0,0,0-.463-.579,2.594,2.594,0,0,0,.618-.9,2.82,2.82,0,0,0,.193-1.042v-.157a3.232,3.232,0,0,0-.246-1.226,3.378,3.378,0,0,0-.693-1.072,3.338,3.338,0,0,0-1.09-.758,3.475,3.475,0,0,0-1.43-.287Z" fill="url(#linear-gradient-3)"/>
      <path id="Path_182385" data-name="Path 182385" d="M134.333,63.955a.54.54,0,0,0-.337.127.516.516,0,0,0-.164.437l.021,9.369a1.3,1.3,0,0,0,.134.594,1.512,1.512,0,0,0,.331.422,1.3,1.3,0,0,0,.439.258,1.357,1.357,0,0,0,.448.087l4.493-.013a.638.638,0,0,0,.312-.1c.129-.067.19-.215.19-.446l0-.69a.441.441,0,0,0-.188-.429.709.709,0,0,0-.313-.1l-4.12.009-.019-8.961a.489.489,0,0,0-.188-.445.644.644,0,0,0-.33-.115Z" fill="url(#linear-gradient-4)"/>
      <path id="Path_182386" data-name="Path 182386" d="M142.523,63.936a.653.653,0,0,0-.326.119.486.486,0,0,0-.187.446l.021,10.183c0,.229.068.378.2.446a.771.771,0,0,0,.314.1h.7a.649.649,0,0,0,.323-.108.482.482,0,0,0,.179-.441L143.732,64.5a.509.509,0,0,0-.166-.426.525.525,0,0,0-.337-.135Z" fill="url(#linear-gradient-5)"/>
      <path id="Path_182387" data-name="Path 182387" d="M146.206,63.928a.557.557,0,0,0-.338.127.52.52,0,0,0-.162.439l.021,9.367a1.244,1.244,0,0,0,.132.592,1.421,1.421,0,0,0,.334.426,1.38,1.38,0,0,0,.437.258,1.4,1.4,0,0,0,.449.084l4.492-.009a.713.713,0,0,0,.313-.1c.126-.068.187-.217.186-.448v-.689a.443.443,0,0,0-.191-.431.675.675,0,0,0-.312-.1l-4.119.008-.017-8.959a.487.487,0,0,0-.191-.446.676.676,0,0,0-.329-.117Z" fill="url(#linear-gradient-6)"/>
      <path id="Path_182388" data-name="Path 182388" d="M154.93,63.91a1.366,1.366,0,0,0-.448.087,1.345,1.345,0,0,0-.436.259,1.406,1.406,0,0,0-.328.431,1.277,1.277,0,0,0-.131.6l.019,8.552a1.265,1.265,0,0,0,.132.6,1.443,1.443,0,0,0,.331.422,1.364,1.364,0,0,0,.439.261,1.385,1.385,0,0,0,.447.081l5.09-.01a.668.668,0,0,0,.321-.1c.12-.068.18-.216.179-.447v-.688a.454.454,0,0,0-.182-.43.66.66,0,0,0-.319-.1l-4.715.008-.009-3.1,4.058-.008a.547.547,0,0,0,.331-.119.489.489,0,0,0,.151-.415V69.1a.507.507,0,0,0-.155-.422.522.522,0,0,0-.33-.125l-4.057.009-.006-2.853,4.556-.009a.537.537,0,0,0,.337-.125.52.52,0,0,0,.165-.44l0-.674a.52.52,0,0,0-.165-.436.555.555,0,0,0-.338-.126Z" fill="url(#linear-gradient-7)"/>
      <path id="Path_182389" data-name="Path 182389" d="M168.575,63.88a.678.678,0,0,0-.33.115.494.494,0,0,0-.188.452l.008,4.087-3.836.008-.009-4.091a.484.484,0,0,0-.192-.445.626.626,0,0,0-.325-.117l-.691,0a.556.556,0,0,0-.337.128.513.513,0,0,0-.162.439l.024,10.164a.512.512,0,0,0,.164.44.562.562,0,0,0,.336.123l.688,0a.657.657,0,0,0,.329-.117.48.48,0,0,0,.188-.447l-.008-4.308,3.836-.009.012,4.31a.474.474,0,0,0,.188.444.657.657,0,0,0,.327.117h.7a.656.656,0,0,0,.33-.118.486.486,0,0,0,.186-.448L169.8,64.44a.488.488,0,0,0-.192-.445.633.633,0,0,0-.329-.115Z" fill="url(#linear-gradient-8)"/>
      <path id="Path_182390" data-name="Path 182390" d="M182.6,73.381a1.872,1.872,0,0,1-.959-.978,1.744,1.744,0,0,1-.142-.673l0-1.112a1.737,1.737,0,0,1,.132-.668,1.8,1.8,0,0,1,.946-.972,1.725,1.725,0,0,1,.72-.151,1.8,1.8,0,0,1,.728.15,1.933,1.933,0,0,1,.583.387,1.807,1.807,0,0,1,.375.563,1.772,1.772,0,0,1,.135.684l.007,2.913-1.818,0a1.718,1.718,0,0,1-.705-.146m.69-6.2a3.474,3.474,0,0,0-1.463.3,3.516,3.516,0,0,0-1.1.786,3.556,3.556,0,0,0-.7,1.1,3.264,3.264,0,0,0-.248,1.251v1.114a3.294,3.294,0,0,0,.255,1.243,3.542,3.542,0,0,0,.706,1.1A3.536,3.536,0,0,0,183.3,75.14l5.936-.011,0-1.614-2.4,0-.006-2.914a3.319,3.319,0,0,0-1.055-2.44,3.752,3.752,0,0,0-1.13-.72,3.525,3.525,0,0,0-1.355-.262Zm-1.618-2.738a.426.426,0,0,0-.408.173.655.655,0,0,0-.093.3l0,.893a.5.5,0,0,0,.11.3.457.457,0,0,0,.394.149l.764,0a.46.46,0,0,0,.393-.149.506.506,0,0,0,.109-.307l0-.893a.649.649,0,0,0-.094-.3.425.425,0,0,0-.407-.171Zm2.8,0h-.751a.472.472,0,0,0-.4.157.515.515,0,0,0-.117.313l0,.893a.445.445,0,0,0,.127.32.508.508,0,0,0,.391.135l.752,0a.52.52,0,0,0,.384-.134.429.429,0,0,0,.132-.323v-.893a.513.513,0,0,0-.125-.309.467.467,0,0,0-.388-.157Z" fill="url(#linear-gradient-9)"/>
      <path id="Path_182391" data-name="Path 182391" d="M191.612,63.829c-.207,0-.343.057-.4.174a.654.654,0,0,0-.094.3l.019,8.645a.658.658,0,0,1-.114.439.512.512,0,0,1-.387.126l-2.176.007,0,1.613,2.161,0a2.968,2.968,0,0,0,.781-.1,1.764,1.764,0,0,0,.691-.371,2.094,2.094,0,0,0,.8.368,3.93,3.93,0,0,0,.893.1l.892,0V73.5h-.924l-.235,0a1.823,1.823,0,0,1-.22-.016.67.67,0,0,1-.345-.116.288.288,0,0,1-.1-.214l-.02-8.863a.663.663,0,0,0-.094-.3.427.427,0,0,0-.407-.169Z" fill="url(#linear-gradient-10)"/>
      <rect id="Rectangle_12210" data-name="Rectangle 12210" width="3.728" height="1.613" transform="matrix(1, -0.002, 0.002, 1, 194.282, 73.504)" fill="url(#linear-gradient-11)"/>
      <rect id="Rectangle_12211" data-name="Rectangle 12211" width="3.729" height="1.615" transform="translate(197.836 73.495) rotate(-0.142)" fill="url(#linear-gradient-12)"/>
      <rect id="Rectangle_12212" data-name="Rectangle 12212" width="3.728" height="1.614" transform="translate(201.394 73.484) rotate(-0.071)" fill="url(#linear-gradient-13)"/>
      <path id="Path_182392" data-name="Path 182392" d="M205.845,75.969c-.208,0-.345.057-.4.172a.676.676,0,0,0-.094.313v.861a.644.644,0,0,0,.094.3.425.425,0,0,0,.408.172h.752a.47.47,0,0,0,.515-.473V76.45a.516.516,0,0,0-.126-.33.473.473,0,0,0-.393-.154Zm3.2-.007h-.752a.444.444,0,0,0-.416.175.636.636,0,0,0-.1.313l0,.862a.621.621,0,0,0,.1.3.447.447,0,0,0,.415.171l.752,0a.449.449,0,0,0,.417-.174.6.6,0,0,0,.1-.3v-.864a.6.6,0,0,0-.1-.31.433.433,0,0,0-.408-.172Zm-.553-8.536a.475.475,0,0,0-.39.157.529.529,0,0,0-.126.33l.012,5a.669.669,0,0,1-.108.438.472.472,0,0,1-.375.126l-2.63.008v1.611l2.6-.006a3.333,3.333,0,0,0,.776-.1,1.857,1.857,0,0,0,.727-.354,2.018,2.018,0,0,0,.793.357,4.037,4.037,0,0,0,.884.092h.832l-.005-1.613-.922,0h-.213a1.439,1.439,0,0,1-.212-.015c-.27-.04-.407-.153-.408-.328l-.012-5.215a.563.563,0,0,0-.117-.33.477.477,0,0,0-.4-.155Z" fill="url(#linear-gradient-14)"/>
      <path id="Path_182393" data-name="Path 182393" d="M214.247,63.778a.432.432,0,0,0-.408.173.66.66,0,0,0-.093.3l.019,8.647a.624.624,0,0,1-.117.437.5.5,0,0,1-.382.128l-2.178,0,.006,1.613,2.159-.006a2.922,2.922,0,0,0,.782-.1,1.743,1.743,0,0,0,.69-.372,2.134,2.134,0,0,0,.8.368,3.881,3.881,0,0,0,.893.1h.893l0-1.615-.925.005h-.235a1.462,1.462,0,0,1-.22-.017.62.62,0,0,1-.343-.115.281.281,0,0,1-.1-.212l-.021-8.865a.641.641,0,0,0-.094-.3c-.063-.113-.2-.169-.407-.169Z" fill="url(#linear-gradient-15)"/>
      <path id="Path_182394" data-name="Path 182394" d="M220.6,70.249a1.719,1.719,0,0,1,.271-.565,2.541,2.541,0,0,1,.456-.477,2.049,2.049,0,0,1,.576-.339,1.8,1.8,0,0,1,.651-.125,1.94,1.94,0,0,1,.674.113,2.394,2.394,0,0,1,.6.321,1.957,1.957,0,0,1,.454.469,1.537,1.537,0,0,1,.244.578l-1.512,3.217h-.892Zm1.951-3.153a3.4,3.4,0,0,0-1.2.224,4.358,4.358,0,0,0-1.089.6,4.066,4.066,0,0,0-.867.894,3.18,3.18,0,0,0-.506,1.113.533.533,0,0,0-.03.156.972.972,0,0,0-.033.2v.173a2.149,2.149,0,0,0,.064.236l1.339,2.754-3.4.008,0,1.611,11.074-.023,0-1.613-3.008.007,1.325-2.762a.787.787,0,0,0,.062-.326v-.065a3.058,3.058,0,0,0-.354-1.188,3.621,3.621,0,0,0-.818-1.025,4.086,4.086,0,0,0-1.17-.709,3.663,3.663,0,0,0-1.385-.265Z" fill="url(#linear-gradient-16)"/>
      <path id="Path_182395" data-name="Path 182395" d="M232.11,67.371l-.718,0a.419.419,0,0,0-.4.181.644.644,0,0,0-.1.307l.012,5.01a.632.632,0,0,1-.114.433.573.573,0,0,1-.4.118l-2.943,0,0,1.615,2.93-.006a2.481,2.481,0,0,0,.983-.183,2.036,2.036,0,0,0,.705-.479,1.942,1.942,0,0,0,.423-.693,2.394,2.394,0,0,0,.138-.813l-.011-5.013a.635.635,0,0,0-.1-.3.411.411,0,0,0-.393-.183Zm-1.415-2.5h-.752a.505.505,0,0,0-.381.135.432.432,0,0,0-.136.321l0,.815a.446.446,0,0,0,.135.321.514.514,0,0,0,.385.131h.752a.449.449,0,0,0,.389-.15.51.51,0,0,0,.111-.305l0-.815a.492.492,0,0,0-.11-.3.446.446,0,0,0-.386-.149Zm1.692-.005a.454.454,0,0,0-.393.152.517.517,0,0,0-.108.3l0,.814a.5.5,0,0,0,.111.306.452.452,0,0,0,.392.15l.752,0a.523.523,0,0,0,.385-.134.432.432,0,0,0,.131-.321l0-.813a.44.44,0,0,0-.132-.322.521.521,0,0,0-.386-.131Z" fill="url(#linear-gradient-17)"/>
      <rect id="Rectangle_12213" data-name="Rectangle 12213" width="1.924" height="17.094" transform="matrix(1, -0.002, 0.002, 1, 173.513, 61.532)" fill="url(#linear-gradient-18)"/>
      <g id="Group_25938" data-name="Group 25938">
        <path id="Path_182396" data-name="Path 182396" d="M71.9,37.236a1.88,1.88,0,0,1-1.791,1.959,1.71,1.71,0,0,1-1.266-.574,2.048,2.048,0,0,1-.525-1.385H64.735a1.88,1.88,0,0,1-1.79,1.959v9.742H77.2V39.195a1.714,1.714,0,0,1-1.249-.574,2.047,2.047,0,0,1-.524-1.385Z" fill="url(#linear-gradient-19)"/>
        <path id="Path_182397" data-name="Path 182397" d="M98.859,52.264V50.441a1.715,1.715,0,0,1-1.637-1.784h0l-2.919,0v1.582h-.948V48.655L62.951,48.64l-.006,14.306c0,8.6,7.959,14.234,13.052,14.234l17.359.009V75.745H94.3v1.444H97.21a1.858,1.858,0,0,1,.48-1.233,1.567,1.567,0,0,1,1.158-.522V73.692a1.716,1.716,0,0,1-1.636-1.784,1.86,1.86,0,0,1,.48-1.261,1.569,1.569,0,0,1,1.158-.522V68.3a1.713,1.713,0,0,1-1.636-1.757l-2.911,0V68.1h-.948v-1.56l-12.843-.007a3.155,3.155,0,0,1-2.331-1.054,3.015,3.015,0,0,1-.963-2.236l.009-3.9,16.128.007V57.879H94.3v1.477h2.914A1.86,1.86,0,0,1,97.7,58.1a1.565,1.565,0,0,1,1.157-.522V55.831a1.714,1.714,0,0,1-1.636-1.784,1.859,1.859,0,0,1,.48-1.26A1.568,1.568,0,0,1,98.859,52.264Zm-5.5,17.368H94.3v1.52h-.948Zm0,3.039H94.3v1.581h-.948ZM94.3,56.386h-.948V54.8H94.3Zm0-3.1h-.948v-1.52H94.3Z" fill="url(#linear-gradient-20)"/>
      </g>
    </g>
  </g>
</svg>
