<svg xmlns="http://www.w3.org/2000/svg" xmlns:xlink="http://www.w3.org/1999/xlink" width="212.672" height="217.4" viewBox="0 0 212.672 217.4">
  <defs>
    <linearGradient id="linear-gradient" x1="0.397" y1="0.497" x2="1.256" y2="0.084" gradientUnits="objectBoundingBox">
      <stop offset="0" stop-color="#aa80f9"/>
      <stop offset="0.996" stop-color="#6165d7"/>
    </linearGradient>
    <linearGradient id="linear-gradient-2" x1="-7.053" y1="10.336" x2="-6.038" y2="10.336" gradientUnits="objectBoundingBox">
      <stop offset="0" stop-color="#ff9085"/>
      <stop offset="1" stop-color="#fb6fbb"/>
    </linearGradient>
    <linearGradient id="linear-gradient-3" x1="0.503" y1="0.355" x2="0.515" y2="-0.151" gradientUnits="objectBoundingBox">
      <stop offset="0" stop-color="#f9aa20"/>
      <stop offset="1" stop-color="#dd158b"/>
    </linearGradient>
    <linearGradient id="linear-gradient-4" x1="0.966" y1="0.033" x2="0.002" y2="0.935" xlink:href="#linear-gradient-3"/>
    <linearGradient id="linear-gradient-5" x1="-0.333" y1="0.5" x2="1" y2="0.5" xlink:href="#linear-gradient"/>
    <clipPath id="clip-path">
      <path id="Path_284125" data-name="Path 284125" d="M1029.3,377.3c-3.135-5.349-7.1-14.06-5.511-23.82,2.772-17.027,19.326-18.082,27.756-38.419,6.8-16.4-.382-24.368,9.2-37.211,1.6-2.149,9.964-13.8,19.982-12.558,5.645.7,9.31,5.178,10,6.019,10.4,12.7,4.317,41.173-11.005,59.005-8.8,10.245-13.135,9.662-29.99,24.138A117.729,117.729,0,0,0,1029.3,377.3Z" fill="url(#linear-gradient)"/>
    </clipPath>
    <clipPath id="clip-path-2">
      <path id="Path_284130" data-name="Path 284130" d="M1013.5,367.084a79.351,79.351,0,0,1,19.221-11.378c15.7-6.486,23.193-3.517,29.614-10.622,6.647-7.355,1.757-14.013,9.744-22.254.672-.693,9.258-9.325,17.561-6.7,5.808,1.837,8.359,8.2,9.555,11.182,4.645,11.582,3.215,29.666-8.908,39.17-11.494,9.011-26.8,5.781-31.656,4.721-8.526-1.859-10.687-5.034-19.342-6.669C1028.768,362.546,1019.519,364.891,1013.5,367.084Z" fill="url(#linear-gradient-2)"/>
    </clipPath>
    <linearGradient id="linear-gradient-8" x1="0.689" y1="0.503" x2="0.261" y2="0.501" gradientUnits="objectBoundingBox">
      <stop offset="0.022" stop-color="#ffc444"/>
      <stop offset="0.996" stop-color="#f36f56"/>
    </linearGradient>
    <linearGradient id="linear-gradient-9" x1="0.146" y1="0.096" x2="1.734" y2="1.949" xlink:href="#linear-gradient-8"/>
    <linearGradient id="linear-gradient-10" x1="0.604" y1="-0.169" x2="0.287" y2="1.876" xlink:href="#linear-gradient"/>
    <linearGradient id="linear-gradient-11" x1="0.083" y1="-0.36" x2="2.199" y2="4.004" xlink:href="#linear-gradient"/>
    <linearGradient id="linear-gradient-12" x1="-0.068" y1="-0.673" x2="2.048" y2="3.696" xlink:href="#linear-gradient"/>
    <linearGradient id="linear-gradient-13" y1="0.5" x2="1" y2="0.5" gradientUnits="objectBoundingBox">
      <stop offset="0.004" stop-color="#e38ddd"/>
      <stop offset="1" stop-color="#9571f6"/>
    </linearGradient>
    <linearGradient id="linear-gradient-14" x1="0.597" y1="0.222" x2="-0.374" y2="2.673" gradientUnits="objectBoundingBox">
      <stop offset="0" stop-color="#444b8c"/>
      <stop offset="0.996" stop-color="#26264f"/>
    </linearGradient>
    <linearGradient id="linear-gradient-15" x1="3.246" y1="-2.496" x2="2.951" y2="0.066" xlink:href="#linear-gradient-14"/>
    <linearGradient id="linear-gradient-16" x1="0" y1="0.5" x2="1" y2="0.5" xlink:href="#linear-gradient-14"/>
    <linearGradient id="linear-gradient-18" x1="0.599" y1="0.238" x2="-0.375" y2="2.642" xlink:href="#linear-gradient-13"/>
    <linearGradient id="linear-gradient-19" x1="3.246" y1="-2.496" x2="2.951" y2="0.066" xlink:href="#linear-gradient"/>
    <linearGradient id="linear-gradient-20" x1="-356.131" y1="-2.831" x2="-355.951" y2="2.206" gradientUnits="objectBoundingBox">
      <stop offset="0" stop-color="#311944"/>
      <stop offset="1" stop-color="#a03976"/>
    </linearGradient>
    <linearGradient id="linear-gradient-21" x1="-1324.108" y1="0.637" x2="-1324.23" y2="-5.579" gradientUnits="objectBoundingBox">
      <stop offset="0" stop-color="#d8dee8"/>
      <stop offset="1" stop-color="#fff"/>
    </linearGradient>
    <linearGradient id="linear-gradient-22" x1="-554.042" y1="-1.725" x2="-553.756" y2="1.227" xlink:href="#linear-gradient-20"/>
    <linearGradient id="linear-gradient-23" x1="-955.653" y1="1.003" x2="-955.743" y2="-3.379" xlink:href="#linear-gradient-21"/>
    <linearGradient id="linear-gradient-24" x1="-0.472" y1="-0.437" x2="0.966" y2="0.671" xlink:href="#linear-gradient-3"/>
    <linearGradient id="linear-gradient-25" x1="-217.469" y1="0.473" x2="-216.395" y2="0.473" xlink:href="#linear-gradient-14"/>
    <linearGradient id="linear-gradient-26" x1="-0.434" y1="0.193" x2="0.445" y2="0.507" xlink:href="#linear-gradient-3"/>
    <linearGradient id="linear-gradient-27" x1="-0.226" y1="0.092" x2="1.076" y2="0.93" xlink:href="#linear-gradient"/>
    <linearGradient id="linear-gradient-28" x1="0.856" y1="-0.348" x2="0.505" y2="0.811" xlink:href="#linear-gradient-21"/>
    <linearGradient id="linear-gradient-29" x1="-308.222" y1="91.272" x2="-308.972" y2="89.597" xlink:href="#linear-gradient-14"/>
    <linearGradient id="linear-gradient-30" x1="-153.406" y1="0.5" x2="-152.406" y2="0.5" xlink:href="#linear-gradient"/>
    <linearGradient id="linear-gradient-31" x1="-0.193" y1="0.216" x2="2.442" y2="1.243" xlink:href="#linear-gradient"/>
    <linearGradient id="linear-gradient-32" x1="-73.64" y1="0.5" x2="-72.64" y2="0.5" xlink:href="#linear-gradient"/>
    <linearGradient id="linear-gradient-33" x1="-59.945" y1="0.5" x2="-58.945" y2="0.5" xlink:href="#linear-gradient-14"/>
    <linearGradient id="linear-gradient-34" x1="-59.853" y1="0.5" x2="-58.853" y2="0.5" xlink:href="#linear-gradient-14"/>
    <linearGradient id="linear-gradient-35" x1="-128.088" y1="3.928" x2="-128.591" y2="3.385" xlink:href="#linear-gradient-14"/>
    <linearGradient id="linear-gradient-36" x1="-136.603" y1="3.292" x2="-135.879" y2="4.06" xlink:href="#linear-gradient-14"/>
    <linearGradient id="linear-gradient-37" y1="0.5" x2="1" y2="0.5" gradientUnits="objectBoundingBox">
      <stop offset="0.004" stop-color="#f36f56"/>
      <stop offset="1" stop-color="#ffc444"/>
    </linearGradient>
    <linearGradient id="linear-gradient-38" x1="0" y1="0.5" x2="1" y2="0.5" xlink:href="#linear-gradient-37"/>
  </defs>
  <g id="Group_33454" data-name="Group 33454" transform="translate(-896.777 -201.6)">
    <g id="Group_33428" data-name="Group 33428">
      <path id="Path_284117" data-name="Path 284117" d="M1100.666,206.5l-124.7-3.995-.475-.868-1.1-.033a1.945,1.945,0,0,0-1.4.534,1.914,1.914,0,0,0-.6,1.358V382.386l128.245-7.2a8.081,8.081,0,0,0,7.382-8.113v-153.8C1108.024,209.024,1104.738,206.618,1100.666,206.5Z" fill="url(#linear-gradient-3)"/>
      <g id="Group_33427" data-name="Group 33427">
        <path id="Path_284118" data-name="Path 284118" d="M1102.054,205.357,975.762,201.6a1.886,1.886,0,0,0-1.94,1.892V382.386l128.245-7.2a8.082,8.082,0,0,0,7.382-8.113v-153.8A7.838,7.838,0,0,0,1102.054,205.357Z" fill="url(#linear-gradient-4)"/>
      </g>
    </g>
    <path id="Path_284119" data-name="Path 284119" d="M1068.377,218.776l-95.98-2.509.07,95.906h26.916v74.954l69.093-4.305a3.275,3.275,0,0,0,3.078-3.232V222.013A3.257,3.257,0,0,0,1068.377,218.776Z" opacity="0.2" fill="url(#linear-gradient-5)" style="mix-blend-mode: multiply;isolation: isolate"/>
    <g id="Group_33440" data-name="Group 33440">
      <g id="Group_33436" data-name="Group 33436">
        <g id="Group_33435" data-name="Group 33435">
          <path id="Path_284120" data-name="Path 284120" d="M1029.3,377.3c-3.135-5.349-7.1-14.06-5.511-23.82,2.772-17.027,19.326-18.082,27.756-38.419,6.8-16.4-.382-24.368,9.2-37.211,1.6-2.149,9.964-13.8,19.982-12.558,5.645.7,9.31,5.178,10,6.019,10.4,12.7,4.317,41.173-11.005,59.005-8.8,10.245-13.135,9.662-29.99,24.138A117.729,117.729,0,0,0,1029.3,377.3Z" fill="url(#linear-gradient)"/>
          <g id="Group_33434" data-name="Group 33434" clip-path="url(#clip-path)">
            <g id="Group_33433" data-name="Group 33433" opacity="0.7" style="mix-blend-mode: soft-light;isolation: isolate">
              <g id="Group_33429" data-name="Group 33429">
                <path id="Path_284121" data-name="Path 284121" d="M1030.009,384.846c-2.4-14.751-.522-26,5.572-33.433,2.984-3.64,5.891-5.15,8.969-6.748,3.3-1.716,6.719-3.49,10.338-8.147,3.516-4.525,4.135-7.822,4.919-12a57.673,57.673,0,0,1,4.882-15.49,61.466,61.466,0,0,1,7.683-12.484c2.429-3.2,4.348-5.721,5.8-10.657,2.367-8.065,1.786-17.02-1.727-26.615l.274-.1c3.535,9.655,4.118,18.671,1.732,26.8-1.464,4.987-3.4,7.531-5.845,10.752a61.159,61.159,0,0,0-7.65,12.43,57.409,57.409,0,0,0-4.86,15.421c-.791,4.213-1.416,7.54-4.976,12.121-3.658,4.708-7.1,6.5-10.434,8.227-3.05,1.584-5.932,3.08-8.878,6.674-6.038,7.366-7.891,18.536-5.509,33.2Z" fill="#fff"/>
              </g>
              <g id="Group_33430" data-name="Group 33430">
                <path id="Path_284122" data-name="Path 284122" d="M1071.377,298.128l-.01-.195c-.01-.214-1.15-21.493-11.117-26.639l.134-.259c9.6,4.955,11.123,24.517,11.263,26.69a39.536,39.536,0,0,0,20.017-15.711,37.326,37.326,0,0,0,4.852-10.411l.284.068a37.709,37.709,0,0,1-4.892,10.5,39.83,39.83,0,0,1-20.347,15.89Z" fill="#fff"/>
              </g>
              <g id="Group_33431" data-name="Group 33431">
                <path id="Path_284123" data-name="Path 284123" d="M1062.628,316.785c-.5,0-.779-.013-.792-.014l-.125-.007-.012-.124c-1.06-10.918-8.857-24.047-8.935-24.178l.25-.15c.079.131,7.849,13.215,8.963,24.173a48.292,48.292,0,0,0,37.7-18.02l.23.18a47.186,47.186,0,0,1-24.72,16.323A48.719,48.719,0,0,1,1062.628,316.785Z" fill="#fff"/>
              </g>
              <g id="Group_33432" data-name="Group 33432">
                <path id="Path_284124" data-name="Path 284124" d="M1056.922,344.274a39.91,39.91,0,0,1-9.4-.941l-.149-.041.049-.146c3.984-12.02-4.734-26.014-4.823-26.154l.247-.156c.088.14,8.808,14.137,4.9,26.253,1.571.378,15.331,3.333,33.547-4.109l.111.27A64.872,64.872,0,0,1,1056.922,344.274Z" fill="#fff"/>
              </g>
            </g>
          </g>
        </g>
      </g>
      <g id="Group_33439" data-name="Group 33439">
        <path id="Path_284126" data-name="Path 284126" d="M1013.5,367.084a79.351,79.351,0,0,1,19.221-11.378c15.7-6.486,23.193-3.517,29.614-10.622,6.647-7.355,1.757-14.013,9.744-22.254.672-.693,9.258-9.325,17.561-6.7,5.808,1.837,8.359,8.2,9.555,11.182,4.645,11.582,3.215,29.666-8.908,39.17-11.494,9.011-26.8,5.781-31.656,4.721-8.526-1.859-10.687-5.034-19.342-6.669C1028.768,362.546,1019.519,364.891,1013.5,367.084Z" fill="url(#linear-gradient-2)"/>
        <g id="Group_33438" data-name="Group 33438" clip-path="url(#clip-path-2)">
          <g id="Group_33437" data-name="Group 33437" style="mix-blend-mode: soft-light;isolation: isolate">
            <path id="Path_284127" data-name="Path 284127" d="M1010.3,369.925l-.2-.242c9.523-7.746,19.011-11.674,28.2-11.674h.153a35.832,35.832,0,0,1,9.688,1.5,30.863,30.863,0,0,0,12.08,1.269c9.6-.895,17.647-4.581,22.65-10.378,7.749-8.98,8.825-23.434,2.741-36.824l.285-.129c6.134,13.5,5.039,28.085-2.789,37.157-5.056,5.859-13.174,9.582-22.858,10.484a31.116,31.116,0,0,1-12.188-1.276,35.538,35.538,0,0,0-9.611-1.488C1029.3,358.288,1019.817,362.182,1010.3,369.925Z" fill="#fff"/>
            <path id="Path_284128" data-name="Path 284128" d="M1086.544,344.871l.006-.24c.2-8.226-5.057-14.191-9.5-17.746a42.036,42.036,0,0,0-9.805-5.812l.113-.291a42.371,42.371,0,0,1,9.887,5.859c4.454,3.564,9.713,9.525,9.62,17.753,1.888-.85,15.214-7.247,15.538-18.492l.312.009c-.353,12.245-15.794,18.8-15.95,18.868Z" fill="#fff"/>
            <path id="Path_284129" data-name="Path 284129" d="M1082.723,363.727a32.694,32.694,0,0,1-4.5-.307,27.247,27.247,0,0,1-10.713-3.657l-.126-.086.083-.128c4.458-6.858,3.291-14.064,1.528-18.9a33.8,33.8,0,0,0-4.963-8.972l.241-.2a34.121,34.121,0,0,1,5.012,9.055c1.779,4.876,2.959,12.127-1.471,19.056a27.55,27.55,0,0,0,10.47,3.525c6.085.843,15.73.325,27.1-6.94l.169.264C1096.587,362.163,1088.681,363.727,1082.723,363.727Z" fill="#fff"/>
          </g>
        </g>
      </g>
    </g>
    <g id="Group_33444" data-name="Group 33444">
      <g id="Group_33441" data-name="Group 33441">
        <path id="Path_284131" data-name="Path 284131" d="M1058.171,226.749,934.453,221.4l-.24-.531-1.676-.044a3.384,3.384,0,0,0-2.408.918,3.3,3.3,0,0,0-1.042,2.319V392.748a3.327,3.327,0,0,0,3.519,3.232l1.342-.083.746-2.2,123.366-7.934c1.707-.106,3.236.866,3.236-.844V227.346C1061.3,225.59,1059.925,226.795,1058.171,226.749Z" fill="url(#linear-gradient-8)"/>
      </g>
      <g id="Group_33443" data-name="Group 33443">
        <path id="Path_284132" data-name="Path 284132" d="M1060.4,224.109l-125.552-3.284a3.421,3.421,0,0,0-2.423.918,3.318,3.318,0,0,0-1.056,2.319V392.748a3.359,3.359,0,0,0,3.548,3.232l125.582-7.825a3.274,3.274,0,0,0,3.078-3.232V227.346A3.258,3.258,0,0,0,1060.4,224.109Z" fill="url(#linear-gradient-9)"/>
        <g id="Group_33442" data-name="Group 33442">
          <path id="Path_284133" data-name="Path 284133" d="M1005.772,258.7l-74.405-.542v-20.9l74.405,1.326Z" fill="url(#linear-gradient-10)"/>
        </g>
        <path id="Path_284134" data-name="Path 284134" d="M1044.436,315.666l-87.881,2.022V294.867l87.881-1.062Z" fill="url(#linear-gradient-11)"/>
        <path id="Path_284135" data-name="Path 284135" d="M1044.436,345.461l-87.881,3.421v-21.4l87.881-2.461Z" fill="url(#linear-gradient-12)"/>
      </g>
    </g>
    <path id="Path_284136" data-name="Path 284136" d="M1004.427,366.388l-5.641,25.469,12.792,17.718,63.167-4.248Z" opacity="0.3" fill="url(#linear-gradient-13)" style="mix-blend-mode: multiply;isolation: isolate"/>
    <g id="Group_33450" data-name="Group 33450">
      <g id="Group_33447" data-name="Group 33447">
        <path id="Path_284137" data-name="Path 284137" d="M1090.248,403.793l-76.8,3.869-.914,1.953-.4.025a1.735,1.735,0,0,1-1.795-1.527l-5.9-40.978a1.747,1.747,0,0,1,1.612-2.046l.7-.011.43.221,77.364-1.948c.872-.036,1.571-.836,1.7.07l5.65,39.278C1092.052,403.744,1091.254,403.73,1090.248,403.793Z" fill="url(#linear-gradient-14)"/>
        <g id="Group_33446" data-name="Group 33446">
          <path id="Path_284138" data-name="Path 284138" d="M1083.752,379.879l-76.924,3.815-1.952-13.573,77-3.306Z" fill="url(#linear-gradient-15)"/>
          <g id="Group_33445" data-name="Group 33445">
            <path id="Path_284139" data-name="Path 284139" d="M1072.321,383.1l-11.95.609-1.772-12.319,11.961-.535Z" fill="url(#linear-gradient-16)"/>
            <path id="Path_284140" data-name="Path 284140" d="M1085.881,394.676l-11.8.674-1.761-12.245,11.809-.6Z" fill="url(#linear-gradient-16)"/>
          </g>
        </g>
      </g>
      <g id="Group_33449" data-name="Group 33449">
        <path id="Path_284141" data-name="Path 284141" d="M1091.106,404.763l-78.173,4.877a1.735,1.735,0,0,1-1.795-1.527l-5.9-40.978a1.776,1.776,0,0,1,1.628-2.066l78.418-3.177a1.738,1.738,0,0,1,1.76,1.529l5.65,39.278A1.779,1.779,0,0,1,1091.106,404.763Z" fill="url(#linear-gradient-18)"/>
        <g id="Group_33448" data-name="Group 33448">
          <path id="Path_284142" data-name="Path 284142" d="M1084.55,379.879l-76.924,3.815-1.952-13.573,77-3.306Z" fill="url(#linear-gradient-19)"/>
        </g>
      </g>
    </g>
    <g id="Group_33453" data-name="Group 33453">
      <path id="Path_284143" data-name="Path 284143" d="M955.166,413.826s7.363,3.368,7.482,3.9-4.74-.191-6.724-.118-3.616-.518-3.434-1.358.881-2.953.881-2.953Z" fill="url(#linear-gradient-20)"/>
      <path id="Path_284144" data-name="Path 284144" d="M955.442,411.108l-.456,3.318a2.6,2.6,0,0,1-1.951-.081l-.326-3.641Z" fill="url(#linear-gradient-21)"/>
      <path id="Path_284145" data-name="Path 284145" d="M920.726,411.1l-.86,1.374a1.642,1.642,0,0,0-.2,1.287c.3,1.145.891,3.377,1.151,3.96.353.793,5.123,1.275,5.123,1.275s.426-.6-.562-1.323-1.625-.841-1.972-1.909a27.9,27.9,0,0,1-.573-4.086Z" fill="url(#linear-gradient-22)"/>
      <path id="Path_284146" data-name="Path 284146" d="M924.3,407.614a44.446,44.446,0,0,0-1.857,4.9s-.454.588-1.438-.305a3.111,3.111,0,0,1-.425-.421l.188-4.573Z" fill="url(#linear-gradient-23)"/>
      <path id="Path_284147" data-name="Path 284147" d="M959.658,344.437c.365,9.9.355,20.658-.242,32.148-.672,12.938-1.99,24.894-3.64,35.732-.6.018-1.239.019-1.9,0-.447-.013-.881-.036-1.3-.066a82.327,82.327,0,0,1-2.71-8.742,84.133,84.133,0,0,1-1.883-10.233c-1.393-11.217.273-12.191-.859-20.5-1-7.363-2.453-7.654-4.131-18.107-1.821-11.343-.441-13.041.23-13.654C946.075,338.4,952.761,340.2,959.658,344.437Z" fill="url(#linear-gradient-24)"/>
      <path id="Path_284148" data-name="Path 284148" d="M943.221,341.011c2.722-2.489,8.931-.964,15.484,2.86-7.568,8.138-8.4,13.426-7.507,16.861,1.013,3.882,4.12,5.007,4.1,9.25-.027,5.213-4.736,6.583-4.649,12.1.057,3.648,2.125,3.615,2.6,8.122.565,5.332-2.14,7.163-1.275,11.109.372,1.7,1.441,3.918,4.495,6.209-.224,1.62-.454,3.222-.694,4.795-.6.018-1.238.019-1.9,0-.447-.013-.881-.036-1.3-.066a82.327,82.327,0,0,1-2.71-8.742,84.133,84.133,0,0,1-1.883-10.233c-1.392-11.217.273-12.191-.859-20.5-1-7.363-2.453-7.654-4.131-18.107C941.171,343.321,942.55,341.623,943.221,341.011Z" opacity="0.25" fill="url(#linear-gradient-25)" style="mix-blend-mode: multiply;isolation: isolate"/>
      <path id="Path_284149" data-name="Path 284149" d="M954.983,344.26a222.279,222.279,0,0,0-30.633,65.156,3.969,3.969,0,0,1-2.177.333,4.049,4.049,0,0,1-2.461-1.338,64.053,64.053,0,0,1-.528-15.788,54.483,54.483,0,0,1,2.249-11.86c1.808-5.783,3.043-6.106,5.4-12.223,2.445-6.35,1.861-7.938,4.207-15.886a104.863,104.863,0,0,1,5.229-13.933Z" fill="url(#linear-gradient-26)"/>
      <path id="Path_284150" data-name="Path 284150" d="M981.478,330.863c-.062,2.311-3.859,4.345-6.916,4.97-7.149,1.459-15.437-3.736-19.37-9.481-.773-1.129-1.631-2.5-1.838-2.391-.467.24,3.83,7.3,5.693,15.332.954,4.108.7,6.032,2.486,8.767a2.7,2.7,0,0,1,.727,2c-.438,1.836-4.637,2.312-7.549,2.643a67.264,67.264,0,0,1-8.776.274c-4.538-.066-4.9-.3-5.931.206-3.156,1.549-2.942,5.261-5.317,5.755-1.994.416-4.018-1.811-4.659-2.517-3.335-3.671-3.156-8.1-3.748-12.56-1.375-10.377-7.013-21.747-12.528-28.945-1.673-2.182-2.836-3.331-2.908-5.359-.214-5.955,9.221-12.529,17.076-13.285a59.069,59.069,0,0,1,9.622.2c1.445.136,2.983.337,4.636.626,4.009.7,6.8,1.189,9.643,2.491,11.469,5.247,8.966,16.927,21.379,25C977.468,327.366,981.543,328.444,981.478,330.863Z" fill="url(#linear-gradient-27)"/>
      <path id="Path_284151" data-name="Path 284151" d="M934.488,290.093a17.061,17.061,0,0,1-1.626,4.705c-1.025,1.769-5.261,2.4-6.144,2.71s1.332,1.845,3.686,2.4,9.243.921,10.592.18-.876-.968-2.5-1.82-2.163-4.314-1.661-5.786S934.488,290.093,934.488,290.093Z" fill="url(#linear-gradient-28)"/>
      <g id="Group_33451" data-name="Group 33451">
        <path id="Path_284152" data-name="Path 284152" d="M938.965,289.3c1.709-1.221,2.182-4.524,1.233-5.265-.271-.212-.53-.115-4.387,1.432-1.915.769-2.857,1.178-3.167,2.023a2.689,2.689,0,0,0,.05,1.764,6.8,6.8,0,0,0,.785,1.306c.414.6.386.576.513.75a9.4,9.4,0,0,0,1.972,1.929,6.527,6.527,0,0,1,.314-1.092,5.743,5.743,0,0,1,.7-1.3A6.52,6.52,0,0,1,938.965,289.3Z" fill="url(#linear-gradient-29)"/>
        <path id="Path_284153" data-name="Path 284153" d="M934.586,292.438a3.549,3.549,0,0,0,3.189,1.439c1.854-.2,1.944-4.384.717-5.217a2.348,2.348,0,0,0-1.845-.157c-.377.124-.5.288-1.118.478-.571.175-.737.118-.9.272-.21.193-.35.65.068,1.853a1.015,1.015,0,0,0-1.1-.307.634.634,0,0,0-.237.252C933.118,291.539,933.579,292.128,934.586,292.438Z" fill="#fff"/>
      </g>
      <path id="Path_284154" data-name="Path 284154" d="M971.451,330.508c-5.183-1.167-7.249-1.129-9.812-3.2-4.267-3.438-4.908-8.671-7.388-8.607-1.172.03-2.124,1.227-2.8,2.4l1.873,2.933c0-.037.01-.066.031-.077.207-.106,1.065,1.262,1.838,2.391,3.933,5.745,12.221,10.94,19.37,9.481a12.434,12.434,0,0,0,5.793-2.817A88.443,88.443,0,0,0,971.451,330.508Z" opacity="0.3" fill="url(#linear-gradient-30)" style="mix-blend-mode: multiply;isolation: isolate"/>
      <path id="Path_284155" data-name="Path 284155" d="M916.9,350.434c-3.14.28-10.208.408-15.207-4.217-8.323-7.7-4.194-22.354-1.3-28.657,3.321-7.226,8.608-11.271,11.82-13.729,3.986-3.05,6.419-4.911,9.345-4.495,7.57,1.078,12.812,16.592,8.657,21.034-1.361,1.454-2.708.63-6.645,1.884-1.282.409-10.851,3.456-12.517,10.5-1.166,4.932,1.8,10.708,7.087,14.587Q917.526,348.89,916.9,350.434Z" fill="url(#linear-gradient-31)"/>
      <path id="Path_284156" data-name="Path 284156" d="M952.1,347.879c-3.555-2.247-4.081-4.523-8.062-6.062-5.171-2-7.656.54-10.22-1.51-3.051-2.439-.35-6.689-2.633-14.064-.388-1.252-3.332-10.76-10.086-11.971-3.149-.565-7.309.641-8.912,3.31-1.255,2.089-.086,3.646-1.611,5.952s-3.347,1.741-5.29,3.663c-3.085,3.052-3.558,9.487-.773,13.127,1.3,1.7,2.987,2.368,6.164,3.632a29.987,29.987,0,0,0,5.3,1.556c-3.89-3.734-5.909-8.548-4.915-12.754,1.039-4.393,5.148-7.232,8.407-8.846a61.442,61.442,0,0,1,6.813,19.947c.592,4.464.413,8.889,3.748,12.56.641.706,2.665,2.933,4.659,2.517,2.375-.494,2.161-4.206,5.317-5.755,1.036-.508,1.393-.272,5.931-.206a67.264,67.264,0,0,0,8.776-.274c2.59-.294,6.191-.706,7.265-2.084A18.933,18.933,0,0,1,952.1,347.879Z" opacity="0.3" fill="url(#linear-gradient-32)" style="mix-blend-mode: multiply;isolation: isolate"/>
      <g id="Group_33452" data-name="Group 33452">
        <path id="Path_284157" data-name="Path 284157" d="M918.966,352.9l-.366-1.076a3.19,3.19,0,0,1,2.14-4.083l69.2-21.078,2.108,7.146L923.2,355.017A3.416,3.416,0,0,1,918.966,352.9Z" fill="url(#linear-gradient-33)"/>
        <path id="Path_284158" data-name="Path 284158" d="M1032.946,355.3c-19.824,6.425-41.068-4.809-47.263-25.633-6.344-21.326,5.61-43.949,26.489-49.96,20.5-5.9,41.235,6.693,46.526,27.594C1063.868,327.729,1052.427,348.988,1032.946,355.3Zm-1.6-5.821c16.449-5.286,26.092-23.227,21.676-40.44-4.5-17.549-21.948-28.035-39.12-23.039-17.436,5.072-27.439,23.975-22.2,41.822C996.845,345.319,1014.653,354.844,1031.346,349.481Z" fill="url(#linear-gradient-34)"/>
        <path id="Path_284159" data-name="Path 284159" d="M989.937,326.665l-8.823,2.687a9.174,9.174,0,0,1-2.967,5.408c-4.457,3.695-10.408-.335-18.71,4-4.166,2.174-3.374,3.557-7.279,5.074-6.456,2.508-9.411-.966-15.125,1.316-5.779,2.309-6.348,7.3-9.626,7.119-1.4-.077-3.207-1.1-5.219-4.964l-1.448.441a3.19,3.19,0,0,0-2.14,4.083l.366,1.076a3.416,3.416,0,0,0,4.232,2.115l68.847-21.206Z" fill="#d8dee8" opacity="0.3" style="mix-blend-mode: multiply;isolation: isolate"/>
        <path id="Path_284160" data-name="Path 284160" d="M1032.98,352.341c-17.267,5.557-35.7-4.284-41.033-22.388-5.442-18.481,4.917-38.062,22.98-43.306,17.78-5.163,35.828,5.706,40.476,23.868C1059.958,328.317,1049.986,346.868,1032.98,352.341Z" fill="#fff" opacity="0.56"/>
        <path id="Path_284161" data-name="Path 284161" d="M1034.286,357.1c-19.824,6.425-41.068-4.809-47.263-25.634-6.344-21.325,5.61-43.948,26.49-49.96,20.5-5.9,41.235,6.693,46.525,27.594C1065.208,329.521,1053.767,350.781,1034.286,357.1Zm-1.6-5.822c16.45-5.285,26.092-23.227,21.676-40.439-4.5-17.549-21.948-28.035-39.12-23.039-17.436,5.072-27.439,23.974-22.2,41.821C998.186,347.111,1015.993,356.637,1032.686,351.273Z" fill="url(#linear-gradient-35)"/>
        <path id="Path_284162" data-name="Path 284162" d="M1033.721,355.04c-18.718,6.049-38.745-4.585-44.564-24.232-5.951-20.093,5.312-41.4,24.969-47.076,19.323-5.584,38.894,6.262,43.908,25.977C1062.941,329,1052.134,349.091,1033.721,355.04Zm-1.035-3.767c16.45-5.285,26.092-23.227,21.676-40.439-4.5-17.549-21.948-28.035-39.12-23.039-17.436,5.072-27.439,23.974-22.2,41.821C998.186,347.111,1015.993,356.637,1032.686,351.273Z" fill="url(#linear-gradient-36)"/>
      </g>
      <path id="Path_284163" data-name="Path 284163" d="M917.171,349.772l.7-1.738a3.582,3.582,0,0,0,2.078-.6,2.706,2.706,0,0,1,1.68-.4c.263.073,1.258.029.124.57s-1.124.942-.652,1.386a8.2,8.2,0,0,0,2.917,1.444c.647.046-.523,1.047-1.175,1.175a4.026,4.026,0,0,1-3.046-.49C919.313,350.831,917.171,349.772,917.171,349.772Z" fill="url(#linear-gradient-37)"/>
      <path id="Path_284164" data-name="Path 284164" d="M979.892,334.965a19.965,19.965,0,0,0,4.667-1.037c1.743-.746,2.869.325,2.709,1.067s-3.027,1.772-4.173,1.809S979.892,334.965,979.892,334.965Z" fill="url(#linear-gradient-38)"/>
    </g>
  </g>
</svg>
