<svg xmlns="http://www.w3.org/2000/svg" xmlns:xlink="http://www.w3.org/1999/xlink" width="265.714" height="277.384" viewBox="0 0 265.714 277.384">
  <defs>
    <linearGradient id="linear-gradient" x1="0.3" y1="0.108" x2="0.553" y2="0.62" gradientUnits="objectBoundingBox">
      <stop offset="0.004" stop-color="#e38ddd"/>
      <stop offset="1" stop-color="#9571f6"/>
    </linearGradient>
    <linearGradient id="linear-gradient-2" x1="0.35" y1="0.316" x2="0.687" y2="0.751" xlink:href="#linear-gradient"/>
    <clipPath id="clip-path">
      <path id="Path_192438" data-name="Path 192438" d="M929.23,425.5c-7.817-13.33-.232-35.529,9.053-48.525,10.841-15.174,19.648-11.713,27.16-24.17,13.988-23.193-10.806-44.7,1.445-69.207,10.015-20.034,30.385-13.263,40.466-35.955,7.275-16.373.165-27.769,11.193-39.934.943-1.04,11.271-12.11,23.816-10.1,12.66,2.024,20.174,16.184,22.631,25.96,4.543,18.072-7.509,23.862-9.984,47.261-3.371,31.857,16.974,39.981,9.643,62.925-6.053,18.947-21.321,17.777-27.616,38.917-5.844,19.632,5.2,27.774,0,40.605C1025.08,442.787,945.173,452.689,929.23,425.5Z" fill="url(#linear-gradient)"/>
    </clipPath>
    <clipPath id="clip-path-2">
      <path id="Path_192445" data-name="Path 192445" d="M992.251,437.672c-6.677-11.387-.2-30.349,7.733-41.45,9.26-12.961,16.783-10,23.2-20.646,11.948-19.81-9.231-38.181,1.234-59.115,8.554-17.113,25.955-11.33,34.566-30.712,6.214-13.987.14-23.721,9.561-34.112.8-.888,9.628-10.344,20.343-8.632,10.814,1.729,17.232,13.824,19.331,22.175,3.881,15.437-6.414,20.383-8.528,40.37-2.879,27.212,14.5,34.152,8.237,53.75-5.17,16.184-18.213,15.185-23.589,33.243-4.993,16.769,4.44,23.724,0,34.683C1074.125,452.439,1005.87,460.9,992.251,437.672Z" fill="url(#linear-gradient-2)"/>
    </clipPath>
    <linearGradient id="linear-gradient-5" x1="1.59" y1="0.493" x2="-0.966" y2="0.514" gradientUnits="objectBoundingBox">
      <stop offset="0" stop-color="#f9aa20"/>
      <stop offset="1" stop-color="#dd158b"/>
    </linearGradient>
    <linearGradient id="linear-gradient-6" x1="1.381" y1="0.492" x2="-0.667" y2="0.506" xlink:href="#linear-gradient-5"/>
    <linearGradient id="linear-gradient-7" x1="0.796" y1="-0.008" x2="-0.631" y2="3.46" xlink:href="#linear-gradient-5"/>
    <linearGradient id="linear-gradient-8" x1="0.963" y1="-0.546" x2="-0.18" y2="1.762" xlink:href="#linear-gradient-5"/>
    <clipPath id="clip-path-3">
      <path id="Path_192470" data-name="Path 192470" d="M1014.409,452.572l.41-1.1c6.3-16.912,7.162-32.184,2.555-45.393-5.716-16.384-17.649-24.091-30.283-32.249-2.1-1.354-4.264-2.754-6.368-4.178l-.4-.272.116-.472a18.954,18.954,0,0,0,.541-4.49,17.934,17.934,0,0,0-11.19-16.8,17.722,17.722,0,0,0-6.8,4.708l-.59.658-.5-.726a48.782,48.782,0,0,1-6.041-11.891c-3.127-8.93-3.629-17.827-1.579-28l.113-.562,93.993.162c7.159.012,12.983,6.159,12.983,13.7v72.011c0,27.542-19.688,51.069-45.795,54.727Zm-32.5-83.808c1.966,1.323,3.986,2.628,5.944,3.892,12.276,7.928,24.971,16.126,30.845,32.964,4.616,13.232,3.889,28.444-2.157,45.228,24.842-4.086,43.431-26.727,43.431-53.166V325.671c0-6.773-5.2-12.292-11.588-12.3l-92.843-.159c-1.868,9.68-1.344,18.178,1.638,26.7a47.561,47.561,0,0,0,5.383,10.841,19.025,19.025,0,0,1,6.989-4.531l.242-.089.241.089a19.324,19.324,0,0,1,12.346,18.2A20.377,20.377,0,0,1,981.905,368.764Zm59.31-61.318h-.007l-11.608-.036a3.359,3.359,0,0,1-.473.036h-.008l-12.468-.038a3.675,3.675,0,0,1-3.58-3.741V272.81a40.467,40.467,0,0,0-10.95-27.845A37.242,37.242,0,0,0,975.614,233l-16.191-.327a36.643,36.643,0,0,0-8.138,1.716l-.41.136-.3-.3c-6.1-6.108-14.139-11.568-23.892-16.226l-1.347-.644,1.357-.623a55.953,55.953,0,0,1,24.931-5.113l6.255.154a57.371,57.371,0,0,1,5.831-.154l24.027.593a57.006,57.006,0,0,1,40.41,18.4,61.793,61.793,0,0,1,16.626,42.4v30.727a3.757,3.757,0,0,1-1.1,2.684A3.458,3.458,0,0,1,1041.215,307.446Zm-11.718-1.434,11.712.036h.006a2.071,2.071,0,0,0,1.467-.617,2.369,2.369,0,0,0,.688-1.694V273.01a60.4,60.4,0,0,0-16.249-41.444A55.621,55.621,0,0,0,987.7,213.6l-24.027-.594a56.125,56.125,0,0,0-5.723.154l-.036,0-6.326-.157a54.546,54.546,0,0,0-22.945,4.381,86.365,86.365,0,0,1,22.614,15.536,38.084,38.084,0,0,1,8.078-1.651l.039,0,16.272.33a38.623,38.623,0,0,1,27.5,12.4,41.852,41.852,0,0,1,11.33,28.8v30.857a2.275,2.275,0,0,0,2.186,2.342l12.468.039a2.174,2.174,0,0,0,.319-.028Z" fill="#fff"/>
    </clipPath>
    <linearGradient id="linear-gradient-11" x1="-623.913" y1="-2.41" x2="-623.733" y2="2.649" gradientUnits="objectBoundingBox">
      <stop offset="0" stop-color="#311944"/>
      <stop offset="1" stop-color="#a03976"/>
    </linearGradient>
    <linearGradient id="linear-gradient-12" x1="-2321.417" y1="1.151" x2="-2321.539" y2="-5.069" gradientUnits="objectBoundingBox">
      <stop offset="0" stop-color="#ffc444"/>
      <stop offset="0.996" stop-color="#f36f56"/>
    </linearGradient>
    <linearGradient id="linear-gradient-13" x1="-977.071" y1="-1.484" x2="-976.787" y2="1.472" xlink:href="#linear-gradient-11"/>
    <linearGradient id="linear-gradient-14" x1="-1631.451" y1="1.353" x2="-1631.538" y2="-3.032" xlink:href="#linear-gradient-12"/>
    <linearGradient id="linear-gradient-15" x1="-355.281" y1="0.5" x2="-354.281" y2="0.5" gradientUnits="objectBoundingBox">
      <stop offset="0" stop-color="#444b8c"/>
      <stop offset="0.996" stop-color="#3e4177"/>
    </linearGradient>
    <linearGradient id="linear-gradient-16" x1="-381.67" y1="0.5" x2="-380.596" y2="0.5" xlink:href="#linear-gradient-15"/>
    <linearGradient id="linear-gradient-17" x1="-175.703" y1="0.5" x2="-174.703" y2="0.5" xlink:href="#linear-gradient-15"/>
    <linearGradient id="linear-gradient-18" x1="0.397" y1="1.247" x2="0.64" y2="0.017" gradientUnits="objectBoundingBox">
      <stop offset="0" stop-color="#aa80f9"/>
      <stop offset="0.996" stop-color="#6165d7"/>
    </linearGradient>
    <linearGradient id="linear-gradient-19" x1="-530.748" y1="1.122" x2="-530.748" y2="-0.088" xlink:href="#linear-gradient-12"/>
    <linearGradient id="linear-gradient-20" x1="-468.174" y1="118.248" x2="-467.294" y2="118.248" xlink:href="#linear-gradient-12"/>
    <linearGradient id="linear-gradient-21" x1="-842.717" y1="-301.595" x2="-843.381" y2="-303.811" xlink:href="#linear-gradient-15"/>
    <linearGradient id="linear-gradient-22" x1="-1059.134" y1="1.73" x2="-1058.014" y2="-0.566" xlink:href="#linear-gradient-12"/>
    <linearGradient id="linear-gradient-23" x1="0.297" y1="1.651" x2="0.592" y2="-0.103" xlink:href="#linear-gradient-18"/>
    <linearGradient id="linear-gradient-24" x1="0.342" y1="1.424" x2="0.594" y2="0" xlink:href="#linear-gradient-12"/>
    <linearGradient id="linear-gradient-25" x1="-2.78" y1="-2.083" x2="-2.025" y2="1.578" gradientUnits="objectBoundingBox">
      <stop offset="0" stop-color="#ab316d"/>
      <stop offset="1" stop-color="#792d3d"/>
    </linearGradient>
    <linearGradient id="linear-gradient-26" x1="-4.101" y1="-6.605" x2="-4.625" y2="-1.303" xlink:href="#linear-gradient-12"/>
    <linearGradient id="linear-gradient-27" x1="-5.288" y1="-1.95" x2="-5.961" y2="-0.371" xlink:href="#linear-gradient-12"/>
    <linearGradient id="linear-gradient-28" x1="-65.306" y1="-68.095" x2="-64.354" y2="-63.487" xlink:href="#linear-gradient-12"/>
    <linearGradient id="linear-gradient-29" x1="-161.092" y1="-84.798" x2="-159.845" y2="-81.749" xlink:href="#linear-gradient-12"/>
    <linearGradient id="linear-gradient-30" x1="-575.951" y1="12.181" x2="-576.733" y2="4.522" gradientUnits="objectBoundingBox">
      <stop offset="0" stop-color="#444b8c"/>
      <stop offset="0.996" stop-color="#26264f"/>
    </linearGradient>
    <linearGradient id="linear-gradient-31" x1="-2034.626" y1="9.33" x2="-2034.626" y2="-0.437" xlink:href="#linear-gradient-12"/>
    <linearGradient id="linear-gradient-32" x1="-1520.935" y1="8.865" x2="-1520.935" y2="-0.889" xlink:href="#linear-gradient-12"/>
    <linearGradient id="linear-gradient-33" x1="-716.679" y1="5.752" x2="-717.657" y2="1.713" xlink:href="#linear-gradient-30"/>
    <linearGradient id="linear-gradient-34" x1="-257.338" y1="0.422" x2="-257.508" y2="1.389" gradientUnits="objectBoundingBox">
      <stop offset="0" stop-color="#311944"/>
      <stop offset="1" stop-color="#893976"/>
    </linearGradient>
    <linearGradient id="linear-gradient-36" x1="-205.261" y1="0.815" x2="-207.776" y2="0.781" xlink:href="#linear-gradient-34"/>
    <linearGradient id="linear-gradient-37" x1="-68.837" y1="1.759" x2="-68.25" y2="0.576" xlink:href="#linear-gradient-12"/>
    <linearGradient id="linear-gradient-38" x1="-12.563" y1="8.741" x2="-12.097" y2="10.455" gradientUnits="objectBoundingBox">
      <stop offset="0" stop-color="#ff9085"/>
      <stop offset="1" stop-color="#fb6fbb"/>
    </linearGradient>
    <linearGradient id="linear-gradient-39" x1="-419.954" y1="2.039" x2="-420.604" y2="2.897" xlink:href="#linear-gradient-12"/>
    <linearGradient id="linear-gradient-40" x1="-180.37" y1="1.103" x2="-180.94" y2="2.063" xlink:href="#linear-gradient-30"/>
    <linearGradient id="linear-gradient-41" x1="-583.039" y1="8.366" x2="-582.6" y2="6.005" xlink:href="#linear-gradient-18"/>
    <linearGradient id="linear-gradient-42" x1="-1456.821" y1="3.715" x2="-1457.927" y2="4.596" xlink:href="#linear-gradient-12"/>
    <linearGradient id="linear-gradient-43" x1="-181.302" y1="4.278" x2="-179.744" y2="1.482" xlink:href="#linear-gradient-12"/>
    <linearGradient id="linear-gradient-44" x1="-87.277" y1="1.409" x2="-86.735" y2="0.338" xlink:href="#linear-gradient-30"/>
  </defs>
  <g id="Group_26889" data-name="Group 26889" transform="translate(-843.585 -197.361)">
    <g id="Group_26868" data-name="Group 26868">
      <g id="Group_26867" data-name="Group 26867">
        <path id="Path_192432" data-name="Path 192432" d="M929.23,425.5c-7.817-13.33-.232-35.529,9.053-48.525,10.841-15.174,19.648-11.713,27.16-24.17,13.988-23.193-10.806-44.7,1.445-69.207,10.015-20.034,30.385-13.263,40.466-35.955,7.275-16.373.165-27.769,11.193-39.934.943-1.04,11.271-12.11,23.816-10.1,12.66,2.024,20.174,16.184,22.631,25.96,4.543,18.072-7.509,23.862-9.984,47.261-3.371,31.857,16.974,39.981,9.643,62.925-6.053,18.947-21.321,17.777-27.616,38.917-5.844,19.632,5.2,27.774,0,40.605C1025.08,442.787,945.173,452.689,929.23,425.5Z" fill="url(#linear-gradient)"/>
        <g id="Group_26866" data-name="Group 26866" clip-path="url(#clip-path)">
          <g id="Group_26865" data-name="Group 26865">
            <path id="Path_192433" data-name="Path 192433" d="M939.816,446.391a.158.158,0,0,1-.016-.316,91.18,91.18,0,0,0,37.692-12.527c10.83-6.513,22.029-13.248,27-25.661,3.765-9.394,1.694-16.307-.927-25.06-2.545-8.5-5.714-19.083-3.965-35.25,1-9.231,2.242-20.719,10.237-31.584,4.655-6.326,9.175-9.037,13.163-11.428,4.2-2.516,7.51-4.5,9.447-9.832,3.154-8.675,1.086-16.125-1.309-24.751a93.028,93.028,0,0,1-3.581-17.339,56.3,56.3,0,0,1,3.842-25.154c4.124-10.793,11.5-22.078,21.937-33.542a.158.158,0,1,1,.233.212c-10.405,11.435-17.765,22.687-21.875,33.443a55.974,55.974,0,0,0-3.822,25.013,92.729,92.729,0,0,0,3.571,17.282c2.409,8.679,4.49,16.174,1.3,24.944-1.976,5.434-5.5,7.548-9.581,9.995-3.963,2.376-8.453,5.069-13.072,11.345-7.944,10.8-9.182,22.237-10.176,31.43-1.742,16.1,1.416,26.651,3.953,35.125,2.639,8.812,4.723,15.773.917,25.268-5.014,12.512-16.259,19.275-27.134,25.815a91.509,91.509,0,0,1-37.822,12.571Z" fill="#fff" opacity="0.7" style="mix-blend-mode: soft-light;isolation: isolate"/>
            <path id="Path_192434" data-name="Path 192434" d="M1006.566,321.609a.159.159,0,0,1-.145-.1c-10.939-24.765-12.658-43.935-12.174-55.656.525-12.712,3.686-19.661,3.718-19.73a.158.158,0,1,1,.287.133c-.032.069-3.171,6.975-3.69,19.632-.48,11.684,1.238,30.795,12.148,55.494a.158.158,0,0,1-.081.208A.156.156,0,0,1,1006.566,321.609Z" fill="#fff" opacity="0.7" style="mix-blend-mode: soft-light;isolation: isolate"/>
            <path id="Path_192435" data-name="Path 192435" d="M999.346,360.926a.158.158,0,0,1-.04-.311c13.9-3.689,25.875-9.59,35.584-17.539a76.183,76.183,0,0,0,18.858-22.813c8.086-14.953,8.733-28.1,8.739-28.233a.158.158,0,1,1,.316.014c-.006.131-.654,13.341-8.769,28.357a76.5,76.5,0,0,1-18.936,22.913c-9.746,7.981-21.761,13.9-35.711,17.607A.183.183,0,0,1,999.346,360.926Z" fill="#fff" opacity="0.7" style="mix-blend-mode: soft-light;isolation: isolate"/>
            <path id="Path_192436" data-name="Path 192436" d="M989.592,426.871a.158.158,0,0,1-.1-.038,107.138,107.138,0,0,1-24.284-29.159,79.849,79.849,0,0,1-9.051-25.94c-2.415-15.131.779-25.614.811-25.718a.158.158,0,0,1,.3.1c-.033.1-3.206,10.529-.8,25.591a79.53,79.53,0,0,0,9.019,25.83A106.8,106.8,0,0,0,989.7,426.593a.158.158,0,0,1,.017.223A.161.161,0,0,1,989.592,426.871Z" fill="#fff" opacity="0.7" style="mix-blend-mode: soft-light;isolation: isolate"/>
            <path id="Path_192437" data-name="Path 192437" d="M1028.06,249.634a.158.158,0,0,1-.061-.3,67.061,67.061,0,0,0,24.9-17.624,61.411,61.411,0,0,0,11.727-20.562,65.1,65.1,0,0,0,3.52-24.177.158.158,0,1,1,.315-.028,65.46,65.46,0,0,1-3.535,24.307,61.728,61.728,0,0,1-11.789,20.667,67.373,67.373,0,0,1-25.01,17.709A.166.166,0,0,1,1028.06,249.634Z" fill="#fff" opacity="0.7" style="mix-blend-mode: soft-light;isolation: isolate"/>
          </g>
        </g>
      </g>
    </g>
    <g id="Group_26872" data-name="Group 26872">
      <g id="Group_26871" data-name="Group 26871">
        <path id="Path_192439" data-name="Path 192439" d="M992.251,437.672c-6.677-11.387-.2-30.349,7.733-41.45,9.26-12.961,16.783-10,23.2-20.646,11.948-19.81-9.231-38.181,1.234-59.115,8.554-17.113,25.955-11.33,34.566-30.712,6.214-13.987.14-23.721,9.561-34.112.8-.888,9.628-10.344,20.343-8.632,10.814,1.729,17.232,13.824,19.331,22.175,3.881,15.437-6.414,20.383-8.528,40.37-2.879,27.212,14.5,34.152,8.237,53.75-5.17,16.184-18.213,15.185-23.589,33.243-4.993,16.769,4.44,23.724,0,34.683C1074.125,452.439,1005.87,460.9,992.251,437.672Z" fill="url(#linear-gradient-2)"/>
        <g id="Group_26870" data-name="Group 26870" clip-path="url(#clip-path-2)">
          <g id="Group_26869" data-name="Group 26869">
            <path id="Path_192440" data-name="Path 192440" d="M1001.294,455.54a.158.158,0,0,1-.017-.315,77.867,77.867,0,0,0,32.187-10.7c9.248-5.561,18.811-11.312,23.057-21.908,3.213-8.016,1.445-13.918-.792-21.391-2.175-7.264-4.882-16.3-3.388-30.119.853-7.888,1.916-17.7,8.748-26.989a34,34,0,0,1,11.251-9.769c3.58-2.146,6.407-3.842,8.06-8.386,2.692-7.4.926-13.763-1.119-21.128a79.476,79.476,0,0,1-3.06-14.815c-1.39-15.691,6.02-32.566,22.026-50.155a.158.158,0,1,1,.234.213c-15.944,17.521-23.327,34.315-21.945,49.914a79.276,79.276,0,0,0,3.049,14.758c2.06,7.417,3.838,13.823,1.112,21.321-1.691,4.649-4.705,6.457-8.2,8.55a33.713,33.713,0,0,0-11.158,9.684c-6.782,9.216-7.839,18.986-8.689,26.836-1.487,13.751,1.21,22.758,3.377,29.995,2.255,7.531,4.036,13.48.783,21.6-4.286,10.694-13.895,16.473-23.187,22.061a78.18,78.18,0,0,1-32.318,10.741Z" fill="#fff" opacity="0.7" style="mix-blend-mode: soft-light;isolation: isolate"/>
            <path id="Path_192441" data-name="Path 192441" d="M1058.31,348.953a.16.16,0,0,1-.145-.094c-9.345-21.159-10.814-37.537-10.4-47.552.448-10.863,3.151-16.8,3.178-16.861a.158.158,0,1,1,.287.133c-.027.058-2.707,5.956-3.15,16.763-.41,9.977,1.058,26.3,10.375,47.389a.158.158,0,0,1-.081.208A.16.16,0,0,1,1058.31,348.953Z" fill="#fff" opacity="0.7" style="mix-blend-mode: soft-light;isolation: isolate"/>
            <path id="Path_192442" data-name="Path 192442" d="M1052.144,382.537a.158.158,0,0,1-.041-.31c11.872-3.151,22.095-8.19,30.386-14.977a65.05,65.05,0,0,0,16.1-19.479,62.164,62.164,0,0,0,7.463-24.108.158.158,0,0,1,.316.013,62.467,62.467,0,0,1-7.494,24.233,65.347,65.347,0,0,1-16.18,19.579c-8.327,6.819-18.593,11.881-30.513,15.044A.137.137,0,0,1,1052.144,382.537Z" fill="#fff" opacity="0.7" style="mix-blend-mode: soft-light;isolation: isolate"/>
            <path id="Path_192443" data-name="Path 192443" d="M1043.811,438.867a.158.158,0,0,1-.1-.039,91.534,91.534,0,0,1-20.748-24.913,68.229,68.229,0,0,1-7.733-22.165c-2.065-12.93.665-21.889.693-21.978a.158.158,0,1,1,.3.094c-.955,3.058-2.326,11.561-.68,21.852a67.9,67.9,0,0,0,7.7,22.055,91.182,91.182,0,0,0,20.672,24.816.158.158,0,0,1-.1.278Z" fill="#fff" opacity="0.7" style="mix-blend-mode: soft-light;isolation: isolate"/>
            <path id="Path_192444" data-name="Path 192444" d="M1076.671,287.473a.158.158,0,0,1-.062-.3,57.252,57.252,0,0,0,21.257-15.048,52.43,52.43,0,0,0,10.013-17.556,55.565,55.565,0,0,0,3.005-20.642.158.158,0,1,1,.315-.029,55.938,55.938,0,0,1-3.021,20.773,52.735,52.735,0,0,1-10.073,17.661,57.564,57.564,0,0,1-21.373,15.132A.149.149,0,0,1,1076.671,287.473Z" fill="#fff" opacity="0.7" style="mix-blend-mode: soft-light;isolation: isolate"/>
          </g>
        </g>
      </g>
    </g>
    <g id="Group_26881" data-name="Group 26881">
      <g id="Group_26875" data-name="Group 26875">
        <g id="Group_26873" data-name="Group 26873">
          <path id="Path_192446" data-name="Path 192446" d="M1029.121,306.747l-12.468-.038a2.972,2.972,0,0,1-2.883-3.042V272.81c0-21.946-16.993-40.081-38.141-40.508l-24.028-.487c-21.594-.436-39.258,17.417-39.258,39.881v31.585a3.054,3.054,0,0,1-3.025,3.1l-13.176-.041a3.1,3.1,0,0,1-3.047-3.127V271.484c0-33.478,26.387-59.965,58.507-59.171l24.027.593c31.306.774,56.355,27.678,56.355,60.1v30.727A2.933,2.933,0,0,1,1029.121,306.747Z" fill="url(#linear-gradient-5)"/>
          <path id="Path_192447" data-name="Path 192447" d="M1036.3,312.669l-147.807-.254A13.348,13.348,0,0,0,875.262,325.9v74.938c0,30.429,24.094,54.359,53.458,53.459l69.3-2.123c28.069-.86,50.557-25.253,50.557-54.493V325.671C1048.581,318.5,1043.09,312.681,1036.3,312.669ZM977.708,414.921l-28.211.618,7.5-33.345a18.571,18.571,0,0,1-11.524-17.4c0-10.431,8.158-18.935,18.179-18.995,9.975-.059,18.028,8.279,18.028,18.624A19.057,19.057,0,0,1,970.283,382Z" fill="url(#linear-gradient-6)"/>
        </g>
        <g id="Group_26874" data-name="Group 26874">
          <path id="Path_192448" data-name="Path 192448" d="M1041.207,306.747l-12.468-.038a2.972,2.972,0,0,1-2.883-3.042V272.81c0-21.946-16.993-40.081-38.142-40.508l-24.027-.487c-21.6-.436-39.258,17.417-39.258,39.881v31.585a3.054,3.054,0,0,1-3.025,3.1l-13.176-.041a3.094,3.094,0,0,1-3.047-3.127V271.484c0-33.478,26.387-59.965,58.506-59.171l24.027.593c31.306.774,56.355,27.678,56.355,60.1v30.727A2.932,2.932,0,0,1,1041.207,306.747Z" fill="url(#linear-gradient-7)"/>
          <path id="Path_192449" data-name="Path 192449" d="M1048.382,312.669l-147.808-.254A13.347,13.347,0,0,0,887.348,325.9v74.938c0,30.429,24.094,54.359,53.457,53.459l69.3-2.123c28.069-.86,50.557-25.253,50.557-54.493V325.671C1060.667,318.5,1055.175,312.681,1048.382,312.669ZM989.794,414.921l-28.212.618,7.5-33.345a18.57,18.57,0,0,1-11.524-17.4c0-10.431,8.158-18.935,18.179-18.995,9.975-.059,18.028,8.279,18.028,18.624A19.057,19.057,0,0,1,982.369,382Z" fill="url(#linear-gradient-8)"/>
        </g>
        <path id="Path_192450" data-name="Path 192450" d="M969.078,382.194l-7.5,33.345,28.212-.618-7.052-31.263c-9.642-7.152-18.526-13.319-24.961-21.839a19.645,19.645,0,0,0-.226,2.971A18.57,18.57,0,0,0,969.078,382.194Z" fill="none"/>
        <path id="Path_192451" data-name="Path 192451" d="M982.742,383.658,982.369,382a19.057,19.057,0,0,0,11.393-17.585c0-10.345-8.053-18.683-18.028-18.624-9.05.054-16.579,7-17.953,16.024C964.216,370.339,973.1,376.506,982.742,383.658Z" fill="none"/>
        <path id="Path_192452" data-name="Path 192452" d="M905.181,271.484v31.724a3.094,3.094,0,0,0,3.047,3.127l13.176.041a3.054,3.054,0,0,0,3.025-3.1V271.7c0-22.463,17.663-40.316,39.258-39.88l3,.061a81.816,81.816,0,0,0-10.3-19.269C927.66,215.642,905.181,240.585,905.181,271.484Z" fill="#fff" opacity="0.48" style="mix-blend-mode: soft-light;isolation: isolate"/>
        <path id="Path_192453" data-name="Path 192453" d="M982.742,383.658l7.052,31.263-28.212.618,7.5-33.345a18.57,18.57,0,0,1-11.523-17.4,19.645,19.645,0,0,1,.226-2.971,47.678,47.678,0,0,1-8.365-17.727c-2.93-11.882-1.268-21.993,2.159-31.589l-51-.088A13.348,13.348,0,0,0,887.348,325.9v74.938c0,30.429,24.094,54.359,53.457,53.459l69.3-2.123a49.614,49.614,0,0,0,20.485-5.129,123.514,123.514,0,0,0-10-22.883C1009.2,404.018,995.329,393,982.742,383.658Z" fill="#fff" opacity="0.48" style="mix-blend-mode: soft-light;isolation: isolate"/>
      </g>
      <path id="Path_192454" data-name="Path 192454" d="M959.4,231.973a37.325,37.325,0,0,0-8.333,1.753c-6.8-6.8-15.255-12.145-24.084-16.363a55.516,55.516,0,0,1,24.622-5.05l6.291.155a56.256,56.256,0,0,1,5.794-.155l24.027.593c31.306.774,56.355,27.678,56.355,60.1v30.727a2.932,2.932,0,0,1-2.862,3.01l-11.657-.036a2.645,2.645,0,0,1-.429.036l-12.468-.038a2.972,2.972,0,0,1-2.883-3.042V272.81c0-21.946-16.993-40.081-38.142-40.508Zm88.985,80.7-93.42-.161c-1.73,8.585-1.951,17.618,1.553,27.629a48.406,48.406,0,0,0,5.956,11.723,18.335,18.335,0,0,1,7.317-4.988,18.562,18.562,0,0,1,11.888,17.547,19.572,19.572,0,0,1-.561,4.656c14.33,9.7,30.13,17.315,36.919,36.775,5.416,15.527,2.7,31.741-2.56,45.867,25.515-3.575,45.193-26.684,45.193-54.035V325.671C1060.667,318.5,1055.175,312.681,1048.382,312.669Z" fill="#d8dee8"/>
      <g id="Group_26880" data-name="Group 26880">
        <path id="Path_192455" data-name="Path 192455" d="M1014.409,452.572l.41-1.1c6.3-16.912,7.162-32.184,2.555-45.393-5.716-16.384-17.649-24.091-30.283-32.249-2.1-1.354-4.264-2.754-6.368-4.178l-.4-.272.116-.472a18.954,18.954,0,0,0,.541-4.49,17.934,17.934,0,0,0-11.19-16.8,17.722,17.722,0,0,0-6.8,4.708l-.59.658-.5-.726a48.782,48.782,0,0,1-6.041-11.891c-3.127-8.93-3.629-17.827-1.579-28l.113-.562,93.993.162c7.159.012,12.983,6.159,12.983,13.7v72.011c0,27.542-19.688,51.069-45.795,54.727Zm-32.5-83.808c1.966,1.323,3.986,2.628,5.944,3.892,12.276,7.928,24.971,16.126,30.845,32.964,4.616,13.232,3.889,28.444-2.157,45.228,24.842-4.086,43.431-26.727,43.431-53.166V325.671c0-6.773-5.2-12.292-11.588-12.3l-92.843-.159c-1.868,9.68-1.344,18.178,1.638,26.7a47.561,47.561,0,0,0,5.383,10.841,19.025,19.025,0,0,1,6.989-4.531l.242-.089.241.089a19.324,19.324,0,0,1,12.346,18.2A20.377,20.377,0,0,1,981.905,368.764Zm59.31-61.318h-.007l-11.608-.036a3.359,3.359,0,0,1-.473.036h-.008l-12.468-.038a3.675,3.675,0,0,1-3.58-3.741V272.81a40.467,40.467,0,0,0-10.95-27.845A37.242,37.242,0,0,0,975.614,233l-16.191-.327a36.643,36.643,0,0,0-8.138,1.716l-.41.136-.3-.3c-6.1-6.108-14.139-11.568-23.892-16.226l-1.347-.644,1.357-.623a55.953,55.953,0,0,1,24.931-5.113l6.255.154a57.371,57.371,0,0,1,5.831-.154l24.027.593a57.006,57.006,0,0,1,40.41,18.4,61.793,61.793,0,0,1,16.626,42.4v30.727a3.757,3.757,0,0,1-1.1,2.684A3.458,3.458,0,0,1,1041.215,307.446Zm-11.718-1.434,11.712.036h.006a2.071,2.071,0,0,0,1.467-.617,2.369,2.369,0,0,0,.688-1.694V273.01a60.4,60.4,0,0,0-16.249-41.444A55.621,55.621,0,0,0,987.7,213.6l-24.027-.594a56.125,56.125,0,0,0-5.723.154l-.036,0-6.326-.157a54.546,54.546,0,0,0-22.945,4.381,86.365,86.365,0,0,1,22.614,15.536,38.084,38.084,0,0,1,8.078-1.651l.039,0,16.272.33a38.623,38.623,0,0,1,27.5,12.4,41.852,41.852,0,0,1,11.33,28.8v30.857a2.275,2.275,0,0,0,2.186,2.342l12.468.039a2.174,2.174,0,0,0,.319-.028Z" fill="#fff"/>
        <g id="Group_26879" data-name="Group 26879" clip-path="url(#clip-path-3)">
          <g id="Group_26876" data-name="Group 26876">
            <path id="Path_192456" data-name="Path 192456" d="M948.619,416.257l7.563-33.643A19.186,19.186,0,0,1,944.77,364.79c0-10.8,8.467-19.632,18.874-19.694a18.213,18.213,0,0,1,13,5.359,19.942,19.942,0,0,1-5.554,31.955l7.487,33.191Zm15.134-69.763h-.1c-9.641.058-17.484,8.265-17.484,18.3a17.774,17.774,0,0,0,11.082,16.754l.556.219-7.431,33.057,26.463-.579-7.365-32.652.536-.229a18.534,18.534,0,0,0,5.65-29.913A16.8,16.8,0,0,0,963.753,346.494Z" fill="#fff"/>
            <path id="Path_192457" data-name="Path 192457" d="M1041.216,307.446h-.008l-12.471-.038a3.675,3.675,0,0,1-3.58-3.741V272.81a40.464,40.464,0,0,0-10.951-27.845A37.24,37.24,0,0,0,987.7,233l-24.027-.486a36.89,36.89,0,0,0-26.747,10.678,39.524,39.524,0,0,0-11.8,28.5v31.585A3.809,3.809,0,0,1,924.009,306a3.657,3.657,0,0,1-2.595,1.078H921.4l-13.176-.041a3.8,3.8,0,0,1-3.744-3.826V271.484a60.346,60.346,0,0,1,18.113-43.626,56.475,56.475,0,0,1,41.11-16.244l24.027.593a57,57,0,0,1,40.41,18.4,61.793,61.793,0,0,1,16.626,42.4v30.727a3.761,3.761,0,0,1-1.1,2.684A3.462,3.462,0,0,1,1041.216,307.446Zm-78.307-76.338q.4,0,.792.008l24.027.487a38.623,38.623,0,0,1,27.5,12.4,41.856,41.856,0,0,1,11.33,28.8v30.857a2.274,2.274,0,0,0,2.186,2.342l12.468.039h.006a2.07,2.07,0,0,0,1.467-.617,2.369,2.369,0,0,0,.688-1.694V273.01a60.4,60.4,0,0,0-16.249-41.444A55.621,55.621,0,0,0,987.7,213.6l-24.027-.594a55.079,55.079,0,0,0-40.1,15.848,58.963,58.963,0,0,0-17.691,42.625v31.724a2.4,2.4,0,0,0,2.35,2.428l13.176.041a2.247,2.247,0,0,0,1.616-.67,2.42,2.42,0,0,0,.708-1.726V271.7a40.915,40.915,0,0,1,12.217-29.5A38.288,38.288,0,0,1,962.909,231.108Z" fill="#fff"/>
            <path id="Path_192458" data-name="Path 192458" d="M939.2,455.022a51.474,51.474,0,0,1-36.086-14.679,54.47,54.47,0,0,1-16.463-39.5V325.9a14.219,14.219,0,0,1,4.181-10.138,13.681,13.681,0,0,1,9.723-4.046h.016l147.815.254c7.159.012,12.983,6.159,12.983,13.7v72.011a56.256,56.256,0,0,1-14.939,38.364,51.417,51.417,0,0,1-36.295,16.828L940.827,455Q940.011,455.023,939.2,455.022ZM900.552,313.114a12.294,12.294,0,0,0-8.736,3.638,12.829,12.829,0,0,0-3.769,9.148v74.939a53.079,53.079,0,0,0,16.038,38.5,50.1,50.1,0,0,0,36.7,14.26l69.3-2.123A50.026,50.026,0,0,0,1045.4,435.1a54.862,54.862,0,0,0,14.567-37.414V325.671c0-6.773-5.2-12.292-11.588-12.3l-147.807-.254ZM960.7,416.257l7.564-33.643a19.186,19.186,0,0,1-11.412-17.824c0-10.8,8.467-19.632,18.874-19.694a18.214,18.214,0,0,1,13,5.359,19.942,19.942,0,0,1-5.553,31.955l7.487,33.191Zm15.135-69.763h-.1c-9.641.058-17.484,8.265-17.484,18.3a17.774,17.774,0,0,0,11.082,16.754l.556.219L962.46,414.82l26.464-.579-7.366-32.652.537-.229a18.534,18.534,0,0,0,5.65-29.913A16.8,16.8,0,0,0,975.839,346.494Z" fill="#fff"/>
            <path id="Path_192459" data-name="Path 192459" d="M939.2,444.536h0a41.1,41.1,0,0,1-29.654-12.581,44.258,44.258,0,0,1-12.415-31.116V325.9a3.57,3.57,0,0,1,3.417-3.7l147.813.254c1.214,0,2.515,1.3,2.515,3.215v72.011c0,23.959-18.424,44.017-41.07,44.711l-69.3,2.123C940.073,444.529,939.635,444.536,939.2,444.536ZM900.551,323.6a2.176,2.176,0,0,0-2.018,2.3v74.939a42.868,42.868,0,0,0,12.019,30.141,39.752,39.752,0,0,0,29.911,12.138l69.3-2.123c21.9-.671,39.715-20.1,39.715-43.313V325.671c0-1.091-.674-1.816-1.12-1.817Z" fill="#fff"/>
            <path id="Path_192460" data-name="Path 192460" d="M1034.725,306.378h-1.4V268.483a45.841,45.841,0,0,0-45.789-45.79H961.323a45.841,45.841,0,0,0-45.789,45.79v37.895h-1.4V268.483a47.241,47.241,0,0,1,47.187-47.188h26.215a47.241,47.241,0,0,1,47.187,47.188Z" fill="#fff"/>
            <path id="Path_192461" data-name="Path 192461" d="M1027.315,449.5l-1.258-.61L1034.725,431V323.015l-3.4-10.131,1.325-.445,3.478,10.348V431.325Z" fill="#fff"/>
            <path id="Path_192462" data-name="Path 192462" d="M997.272,452.256l-1.292-.535,4.141-10.008V322.972l-2.083-10.17,1.37-.281,2.112,10.309V441.991Z" fill="#fff"/>
            <path id="Path_192463" data-name="Path 192463" d="M1050.357,342.235H886.872v-1.4h163.133l10.255-5.509.662,1.232Z" fill="#fff"/>
            <path id="Path_192464" data-name="Path 192464" d="M1050.357,379.521H886.872v-1.4h163.133l10.255-5.509.662,1.232Z" fill="#fff"/>
            <path id="Path_192465" data-name="Path 192465" d="M886.884,416.807l-.025-1.4,160.416-2.864,12.3-6.154.625,1.25-12.588,6.3-.158,0Z" fill="#fff"/>
          </g>
          <rect id="Rectangle_12609" data-name="Rectangle 12609" width="1.398" height="11.935" transform="matrix(0.029, -1, 1, 0.029, 981.634, 362.138)" fill="#fff"/>
          <rect id="Rectangle_12610" data-name="Rectangle 12610" width="11.535" height="1.398" transform="translate(977.111 350.953)" fill="#fff"/>
          <rect id="Rectangle_12611" data-name="Rectangle 12611" width="1.398" height="11.037" transform="translate(981.487 368.715) rotate(-79.046)" fill="#fff"/>
          <g id="Group_26877" data-name="Group 26877" opacity="0.4">
            <path id="Path_192466" data-name="Path 192466" d="M929.23,425.5c-7.817-13.33-.232-35.529,9.053-48.525,10.841-15.174,19.648-11.713,27.16-24.17,13.988-23.193-10.806-44.7,1.445-69.207,10.015-20.034,30.385-13.263,40.466-35.955,7.275-16.373.165-27.769,11.193-39.934.943-1.04,11.271-12.11,23.816-10.1,12.66,2.024,20.174,16.184,22.631,25.96,4.543,18.072-7.509,23.862-9.984,47.261-3.371,31.857,16.974,39.981,9.643,62.925-6.053,18.947-21.321,17.777-27.616,38.917-5.844,19.632,5.2,27.774,0,40.605C1025.08,442.787,945.173,452.689,929.23,425.5Z" fill="url(#linear-gradient)"/>
            <path id="Path_192467" data-name="Path 192467" d="M971.59,442.13c-17.338,0-35.889-4.213-42.963-16.277-7.649-13.044-1.027-35.129,9.087-49.286,5.636-7.889,10.8-10.862,15.365-13.485,4.4-2.528,8.191-4.712,11.766-10.639,6.969-11.556,4.135-22.551,1.136-34.192-2.876-11.161-5.85-22.7.281-34.966,4.916-9.835,12.395-13.409,19.627-16.866,7.714-3.687,15.691-7.5,20.826-19.06,3.13-7.044,3.548-13.05,3.952-18.859.509-7.32.991-14.233,7.362-21.262,1.154-1.272,11.643-12.372,24.444-10.325,13.6,2.175,20.984,17.668,23.2,26.48,2.606,10.366-.194,16.934-3.436,24.54-2.557,6-5.455,12.8-6.531,22.964-1.661,15.7,2.527,25.626,6.223,34.382,3.834,9.085,7.146,16.931,3.391,28.683-2.982,9.336-8.266,13.979-13.376,18.468-5.427,4.769-11.039,9.7-14.236,20.436-3.045,10.227-1.418,17.323.017,23.583,1.279,5.579,2.487,10.849-.039,17.084-3.084,7.614-10.735,14.38-22.126,19.566-10.311,4.7-23.123,7.8-36.076,8.743C976.913,442.03,974.265,442.13,971.59,442.13Zm67.7-244.071c-10.717,0-19.214,9-20.224,10.118-6.046,6.67-6.49,13.042-7,20.42-.394,5.653-.84,12.061-4.069,19.329-5.345,12.032-13.558,15.958-21.5,19.754-7.342,3.51-14.278,6.825-18.979,16.23-5.9,11.8-2.99,23.08-.178,33.992,2.939,11.408,5.979,23.2-1.293,35.263-3.761,6.237-7.892,8.613-12.266,11.129-4.653,2.677-9.465,5.445-14.924,13.086a70.4,70.4,0,0,0-10.828,23.891c-1.592,6.769-2.571,16.4,1.809,23.874,5.793,9.88,21.278,15.607,41.348,15.608q3.987,0,8.2-.3c22.775-1.659,50.33-10.954,57.008-27.44,2.361-5.827,1.254-10.656-.028-16.247-1.473-6.428-3.144-13.714.006-24.294,3.312-11.122,9.077-16.188,14.653-21.087,5.195-4.565,10.1-8.876,12.967-17.843,3.6-11.26.379-18.885-3.347-27.714-3.762-8.912-8.025-19.012-6.326-35.073,1.1-10.376,4.04-17.277,6.635-23.365,3.274-7.678,5.859-13.742,3.367-23.651-2.131-8.48-9.177-23.381-22.064-25.441A18.783,18.783,0,0,0,1039.289,198.059Z" fill="#fff"/>
          </g>
          <g id="Group_26878" data-name="Group 26878" opacity="0.4">
            <path id="Path_192468" data-name="Path 192468" d="M992.251,437.672c-6.677-11.387-.2-30.349,7.733-41.45,9.26-12.961,16.783-10,23.2-20.646,11.948-19.81-9.231-38.181,1.234-59.115,8.554-17.113,25.955-11.33,34.566-30.712,6.214-13.987.14-23.721,9.561-34.112.8-.888,9.628-10.344,20.343-8.632,10.814,1.729,17.232,13.824,19.331,22.175,3.881,15.437-6.414,20.383-8.528,40.37-2.879,27.212,14.5,34.152,8.237,53.75-5.17,16.184-18.213,15.185-23.589,33.243-4.993,16.769,4.44,23.724,0,34.683C1074.125,452.439,1005.87,460.9,992.251,437.672Z" fill="url(#linear-gradient-2)"/>
            <path id="Path_192469" data-name="Path 192469" d="M1028.439,451.98c-14.841,0-30.727-3.612-36.791-13.955-6.555-11.179-.891-30.091,7.767-42.209a36.372,36.372,0,0,1,13.157-11.549c3.742-2.152,6.974-4.011,10.014-9.052,5.93-9.833,3.515-19.206.958-29.128-2.461-9.551-5.006-19.428.249-29.939,4.214-8.431,10.619-11.492,16.812-14.453,6.572-3.142,13.368-6.39,17.74-16.23,2.666-6,3.022-11.121,3.367-16.075.436-6.27.849-12.193,6.315-18.223.989-1.091,9.981-10.608,20.971-8.852,11.673,1.866,18,15.144,19.9,22.7,2.235,8.888-.164,14.513-2.94,21.027-2.182,5.117-4.654,10.916-5.571,19.586-1.416,13.387,2.156,21.851,5.308,29.318,3.283,7.779,6.119,14.5,2.9,24.572-2.556,8-7.08,11.977-11.456,15.821-4.624,4.064-9.407,8.266-12.129,17.408-2.593,8.711-1.207,14.758.016,20.093,1.1,4.782,2.131,9.3-.038,14.654-2.645,6.528-9.2,12.327-18.953,16.768a92.617,92.617,0,0,1-30.851,7.477C1032.987,451.894,1030.725,451.98,1028.439,451.98ZM1086.261,243.5c-9.109,0-16.339,7.662-17.2,8.609-5.141,5.671-5.519,11.1-5.957,17.381-.336,4.838-.718,10.321-3.483,16.545-4.582,10.312-11.614,13.674-18.415,16.925-6.256,2.99-12.165,5.814-16.165,13.817-5.02,10.043-2.542,19.662-.145,28.964,2.517,9.765,5.119,19.863-1.115,30.2-3.227,5.349-6.767,7.386-10.514,9.541a34.736,34.736,0,0,0-12.716,11.149A60.018,60.018,0,0,0,991.32,417c-1.356,5.763-2.19,13.967,1.534,20.318,4.93,8.407,18.122,13.281,35.227,13.282q3.4,0,7-.26c19.424-1.415,42.921-9.334,48.609-23.376,2-4.947,1.062-9.058-.029-13.817-1.261-5.5-2.691-11.741.007-20.8,2.837-9.528,7.773-13.865,12.546-18.059,4.427-3.89,8.609-7.564,11.047-15.2,3.061-9.582.319-16.08-2.856-23.6-3.218-7.623-6.865-16.264-5.411-30.009.94-8.878,3.456-14.78,5.676-19.987,2.788-6.541,4.99-11.707,2.871-20.138-1.816-7.219-7.81-19.9-18.764-21.655A15.955,15.955,0,0,0,1086.261,243.5Z" fill="#fff"/>
          </g>
        </g>
      </g>
      <path id="Path_192471" data-name="Path 192471" d="M1041.216,307.271h-.007l-12.472-.038a3.5,3.5,0,0,1-3.405-3.566V272.81a40.641,40.641,0,0,0-11-27.965,37.415,37.415,0,0,0-26.63-12.019l-24.028-.486a36.929,36.929,0,0,0-12.448,1.878l-.331-.995a38.009,38.009,0,0,1,12.8-1.932l24.027.486a38.457,38.457,0,0,1,27.373,12.35,41.687,41.687,0,0,1,11.282,28.683v30.857a2.45,2.45,0,0,0,2.36,2.517l12.469.039h.006a2.242,2.242,0,0,0,1.591-.669,2.539,2.539,0,0,0,.739-1.817V273.01a60.574,60.574,0,0,0-16.3-41.563A55.8,55.8,0,0,0,987.7,213.43l-24.026-.593a55.173,55.173,0,0,0-30.143,8.058l-.546-.9a56.21,56.21,0,0,1,30.714-8.212l24.027.594a56.832,56.832,0,0,1,40.287,18.348,61.621,61.621,0,0,1,16.58,42.28v30.727a3.582,3.582,0,0,1-1.048,2.56A3.282,3.282,0,0,1,1041.216,307.271Z" fill="#fff"/>
      <path id="Path_192472" data-name="Path 192472" d="M1015.547,452.238l-.146-1.038c25.507-3.574,44.742-26.582,44.742-53.518V325.671c0-6.869-5.277-12.466-11.762-12.477l-93.42-.161,0-1.049,93.42.161c7.062.012,12.808,6.08,12.808,13.526v72.011C1061.191,425.138,1041.568,448.592,1015.547,452.238ZM991.007,375.4l-.875-.578a18.833,18.833,0,0,0,3.106-10.407,18.3,18.3,0,0,0-5.37-13.1,16.949,16.949,0,0,0-12.131-5,17.521,17.521,0,0,0-12.88,5.886l-.781-.7a18.577,18.577,0,0,1,13.655-6.235h.108a18.007,18.007,0,0,1,12.768,5.308,19.347,19.347,0,0,1,5.679,13.84A19.883,19.883,0,0,1,991.007,375.4Z" fill="#fff"/>
      <circle id="Ellipse_180" data-name="Ellipse 180" cx="3.538" cy="3.538" r="3.538" transform="translate(1030.518 342.257) rotate(-45)" fill="#fff"/>
      <circle id="Ellipse_181" data-name="Ellipse 181" cx="3.538" cy="3.538" r="3.538" transform="translate(1031.463 325.659) rotate(-80.783)" fill="#fff"/>
      <circle id="Ellipse_182" data-name="Ellipse 182" cx="3.538" cy="3.538" r="3.538" transform="matrix(0.16, -0.987, 0.987, 0.16, 1031.463, 381.565)" fill="#fff"/>
      <circle id="Ellipse_183" data-name="Ellipse 183" cx="3.538" cy="3.538" r="3.538" transform="matrix(0.23, -0.973, 0.973, 0.23, 1031.265, 417.651)" fill="#fff"/>
      <circle id="Ellipse_184" data-name="Ellipse 184" cx="3.538" cy="3.538" r="3.538" transform="matrix(0.23, -0.973, 0.973, 0.23, 1029.877, 302.827)" fill="#fff"/>
      <circle id="Ellipse_185" data-name="Ellipse 185" cx="2.242" cy="2.242" r="2.242" transform="translate(998.375 339.331)" fill="#fff"/>
      <circle id="Ellipse_186" data-name="Ellipse 186" cx="2.242" cy="2.242" r="2.242" transform="matrix(0.16, -0.987, 0.987, 0.16, 998.045, 324.893)" fill="#fff"/>
      <circle id="Ellipse_187" data-name="Ellipse 187" cx="2.242" cy="2.242" r="2.242" transform="translate(998.375 376.397)" fill="#fff"/>
      <circle id="Ellipse_188" data-name="Ellipse 188" cx="2.241" cy="2.241" r="2.241" transform="translate(1031.714 271.822) rotate(-4.731)" fill="#fff"/>
      <circle id="Ellipse_189" data-name="Ellipse 189" cx="2.242" cy="2.242" r="2.242" transform="translate(1025.222 242.569)" fill="#fff"/>
      <path id="Path_192473" data-name="Path 192473" d="M1009.46,226.055a2.242,2.242,0,1,1-2.241-2.242A2.241,2.241,0,0,1,1009.46,226.055Z" fill="#fff"/>
      <circle id="Ellipse_190" data-name="Ellipse 190" cx="2.242" cy="2.242" r="2.242" transform="translate(971.766 219.33)" fill="#fff"/>
      <circle id="Ellipse_191" data-name="Ellipse 191" cx="3.538" cy="3.538" r="3.538" transform="matrix(0.23, -0.973, 0.973, 0.23, 1019.67, 263.329)" fill="#fff"/>
    </g>
    <g id="Group_26882" data-name="Group 26882">
      <path id="Path_192474" data-name="Path 192474" d="M947.027,467.849a.293.293,0,0,1-.293-.293v-115.6a.293.293,0,1,1,.586,0v115.6A.293.293,0,0,1,947.027,467.849Z" fill="#d8dee8"/>
      <path id="Path_192475" data-name="Path 192475" d="M915.883,460.587a.294.294,0,0,1-.294-.293V349.039a.294.294,0,0,1,.587,0V460.294A.293.293,0,0,1,915.883,460.587Z" fill="#d8dee8"/>
      <path id="Path_192476" data-name="Path 192476" d="M843.879,465.768a.3.3,0,0,1-.1-.018.293.293,0,0,1-.175-.376l41.632-114.715a.294.294,0,0,1,.552.2L844.154,465.575A.293.293,0,0,1,843.879,465.768Z" fill="#97a6b7"/>
      <path id="Path_192477" data-name="Path 192477" d="M874.613,474.745a.293.293,0,0,1-.28-.38L911.7,353.418a.293.293,0,1,1,.56.173L874.893,474.538A.294.294,0,0,1,874.613,474.745Z" fill="#97a6b7"/>
      <path id="Path_192478" data-name="Path 192478" d="M916.225,348.924l31.242,2.312v.7l-35.705,1.6-26.687-3.27v-.7Z" fill="#d8dee8"/>
      <path id="Path_192479" data-name="Path 192479" d="M916.225,348.221l31.242,3.015-35.705,1.6-26.687-3.27Z" fill="#fff"/>
      <path id="Path_192480" data-name="Path 192480" d="M882.7,448.579a.321.321,0,0,1-.075-.009l-29.747-7.8a.293.293,0,1,1,.148-.567l29.748,7.8a.293.293,0,0,1-.074.577Z" fill="#97a6b7"/>
      <path id="Path_192481" data-name="Path 192481" d="M891.124,421.2a.309.309,0,0,1-.052,0l-29.194-5.17a.293.293,0,1,1,.1-.577l29.194,5.169a.293.293,0,0,1-.05.582Z" fill="#97a6b7"/>
      <path id="Path_192482" data-name="Path 192482" d="M899.885,392.943l-.038,0L871.593,389.3a.293.293,0,1,1,.075-.582l28.254,3.642a.294.294,0,0,1-.037.585Z" fill="#97a6b7"/>
      <path id="Path_192483" data-name="Path 192483" d="M905.5,373.333a.229.229,0,0,1-.045,0l-26.566-4.157a.293.293,0,1,1,.091-.579l26.565,4.157a.293.293,0,0,1-.045.583Z" fill="#97a6b7"/>
    </g>
    <g id="Group_26886" data-name="Group 26886">
      <path id="Path_192484" data-name="Path 192484" d="M930.37,345.464s7.982,3.628,8.113,4.207-5.133-.194-7.282-.111-3.917-.551-3.722-1.461.947-3.2.947-3.2Z" fill="url(#linear-gradient-11)"/>
      <path id="Path_192485" data-name="Path 192485" d="M930.662,342.52l-.485,3.594a2.817,2.817,0,0,1-2.113-.082l-.362-3.942Z" fill="url(#linear-gradient-12)"/>
      <path id="Path_192486" data-name="Path 192486" d="M893.073,342.606l-.928,1.491a1.773,1.773,0,0,0-.213,1.393c.325,1.24.973,3.655,1.256,4.285.385.858,5.55,1.368,5.55,1.368s.461-.649-.612-1.432-1.761-.9-2.14-2.061a30.286,30.286,0,0,1-.631-4.423Z" fill="url(#linear-gradient-13)"/>
      <path id="Path_192487" data-name="Path 192487" d="M896.937,338.819a48.159,48.159,0,0,0-2,5.3s-.537.687-1.557-.326-.462-.455-.462-.455l.192-4.952Z" fill="url(#linear-gradient-14)"/>
      <path id="Path_192488" data-name="Path 192488" d="M935.054,270.32c.421,10.72.438,22.366-.178,34.809-.695,14.011-2.091,26.961-3.849,38.7-.654.02-1.341.024-2.059,0q-.728-.021-1.408-.069a89.064,89.064,0,0,1-2.958-9.458,91.245,91.245,0,0,1-2.065-11.075c-1.537-12.142.265-13.2-.983-22.2-1.1-7.969-2.676-8.28-4.52-19.6-2-12.277-.511-14.119.213-14.784C920.331,263.819,927.575,265.748,935.054,270.32Z" fill="url(#linear-gradient-15)"/>
      <path id="Path_192489" data-name="Path 192489" d="M917.247,266.652c2.942-2.7,9.668-1.066,16.773,3.057-8.173,8.831-9.064,14.559-8.084,18.276,1.107,4.2,4.474,5.411,4.461,10.005-.016,5.645-5.111,7.14-5,13.114.071,3.95,2.31,3.909,2.839,8.787.625,5.773-2.3,7.762-1.352,12.033.407,1.837,1.571,4.238,4.884,6.711-.239,1.754-.484,3.49-.739,5.194-.654.02-1.341.024-2.059,0q-.728-.021-1.408-.069a89.064,89.064,0,0,1-2.958-9.458,91.245,91.245,0,0,1-2.065-11.075c-1.537-12.142.265-13.2-.983-22.2-1.1-7.969-2.676-8.281-4.52-19.6C915.033,269.159,916.523,267.317,917.247,266.652Z" opacity="0.3" fill="url(#linear-gradient-16)" style="mix-blend-mode: multiply;isolation: isolate"/>
      <path id="Path_192490" data-name="Path 192490" d="M929.991,270.14a240.683,240.683,0,0,0-33,70.63,4.306,4.306,0,0,1-2.356.365,4.383,4.383,0,0,1-2.669-1.442,69.337,69.337,0,0,1-.612-17.093,58.9,58.9,0,0,1,2.4-12.848c1.943-6.267,3.279-6.619,5.814-13.249,2.63-6.882,1.993-8.6,4.513-17.212a113.623,113.623,0,0,1,5.626-15.1Z" fill="url(#linear-gradient-17)"/>
      <path id="Path_192491" data-name="Path 192491" d="M962.483,283.208c-1.353,2.1-6.011,1.859-9.193.721-7.439-2.659-12.2-12.12-12.618-19.648-.09-1.616-.033-3.2-.361-3.245-.824-.121-2.94,9.653-4.6,17.939a11.243,11.243,0,0,1-5.674.628c-3.786-.62-4.237-2.973-8.472-4.506-2.471-.895-4.892-.9-9.734-.9-5.466,0-5.617.67-6.669.181a5.448,5.448,0,0,1-.485-.3c-3.892-2.794,7.244-24.036,4.037-43.634-.356-2.179-.9-4.415.314-6.6,3.144-5.634,15.57-6.428,23.268-2.72a63.787,63.787,0,0,1,8.8,5.583c1.262.937,2.573,1.985,3.942,3.18,3.319,2.9,5.629,4.917,7.533,7.718,7.676,11.294-1.195,20.707,5.768,35.15C960.732,277.72,963.9,281,962.483,283.208Z" fill="url(#linear-gradient-18)"/>
      <path id="Path_192492" data-name="Path 192492" d="M941.844,219.086a18.508,18.508,0,0,1-4.146,3.445c-1.942,1.063-6.221-.727-7.211-.937s.2,2.455,2.066,4.293,8.042,6.04,9.707,6.11-.268-1.388-1.29-3.086.418-5.209,1.709-6.291S941.844,219.086,941.844,219.086Z" fill="url(#linear-gradient-19)"/>
      <path id="Path_192493" data-name="Path 192493" d="M960.359,279.384a21.629,21.629,0,0,0,5.089-.945c1.914-.741,3.092.46,2.891,1.256s-3.343,1.8-4.584,1.8S960.359,279.384,960.359,279.384Z" fill="url(#linear-gradient-20)"/>
      <g id="Group_26883" data-name="Group 26883">
        <path id="Path_192494" data-name="Path 192494" d="M946.436,220.861c2.268-.172,4.559-2.965,4.1-4.184-.132-.348-.427-.4-4.866-1.135-2.205-.363-3.306-.513-4.068.1a2.9,2.9,0,0,0-.943,1.661,7.313,7.313,0,0,0-.007,1.65c.049.785.035.75.055.982a10.17,10.17,0,0,0,.744,2.893,7,7,0,0,1,.9-.835,6.249,6.249,0,0,1,1.375-.811A7.086,7.086,0,0,1,946.436,220.861Z" fill="url(#linear-gradient-21)"/>
        <path id="Path_192495" data-name="Path 192495" d="M940.618,221.312a3.844,3.844,0,0,0,2.146,3.123c1.83.853,4.26-2.969,3.592-4.429a2.544,2.544,0,0,0-1.622-1.18c-.418-.1-.623-.014-1.3-.185-.627-.159-.749-.305-.991-.256-.3.061-.689.406-.977,1.754-.151-.526-.484-.879-.845-.9a.68.68,0,0,0-.361.1C939.763,219.657,939.86,220.461,940.618,221.312Z" fill="url(#linear-gradient-22)"/>
      </g>
      <path id="Path_192496" data-name="Path 192496" d="M891.7,265.1c-3.065-1.5-9.682-5.35-11.717-12.438-3.387-11.8,8.66-23.055,14.879-27.266,7.13-4.828,14.295-5.608,18.65-6.082,5.4-.588,8.7-.947,11.176,1.082,6.4,5.245,2.555,22.553-3.786,24.335-2.075.583-2.861-.935-7.21-1.983-1.417-.341-11.988-2.888-17.485,2.7-3.848,3.913-4.339,10.928-1.623,17.485Z" fill="url(#linear-gradient-23)"/>
      <path id="Path_192497" data-name="Path 192497" d="M892.321,264.636l1.623-1.217a3.876,3.876,0,0,0,2.262.609,2.921,2.921,0,0,1,1.781.57c.2.215,1.148.733-.205.6s-1.57.241-1.381.917a8.89,8.89,0,0,0,1.891,2.975c.573.4-1.072.676-1.748.428A4.363,4.363,0,0,1,894,267.353C893.71,266.819,892.321,264.636,892.321,264.636Z" fill="url(#linear-gradient-24)"/>
      <g id="Group_26885" data-name="Group 26885">
        <path id="Path_192498" data-name="Path 192498" d="M1020.137,268.572l0-.005a2.681,2.681,0,0,0-.086-.257c-.008-.023-.018-.046-.027-.068-.028-.067-.059-.132-.092-.2-.012-.024-.024-.049-.037-.072a2.7,2.7,0,0,0-.152-.25L1016.484,263a2.853,2.853,0,0,0-2.336-1.239l-56.832.1a32.423,32.423,0,0,0-18.276-18.516l-.027-.011q-.324-.131-.651-.255l-.071-.026q-.333-.126-.669-.244l-.019-.007q-.7-.246-1.418-.462l-.1-.028c-.2-.059-.394-.115-.592-.17l-.158-.044c-.187-.05-.375-.1-.563-.147l-.147-.038q-.708-.176-1.425-.32l-.137-.027q-.283-.056-.568-.107l-.214-.037c-.169-.029-.338-.057-.508-.083l-.222-.034c-.185-.028-.371-.053-.557-.078l-.162-.022q-.36-.045-.723-.083l-.127-.012c-.2-.02-.395-.038-.593-.054-.08-.007-.16-.012-.241-.018-.163-.012-.328-.023-.492-.033l-.259-.015c-.168-.008-.337-.015-.506-.021l-.23-.009c-.243-.007-.487-.012-.732-.013-17.27-.115-30.749,13.312-29.888,29.989s15.718,29.953,32.967,29.654c.245,0,.488-.012.731-.021l.228-.011q.254-.012.5-.027l.257-.017c.164-.012.327-.025.49-.039l.237-.02c.2-.018.392-.039.587-.061l.126-.013q.358-.042.714-.091c.054-.007.107-.016.16-.024q.276-.039.549-.083l.217-.037c.168-.028.335-.058.5-.089.069-.012.139-.025.208-.039q.281-.054.559-.113l.131-.027q.7-.153,1.393-.336l.14-.038c.185-.05.368-.1.551-.155l.151-.044q.291-.087.579-.178l.089-.028q.695-.223,1.373-.478l.012-.005q.327-.123.65-.253l.063-.025c.211-.086.422-.174.631-.264l.02-.009a28.474,28.474,0,0,0,16.357-18.7l9.816-.088,1.74-1.317-1.893-1.636,4.861-.037.152,2.947,2.424-.022,1.739-1.317-1.891-1.627,2.79-.021.151,2.941,3.9-.035,1.739-1.318-1.811-.072,4.99-.042.072,1.388,2.211-.02-.139-2.693,5.915-.046.139,2.686,4.533-.04,1.74-1.318-1.89-1.6,4.827-.037.15,2.909,5.595-.05a2.6,2.6,0,0,0,1.753-.687l7.6-7.053A2.581,2.581,0,0,0,1020.137,268.572ZM908.1,270.88a5.885,5.885,0,0,1,6.058-6.106,6.58,6.58,0,0,1,6.653,6.038,5.884,5.884,0,0,1-6.026,6.107A6.58,6.58,0,0,1,908.1,270.88Z" fill="url(#linear-gradient-25)"/>
        <g id="Group_26884" data-name="Group 26884">
          <path id="Path_192499" data-name="Path 192499" d="M942.119,278.207l27.657-.246-.153-2.953,4.861-.038.152,2.947,2.423-.021-.152-2.944,2.791-.022.151,2.941,3.9-.035-.071-1.39,4.99-.041.071,1.387,2.212-.02-.139-2.693,5.915-.046.138,2.687,4.534-.041-.151-2.914,4.828-.038.15,2.909,5.595-.049a2.6,2.6,0,0,0,1.753-.688l7.6-7.052a2.636,2.636,0,0,0,.312-3.441l-3.257-4.722a2.851,2.851,0,0,0-2.336-1.239l-68.943.123Z" fill="url(#linear-gradient-26)"/>
          <path id="Path_192500" data-name="Path 192500" d="M898.784,269.622c.861,16.678,15.718,29.952,32.967,29.654,17.013-.3,29.955-13.718,29.115-29.986s-15.16-29.545-32.194-29.658C911.4,239.518,897.923,252.944,898.784,269.622Zm23.766-.127a5.884,5.884,0,0,1-6.026,6.106,6.579,6.579,0,0,1-6.685-6.038,5.885,5.885,0,0,1,6.058-6.107A6.581,6.581,0,0,1,922.55,269.495Z" fill="url(#linear-gradient-27)"/>
          <path id="Path_192501" data-name="Path 192501" d="M928.672,239.632c-17.27-.114-30.749,13.312-29.888,29.99s15.718,29.952,32.967,29.654c13.846-.24,24.99-9.172,28.209-21.228l2.951-.026c-.268-3.711.708-5.561,1.836-6.551,3.163-2.78,7.625,1.033,16.633.078,7.507-.8,8.282-3.868,15.3-3.715,4.886.107,6.667,1.65,10.708,2.47a25.376,25.376,0,0,0,14.474-1.58,2.707,2.707,0,0,0-.38-2.318l-3.257-4.722a2.851,2.851,0,0,0-2.336-1.239l-56.832.1A32.762,32.762,0,0,0,928.672,239.632Zm-18.833,29.931a5.885,5.885,0,0,1,6.058-6.107,6.581,6.581,0,0,1,6.653,6.039,5.884,5.884,0,0,1-6.026,6.106A6.579,6.579,0,0,1,909.839,269.563Z" opacity="0.3" fill="url(#linear-gradient-28)" style="mix-blend-mode: multiply;isolation: isolate"/>
          <path id="Path_192502" data-name="Path 192502" d="M905.014,269.589c.691,13.371,12.588,24.041,26.435,23.834,13.694-.205,24.137-10.995,23.46-24.1s-12.227-23.778-25.935-23.837C915.114,245.426,904.324,256.217,905.014,269.589Zm17.536-.094a5.884,5.884,0,0,1-6.026,6.106,6.579,6.579,0,0,1-6.685-6.038,5.885,5.885,0,0,1,6.058-6.107A6.581,6.581,0,0,1,922.55,269.495Z" fill="url(#linear-gradient-29)"/>
        </g>
      </g>
    </g>
    <g id="Group_26888" data-name="Group 26888">
      <path id="Path_192503" data-name="Path 192503" d="M1052.771,468.231c.688,1.4.495,2.006.324,2.272-.5.778-1.711.043-4.867.417a5.3,5.3,0,0,1-1.958-.069c-.755-.178-1.645-.579-1.607-.782.014-.073.148-.1.2-.114.876-.187,6.358-1.869,6.358-1.869Z" fill="url(#linear-gradient-30)"/>
      <path id="Path_192504" data-name="Path 192504" d="M1053.192,465.146l-.489,3.137s-1.348.953-1.7-.2a16.228,16.228,0,0,1-.248-3.073Z" fill="url(#linear-gradient-31)"/>
      <path id="Path_192505" data-name="Path 192505" d="M1037.281,466.7l1.323,3.612,1.922-.306-.446-3.344Z" fill="url(#linear-gradient-32)"/>
      <path id="Path_192506" data-name="Path 192506" d="M1039.2,472.3c.93-1.1,1.761-1,1.929-1.762a1.555,1.555,0,0,0-.785-1.6,2.112,2.112,0,0,0-1.923.356c-1.439.936-1.047,2.4-2.4,3.034a3.624,3.624,0,0,0-1.163.69c-.193.182-.673.631-.561.941.13.358.986.346,1.8.334a3.552,3.552,0,0,0,1.934-.314C1038.679,473.568,1038.485,473.153,1039.2,472.3Z" fill="url(#linear-gradient-33)"/>
      <path id="Path_192507" data-name="Path 192507" d="M1063.478,390.109a103.485,103.485,0,0,1-2.589,18.6c-1.278,5.463-1.975,6.4-2.418,10.183-.965,8.24,1.671,9.479,1.959,18.823a56.829,56.829,0,0,1-3.742,21.549,58.982,58.982,0,0,1-2.807,6.412c-.963.8-2.4.457-3.917.114-.361-9.359-.872-18.171-1.233-27.53q-2.262-21.15-4.523-42.3Z" fill="url(#linear-gradient-34)"/>
      <path id="Path_192508" data-name="Path 192508" d="M1049.964,465.793c-.361-9.359-.872-18.171-1.233-27.53q-2.262-21.15-4.523-42.3l19.27-5.854c-.024.483-.058.949-.087,1.423-9.116,7.58-11,13.7-11,17.9,0,5.1,2.727,7.68,2.025,15.053-.5,5.272-2.11,6.168-2.211,10.933-.131,6.135,2.428,9.641,3.635,13.214,1.166,3.453,1.5,8.316-1.04,15.168-.329.706-.64,1.337-.917,1.879C1052.918,466.483,1051.48,466.136,1049.964,465.793Z" opacity="0.3" fill="url(#linear-gradient-34)" style="mix-blend-mode: multiply;isolation: isolate"/>
      <path id="Path_192509" data-name="Path 192509" d="M1052.034,396.9a109.468,109.468,0,0,0-9.1,17.813,26.343,26.343,0,0,0-2,7.962,25.077,25.077,0,0,0,1.038,9.251,48.377,48.377,0,0,1,2.238,9.279,51.171,51.171,0,0,1-3.474,26.17l-3.428,1.187a187.552,187.552,0,0,1-7.329-30.111c-1.086-6.89-1.913-12.292-1.775-19.13a80.294,80.294,0,0,1,7.608-32.1Z" fill="url(#linear-gradient-36)"/>
      <path id="Path_192510" data-name="Path 192510" d="M1050.752,334.418c-7.235,1.083-12.751,2.254-15.283,5.977-2.674,3.933,1.377,7.023,2.308,15.8,1.426,13.433-6.384,18.273-4.457,31.809a34.87,34.87,0,0,0,3.138,10.221,36.7,36.7,0,0,0,10.922,6.487c7.255,2.714,10.893,1.3,20.717,2.078,16.067,1.264,18.376,5.982,25.7,3.269,7.408-2.743,12.893-10.464,11.407-13.846-.89-2.025-3.861-.836-8.029-3.388-5.372-3.29-4.365-7.6-8.7-11.41-6.225-5.471-12.439-.214-17.762-4.97-5.385-4.811-5.8-16.238-3.318-22.982,1.618-4.406,1.75-9.231,2.978-13.761a2.933,2.933,0,0,0-.031-1.667c-.843-2.636-5.622-3.242-9.234-3.665A41.309,41.309,0,0,0,1050.752,334.418Z" fill="url(#linear-gradient-37)"/>
      <path id="Path_192511" data-name="Path 192511" d="M1093.067,404.957c-2.2-1.532-.9-5.714-4.149-8.018-3.018-2.139-5.464.521-9.947-.959-5.749-1.9-5.327-7.464-10.835-9.361-3.961-1.365-5.219,1.155-10.974,1.142a22.876,22.876,0,0,1-17.859-8.735,20.485,20.485,0,0,1-3.6-7.979c-1.643,4.928-3.413,9.689-2.379,16.954a34.87,34.87,0,0,0,3.138,10.221,36.7,36.7,0,0,0,10.922,6.487c7.255,2.714,10.893,1.3,20.717,2.078,16.067,1.264,18.376,5.982,25.7,3.269a20.869,20.869,0,0,0,10.519-8.925C1097.863,405.62,1094.661,406.069,1093.067,404.957Z" opacity="0.3" fill="url(#linear-gradient-38)" style="mix-blend-mode: multiply;isolation: isolate"/>
      <path id="Path_192512" data-name="Path 192512" d="M1046.856,321.852s-2.067,3.686-2.248,6.3,2.776,2.487,2.776,2.487l-.147,1.648a3.577,3.577,0,0,1-2.4,3.069l-1.176.4s7.572,1.792,11.788-1.053l-1.194-.143a3.58,3.58,0,0,1-3.143-3.267l-.056-.708S1052.549,322.46,1046.856,321.852Z" fill="url(#linear-gradient-39)"/>
      <g id="Group_26887" data-name="Group 26887">
        <path id="Path_192513" data-name="Path 192513" d="M1034.761,363.191l-9.406-20.993a.645.645,0,0,0-.67-.377l-16.447,2.074a.646.646,0,0,0-.5.924l11.09,22.683a.646.646,0,0,0,.735.343l14.643-3.621Z" fill="url(#linear-gradient-40)"/>
        <path id="Path_192514" data-name="Path 192514" d="M1032.173,360.649l-7.616-17a.522.522,0,0,0-.542-.3l-13.317,1.679a.522.522,0,0,0-.4.748l8.979,18.367a.521.521,0,0,0,.595.277l11.856-2.931Z" fill="#fff"/>
        <path id="Path_192515" data-name="Path 192515" d="M1021.8,343.548l-.6-1.362a.472.472,0,0,0-.487-.278l-6.843.805a.472.472,0,0,0-.375.664l.674,1.484a.471.471,0,0,0,.494.272l6.773-.925A.473.473,0,0,0,1021.8,343.548Z" fill="url(#linear-gradient-41)"/>
        <path id="Path_192516" data-name="Path 192516" d="M1012.461,348.144l.032,0,12.062-1.548a.273.273,0,0,0,.236-.3.277.277,0,0,0-.305-.236l-12.062,1.548a.272.272,0,0,0,.037.542Z" fill="#d8dee8"/>
        <path id="Path_192517" data-name="Path 192517" d="M1013.08,349.362l.034,0,12-1.665a.273.273,0,0,0-.075-.54l-12,1.665a.272.272,0,0,0,.04.542Z" fill="#d8dee8"/>
        <path id="Path_192518" data-name="Path 192518" d="M1019.119,351.277a.184.184,0,0,0,.041,0l6.545-1.09a.272.272,0,1,0-.089-.537l-6.545,1.09a.272.272,0,0,0,.048.541Z" fill="#d8dee8"/>
      </g>
      <path id="Path_192519" data-name="Path 192519" d="M1016.115,361.95s-2.68-1.822-2.993-3.107a18.591,18.591,0,0,1-.234-3.7l1.563,3.406a1.835,1.835,0,0,0,1.08-1.339c.325-1.123.874-.094.652.754A24.955,24.955,0,0,0,1016.115,361.95Z" fill="url(#linear-gradient-42)"/>
      <path id="Path_192520" data-name="Path 192520" d="M1036.751,339.128a19.972,19.972,0,0,0-5.437,4.819c-5.367,6.948-3.275,14.35-7.715,16.968-1.269.749-3.5,1.357-7.522-.066l-1.543.82s-1.883,9.582,9.752,9.941,17.432-14.107,17.432-14.107Z" fill="url(#linear-gradient-43)"/>
      <path id="Path_192521" data-name="Path 192521" d="M1047.965,325.586c.394-.024.729-.516.995-.362s.232.887-.024,1.392a1.846,1.846,0,0,1-.729.75,4.837,4.837,0,0,1,.81,1.946c.315,1.9-.722,3.4-1.159,4.278-1.97,3.97.825,10.375,3.973,13.646,2.558,2.659,3.8,1.639,5.315,3.8,2.949,4.2-1.341,8.662.11,14.265,2.208,8.519,15.526,11.325,16.078,11.435.217.043.364.071.59.112,5.978,1.081,15.039,2.721,21.548-2.066,4.87-3.58,7.2-9.945,6.963-15.6a18.254,18.254,0,0,0-4.889-11.836c-.714-.746-4.939-5.154-10.773-5.331-3.09-.094-3.737.981-6.086.257-3.217-.991-5.147-3.976-6.344-5.827-2.2-3.406-1.263-4.1-2.864-5.789-3.137-3.3-6.953-.844-10.317-3.772-3.316-2.887-1.2-6.66-4.4-9.166-3.307-2.584-9.757-1.845-11.192,1.117C1044.333,321.378,1046.757,325.659,1047.965,325.586Z" fill="url(#linear-gradient-44)"/>
    </g>
  </g>
</svg>
