<svg xmlns="http://www.w3.org/2000/svg" xmlns:xlink="http://www.w3.org/1999/xlink" width="35.915" height="39.954" viewBox="0 0 35.915 39.954">
  <defs>
    <linearGradient id="linear-gradient" x1="0.5" y1="0.138" x2="0.5" y2="0.788" gradientUnits="objectBoundingBox">
      <stop offset="0" stop-color="#faab20"/>
      <stop offset="1" stop-color="#de158c"/>
    </linearGradient>
    <linearGradient id="linear-gradient-2" x1="0.5" y1="0.896" x2="0.5" y2="-0.134" xlink:href="#linear-gradient"/>
  </defs>
  <g id="Group_25938" data-name="Group 25938" transform="translate(-62.945 -37.236)">
    <path id="Path_182396" data-name="Path 182396" d="M71.9,37.236a1.88,1.88,0,0,1-1.791,1.959,1.71,1.71,0,0,1-1.266-.574,2.048,2.048,0,0,1-.525-1.385H64.735a1.88,1.88,0,0,1-1.79,1.959v9.742H77.2V39.195a1.714,1.714,0,0,1-1.249-.574,2.047,2.047,0,0,1-.524-1.385Z" fill="url(#linear-gradient)"/>
    <path id="Path_182397" data-name="Path 182397" d="M98.859,52.264V50.441a1.715,1.715,0,0,1-1.637-1.784h0l-2.919,0v1.582h-.948V48.655L62.951,48.64l-.006,14.306c0,8.6,7.959,14.234,13.052,14.234l17.359.009V75.745H94.3v1.444H97.21a1.858,1.858,0,0,1,.48-1.233,1.567,1.567,0,0,1,1.158-.522V73.692a1.716,1.716,0,0,1-1.636-1.784,1.86,1.86,0,0,1,.48-1.261,1.569,1.569,0,0,1,1.158-.522V68.3a1.713,1.713,0,0,1-1.636-1.757l-2.911,0V68.1h-.948v-1.56l-12.843-.007a3.155,3.155,0,0,1-2.331-1.054,3.015,3.015,0,0,1-.963-2.236l.009-3.9,16.128.007V57.879H94.3v1.477h2.914A1.86,1.86,0,0,1,97.7,58.1a1.565,1.565,0,0,1,1.157-.522V55.831a1.714,1.714,0,0,1-1.636-1.784,1.859,1.859,0,0,1,.48-1.26A1.568,1.568,0,0,1,98.859,52.264Zm-5.5,17.368H94.3v1.52h-.948Zm0,3.039H94.3v1.581h-.948ZM94.3,56.386h-.948V54.8H94.3Zm0-3.1h-.948v-1.52H94.3Z" fill="url(#linear-gradient-2)"/>
  </g>
</svg>
