<svg xmlns="http://www.w3.org/2000/svg" xmlns:xlink="http://www.w3.org/1999/xlink" width="50.432" height="62.47" viewBox="0 0 50.432 62.47">
  <defs>
    <linearGradient id="linear-gradient" y1="0.5" x2="1" y2="0.5" gradientUnits="objectBoundingBox">
      <stop offset="0" stop-color="#faab20"/>
      <stop offset="1" stop-color="#de158c"/>
    </linearGradient>
    <linearGradient id="linear-gradient-5" x1="0.433" y1="0.429" x2="0.236" y2="0.182" gradientUnits="objectBoundingBox">
      <stop offset="0" stop-color="#311944"/>
      <stop offset="1" stop-color="#893976"/>
    </linearGradient>
    <linearGradient id="linear-gradient-6" x1="0" y1="0.5" x2="1" y2="0.5" xlink:href="#linear-gradient"/>
    <linearGradient id="linear-gradient-7" x1="0" y1="0.5" x2="1" y2="0.5" xlink:href="#linear-gradient-5"/>
    <linearGradient id="linear-gradient-8" x1="-0.762" y1="-0.179" x2="1.751" y2="1.171" xlink:href="#linear-gradient"/>
  </defs>
  <g id="Group_33704" data-name="Group 33704" transform="translate(-2895.914 -635.05)">
    <g id="Group_33703" data-name="Group 33703" transform="translate(-15 -10)">
      <g id="Group_28741" data-name="Group 28741">
        <g id="Group_28740" data-name="Group 28740" transform="translate(-71 -1)">
          <g id="Group_28738" data-name="Group 28738">
            <path id="Path_209173" data-name="Path 209173" d="M3005.778,688.632h-4.267l5.844-32.034h4.267Z" fill="url(#linear-gradient)"/>
            <path id="Path_209174" data-name="Path 209174" d="M3022.442,688.632h-4.267l5.844-32.034h4.267Z" fill="url(#linear-gradient)"/>
            <path id="Path_209175" data-name="Path 209175" d="M3029.828,677.19l-.778,4.267h-32.034l.778-4.267Z" fill="url(#linear-gradient)"/>
            <path id="Path_209176" data-name="Path 209176" d="M3032.346,663.385l-.779,4.267h-32.034l.778-4.267Z" fill="url(#linear-gradient)"/>
          </g>
          <g id="Group_28739" data-name="Group 28739">
            <path id="Path_209177" data-name="Path 209177" d="M3004.519,688.632h-4.267L3006.1,656.6h4.267Z" fill="#fff"/>
            <path id="Path_209178" data-name="Path 209178" d="M3021.182,688.632h-4.267l5.844-32.034h4.267Z" fill="#fff"/>
            <path id="Path_209179" data-name="Path 209179" d="M3028.569,677.19l-.779,4.267h-32.034l.779-4.267Z" fill="#fff"/>
            <path id="Path_209180" data-name="Path 209180" d="M3031.087,663.385l-.779,4.267h-32.034l.779-4.267Z" fill="#fff"/>
          </g>
        </g>
      </g>
      <g id="Group_28768" data-name="Group 28768" transform="translate(-70 -2)">
        <g id="Group_28767" data-name="Group 28767">
          <path id="Path_209181" data-name="Path 209181" d="M2994.877,678.827a55.574,55.574,0,0,0,8.192-16.544l-.008,7.567s-4.973,8.328-6.7,10.184C2995.667,680.034,2994.877,679.723,2994.877,678.827Z" fill="#eb3d41"/>
          <g id="Group_28745" data-name="Group 28745">
            <path id="Path_209182" data-name="Path 209182" d="M2985.529,699.831l.675-1.3,1.7.65-.3,1.355S2986.115,700.936,2985.529,699.831Z" fill="#fdb487"/>
            <path id="Path_209183" data-name="Path 209183" d="M2987.612,700.537s-.114,2.668-.693,3.276-1.8,2.83-3.7,3.466-3.405-.709-1.214-2.972a37.964,37.964,0,0,0,3.529-4.476S2985.859,700.574,2987.612,700.537Z" fill="#fff"/>
            <g id="Group_28744" data-name="Group 28744">
              <g id="Group_28743" data-name="Group 28743">
                <g id="Group_28742" data-name="Group 28742">
                  <path id="Path_209184" data-name="Path 209184" d="M3003.4,681.171s-7.825,1.619-10.811,3.995-6.855,13.484-6.855,13.484c.3.885,1.113,1.212,2.233,1.216,0,0,5.075-5.266,6.908-11.1,0,0,10.609-.666,14.246-6.113C3009.344,682.321,3004.753,681.716,3003.4,681.171Z" fill="url(#linear-gradient-5)"/>
                </g>
              </g>
            </g>
          </g>
          <g id="Group_28756" data-name="Group 28756">
            <g id="Group_28746" data-name="Group 28746">
              <path id="Path_209185" data-name="Path 209185" d="M3006.661,649.477a2.656,2.656,0,1,0,.052-.341A2.738,2.738,0,0,0,3006.661,649.477Z" fill="#212121"/>
              <path id="Path_209186" data-name="Path 209186" d="M3006.661,649.477a2.654,2.654,0,0,0,3.736,2.648,4.319,4.319,0,0,0-3.684-2.989A2.738,2.738,0,0,0,3006.661,649.477Z" fill="url(#linear-gradient-6)"/>
            </g>
            <path id="Path_209187" data-name="Path 209187" d="M3000.6,655.659a11.677,11.677,0,0,0,.7,3.295c.615,1.294,1.029,1.5.931,2.852a1.839,1.839,0,0,0,.572-1.355c-.112-.692-1.258-2.481-.993-3.332S3000.954,655.329,3000.6,655.659Z" fill="#212121"/>
            <g id="Group_28747" data-name="Group 28747">
              <path id="Path_209188" data-name="Path 209188" d="M3007.94,658.96H3003.6a2.925,2.925,0,0,1-2.9-2.527q-.112-.814-.2-1.693a8.524,8.524,0,0,1,.291-2.525c.439-1.423,1.76-2.763,4.732-2.87,3.507-.128,5.437,2.951,5.35,6.713v.031A2.931,2.931,0,0,1,3007.94,658.96Z" fill="#212121"/>
            </g>
            <g id="Group_28755" data-name="Group 28755">
              <g id="Group_28748" data-name="Group 28748">
                <path id="Path_209189" data-name="Path 209189" d="M3005.32,660.146l.155.867.174.98.15.847a1.885,1.885,0,0,0,1.577.03,4.65,4.65,0,0,0,1.2-.667l-.006-.068-.026-.321-.176-2.164-.036-.454a1.579,1.579,0,0,0-1.147.133c-.442.168-.91.407-1.277.558C3005.56,660.031,3005.32,660.146,3005.32,660.146Z" fill="#fdb487"/>
              </g>
              <g id="Group_28749" data-name="Group 28749">
                <path id="Path_209190" data-name="Path 209190" d="M3005.321,660.146l.328,1.847c1.223-.442,2.066-2.312,2.066-2.312l-1.806.206C3005.559,660.031,3005.321,660.146,3005.321,660.146Z" fill="#f48568"/>
              </g>
              <g id="Group_28750" data-name="Group 28750">
                <path id="Path_209191" data-name="Path 209191" d="M3003.341,660.942a4.176,4.176,0,0,0,2.133.071,6.866,6.866,0,0,0,1.8-.677,9.64,9.64,0,0,0,1.093-.686c.244-.176.441-.335.58-.452s.232-.207.232-.207.03-.466.021-1.141a14.67,14.67,0,0,0-.238-2.556,3.151,3.151,0,0,0-1.306-2.339l-1.152.011-5.457.05s-.007.083-.015.23c-.018.321-.044.955-.025,1.727,0,.058,0,.116,0,.176C3001.084,657.295,3001.511,660.369,3003.341,660.942Z" fill="#fdb487"/>
              </g>
              <g id="Group_28753" data-name="Group 28753">
                <g id="Group_28752" data-name="Group 28752">
                  <g id="Group_28751" data-name="Group 28751">
                    <path id="Path_209192" data-name="Path 209192" d="M3008.05,655.963s.669-1.108,1.432-.5c.841.672.463,3.035-1.213,3.022Z" fill="#fdb487"/>
                  </g>
                </g>
              </g>
              <g id="Group_28754" data-name="Group 28754">
                <path id="Path_209193" data-name="Path 209193" d="M3001.034,653.246c.017.705,1.251,1.41,5.761,1.45,0,0,0,2.079.889,1.889.211-.045.42-1.247,1.28-1.3.24-1.968-.608-2.006-1.306-2.326l-6.609.061S3001.042,653.1,3001.034,653.246Z" fill="#212121"/>
              </g>
            </g>
            <path id="Path_209194" data-name="Path 209194" d="M3006.795,654.7a6.168,6.168,0,0,0,.461,3.16c.684,1.1,1.3,1.519.931,2.852a1.842,1.842,0,0,0,.573-1.355c-.113-.692-1.259-2.481-.994-3.332S3007.15,654.367,3006.795,654.7Z" fill="#212121"/>
          </g>
          <g id="Group_28760" data-name="Group 28760">
            <path id="Path_209195" data-name="Path 209195" d="M2989.509,702.093l.675-1.3,1.7.649-.3,1.355S2990.095,703.2,2989.509,702.093Z" fill="#fdb487"/>
            <path id="Path_209196" data-name="Path 209196" d="M2991.643,702.647s-.127,2.667-.709,3.273-1.812,2.821-3.723,3.447-3.4-.727-1.2-2.978a38.017,38.017,0,0,0,3.553-4.458S2989.89,702.675,2991.643,702.647Z" fill="#fff"/>
            <g id="Group_28759" data-name="Group 28759">
              <g id="Group_28758" data-name="Group 28758">
                <g id="Group_28757" data-name="Group 28757">
                  <path id="Path_209197" data-name="Path 209197" d="M3011.078,681.657s-12.14,2.506-15.075,4.944-6.273,14.374-6.273,14.374c.314.879,1.138,1.188,2.258,1.169a73.269,73.269,0,0,0,6.244-11.958s8.318-.69,12.134-2.178C3012.735,687.085,3013.946,683.241,3011.078,681.657Z" fill="url(#linear-gradient-7)"/>
                </g>
              </g>
            </g>
          </g>
          <g id="Group_28761" data-name="Group 28761">
            <path id="Path_209198" data-name="Path 209198" d="M3003.315,674.9a15.193,15.193,0,0,1-1.1,6.505c4.507,1.6,6.568,2.217,10.3,1.612.131-2.192.5-6.008.435-8.3a84.666,84.666,0,0,0-.967-11.218l-1.876-.725-1.922-.743-3.261.166-.686.035-1.167.06a24.236,24.236,0,0,1-1.181,6.184c-.84,2.323.123,2.789.65,3.342l.059.065a1.036,1.036,0,0,1,.179.274c.013.03.025.062.038.1.032.087.064.185.093.291A18.166,18.166,0,0,1,3003.315,674.9Z" fill="url(#linear-gradient-8)"/>
            <path id="Path_209199" data-name="Path 209199" d="M3004.922,662.188c.126,1.23.108,3.292,1.657,3.333,1.863.048,3.111-1.968,3.526-2.756l-1.922-.743Z" fill="#fdb487"/>
          </g>
          <g id="Group_28763" data-name="Group 28763">
            <g id="Group_28762" data-name="Group 28762">
              <path id="Path_209200" data-name="Path 209200" d="M2998.336,679.757c2.393-1.333,7.507-4.31,7.507-4.31s2.856-3.547,6.138-11.957c0,0,1.662,1.484.692,5.967s-5.114,8.625-5.114,8.625-5.592,2.78-8.072,2.964Z" fill="#eb3d41"/>
            </g>
          </g>
          <g id="Group_28766" data-name="Group 28766">
            <path id="Path_209201" data-name="Path 209201" d="M2988.5,684.679l17.042.094a1.2,1.2,0,0,0,1-.634h0a.413.413,0,0,0-.4-.643L2989.1,683.4a1.2,1.2,0,0,0-1,.634h0A.413.413,0,0,0,2988.5,684.679Z" fill="#fff"/>
            <g id="Group_28765" data-name="Group 28765">
              <g id="Group_28764" data-name="Group 28764">
                <path id="Path_209202" data-name="Path 209202" d="M2987.8,684.675l15.107.084-1.515-9.8-15.1-.038Z" fill="#e8e8e8"/>
                <path id="Path_209203" data-name="Path 209203" d="M2995.443,680.018a.929.929,0,1,1-.833-1.015A.928.928,0,0,1,2995.443,680.018Z" fill="#133248" opacity="0.5"/>
                <path id="Path_209204" data-name="Path 209204" d="M2988.737,684.677v0l15.107.084-1.5-9.753-.939,0,1.5,9.75Z" fill="#fff"/>
              </g>
            </g>
          </g>
        </g>
      </g>
    </g>
  </g>
</svg>
