<svg xmlns="http://www.w3.org/2000/svg" xmlns:xlink="http://www.w3.org/1999/xlink" width="276.484" height="271.544" viewBox="0 0 276.484 271.544">
  <defs>
    <linearGradient id="linear-gradient" x1="0.305" y1="0.034" x2="0.869" y2="1.949" gradientUnits="objectBoundingBox">
      <stop offset="0.004" stop-color="#e38ddd"/>
      <stop offset="1" stop-color="#9571f6"/>
    </linearGradient>
    <linearGradient id="linear-gradient-2" x1="0.389" y1="0.001" x2="0.781" y2="2.029" gradientUnits="objectBoundingBox">
      <stop offset="0" stop-color="#aa80f9"/>
      <stop offset="0.996" stop-color="#6165d7"/>
    </linearGradient>
    <linearGradient id="linear-gradient-3" x1="0.336" y1="0.051" x2="0.87" y2="1.864" xlink:href="#linear-gradient-2"/>
    <linearGradient id="linear-gradient-4" x1="0.426" y1="0.078" x2="0.755" y2="1.776" xlink:href="#linear-gradient"/>
    <clipPath id="clip-path">
      <path id="Path_182404" data-name="Path 182404" d="M910.088,372.266a15.452,15.452,0,0,0,7.1-1.6c6.6-4.953,19.556-13.425,21.3-21.97.3-1.459-5.767-4.506-6.315-6.065-3.4-2.881-4.752-3.67-6.635-7.995C919.99,321.869,944.353,307.177,924,294.3c-14.907-9.432-30.14-7.494-21.654-32.278s.737-76.139-30.625-65.638c-18,6.027-8.193,31.644-20.292,45.382-11.5,13.054-8.422,27.147,5.158,40.445s3.186,17.963-5.277,31.026c-10.165,15.692,15.452,25.786,27.677,29.438C888.833,345.614,911.915,359.743,910.088,372.266Z" fill="url(#linear-gradient)"/>
    </clipPath>
    <clipPath id="clip-path-2">
      <path id="Path_182411" data-name="Path 182411" d="M947.559,446.614a15.446,15.446,0,0,0,5.993-4.139c4.268-7.061,13.117-19.763,11.544-28.342-.269-1.465-7.034-2.023-8.125-3.264-4.227-1.4-5.78-1.627-9.143-4.934-9.929-9.764,7.173-32.5-16.517-36.835-17.353-3.174-30.756,4.32-32.153-21.84s-27.786-70.891-52.947-49.425c-14.44,12.32,4.233,32.412-1.851,49.677-5.781,16.407,2.34,28.328,19.907,35.583s9.671,15.469,6.707,30.749c-3.56,18.354,23.974,18.138,36.677,16.953C917.88,429.844,944.571,434.317,947.559,446.614Z" fill="url(#linear-gradient-2)"/>
    </clipPath>
    <clipPath id="clip-path-3">
      <path id="Path_182418" data-name="Path 182418" d="M1011.5,406.073a15.443,15.443,0,0,1-7.106-1.6c-6.6-4.953-19.556-13.425-21.3-21.97-.3-1.46,5.766-4.506,6.315-6.065,3.395-2.881,4.752-3.67,6.635-7.995,5.557-12.769-18.806-27.461,1.545-40.339,14.907-9.433,30.14-7.494,21.654-32.278s-.737-76.139,30.625-65.638c18,6.027,8.193,31.643,20.292,45.381,11.5,13.055,8.422,27.148-5.157,40.446s-3.186,17.963,5.276,31.026c10.165,15.691-15.452,25.786-27.676,29.438C1032.753,379.422,1009.671,393.551,1011.5,406.073Z" fill="url(#linear-gradient-3)"/>
    </clipPath>
    <clipPath id="clip-path-4">
      <path id="Path_182425" data-name="Path 182425" d="M990.654,443.265a15.437,15.437,0,0,1-5.993-4.138c-4.268-7.062-13.117-19.764-11.544-28.343.269-1.465,7.034-2.023,8.125-3.264,4.227-1.4,5.78-1.627,9.143-4.934,9.929-9.764-7.173-32.5,16.517-36.834,17.353-3.175,30.756,4.319,32.153-21.84s27.786-70.892,52.947-49.425c14.439,12.319-4.234,32.411,1.85,49.677,5.782,16.406-2.34,28.327-19.906,35.582s-9.671,15.469-6.708,30.749c3.56,18.354-23.973,18.138-36.676,16.954C1020.333,426.495,993.642,430.968,990.654,443.265Z" fill="url(#linear-gradient-4)"/>
    </clipPath>
    <linearGradient id="linear-gradient-9" y1="0.5" x2="1" y2="0.5" gradientUnits="objectBoundingBox">
      <stop offset="0" stop-color="#444b8c"/>
      <stop offset="0.996" stop-color="#26264f"/>
    </linearGradient>
    <linearGradient id="linear-gradient-10" x1="0.782" y1="0.329" x2="-0.104" y2="0.987" gradientUnits="objectBoundingBox">
      <stop offset="0" stop-color="#ffc444"/>
      <stop offset="0.996" stop-color="#f36f56"/>
    </linearGradient>
    <linearGradient id="linear-gradient-11" x1="0.416" y1="0.207" x2="0.655" y2="0.651" xlink:href="#linear-gradient-10"/>
    <linearGradient id="linear-gradient-12" x1="-213.101" y1="1.152" x2="-213.101" y2="-0.027" xlink:href="#linear-gradient-10"/>
    <linearGradient id="linear-gradient-13" x1="-222.951" y1="0.734" x2="-222.951" y2="-0.116" xlink:href="#linear-gradient-10"/>
    <linearGradient id="linear-gradient-14" x1="-29.631" y1="0.5" x2="-28.631" y2="0.5" gradientUnits="objectBoundingBox">
      <stop offset="0" stop-color="#311944"/>
      <stop offset="1" stop-color="#893976"/>
    </linearGradient>
    <linearGradient id="linear-gradient-15" x1="-29.663" y1="0.129" x2="-28.942" y2="0.731" xlink:href="#linear-gradient-14"/>
    <linearGradient id="linear-gradient-16" x1="-29.379" y1="0.047" x2="-28.659" y2="0.677" xlink:href="#linear-gradient-14"/>
    <linearGradient id="linear-gradient-17" y1="0.5" x2="1" y2="0.5" gradientUnits="objectBoundingBox">
      <stop offset="0" stop-color="#f9aa20"/>
      <stop offset="1" stop-color="#dd158b"/>
    </linearGradient>
    <linearGradient id="linear-gradient-18" x1="0.5" y1="-0.287" x2="0.5" y2="1.028" xlink:href="#linear-gradient-17"/>
    <linearGradient id="linear-gradient-19" x1="-108.915" y1="-1.342" x2="-108.371" y2="1.115" xlink:href="#linear-gradient"/>
    <linearGradient id="linear-gradient-20" x1="-135.464" y1="0.292" x2="-136.21" y2="1.155" xlink:href="#linear-gradient-10"/>
    <linearGradient id="linear-gradient-21" x1="-974.606" y1="-14.277" x2="-978.04" y2="-8.559" xlink:href="#linear-gradient-10"/>
    <linearGradient id="linear-gradient-22" x1="0.5" y1="0" x2="0.5" y2="2.439" xlink:href="#linear-gradient-17"/>
    <linearGradient id="linear-gradient-23" x1="0.053" y1="-0.577" x2="0.546" y2="0.805" gradientUnits="objectBoundingBox">
      <stop offset="0" stop-color="#fcb148"/>
      <stop offset="0.052" stop-color="#fdb946"/>
      <stop offset="0.142" stop-color="#fec144"/>
      <stop offset="0.318" stop-color="#ffc444"/>
      <stop offset="0.485" stop-color="#fdb946"/>
      <stop offset="0.775" stop-color="#f99c4c"/>
      <stop offset="0.866" stop-color="#f8924f"/>
      <stop offset="1" stop-color="#f8924f"/>
    </linearGradient>
    <linearGradient id="linear-gradient-24" x1="0" y1="0.5" x2="1" y2="0.5" xlink:href="#linear-gradient-14"/>
    <linearGradient id="linear-gradient-26" x1="-0.037" y1="0.497" x2="1.499" y2="0.505" xlink:href="#linear-gradient-17"/>
    <linearGradient id="linear-gradient-27" x1="-0.459" y1="-4.298" x2="1.051" y2="3.284" gradientUnits="objectBoundingBox">
      <stop offset="0" stop-color="#ff9085"/>
      <stop offset="1" stop-color="#fb6fbb"/>
    </linearGradient>
    <linearGradient id="linear-gradient-28" x1="0.211" y1="0.31" x2="2.342" y2="1.616" gradientUnits="objectBoundingBox">
      <stop offset="0" stop-color="#ab316d"/>
      <stop offset="1" stop-color="#792d3d"/>
    </linearGradient>
    <linearGradient id="linear-gradient-29" x1="-0.296" y1="0.228" x2="3.258" y2="1.642" xlink:href="#linear-gradient-28"/>
    <linearGradient id="linear-gradient-30" x1="0.104" y1="0.189" x2="0.776" y2="0.717" xlink:href="#linear-gradient-17"/>
  </defs>
  <g id="Layer_3" data-name="Layer 3" transform="translate(-840.591 -194.456)">
    <g id="Group_25977" data-name="Group 25977">
      <g id="Group_25945" data-name="Group 25945">
        <g id="Group_25944" data-name="Group 25944">
          <g id="Group_25943" data-name="Group 25943">
            <path id="Path_182398" data-name="Path 182398" d="M910.088,372.266a15.452,15.452,0,0,0,7.1-1.6c6.6-4.953,19.556-13.425,21.3-21.97.3-1.459-5.767-4.506-6.315-6.065-3.4-2.881-4.752-3.67-6.635-7.995C919.99,321.869,944.353,307.177,924,294.3c-14.907-9.432-30.14-7.494-21.654-32.278s.737-76.139-30.625-65.638c-18,6.027-8.193,31.644-20.292,45.382-11.5,13.054-8.422,27.147,5.158,40.445s3.186,17.963-5.277,31.026c-10.165,15.692,15.452,25.786,27.677,29.438C888.833,345.614,911.915,359.743,910.088,372.266Z" fill="url(#linear-gradient)"/>
            <g id="Group_25942" data-name="Group 25942" clip-path="url(#clip-path)">
              <g id="Group_25941" data-name="Group 25941" style="mix-blend-mode: soft-light;isolation: isolate">
                <g id="Group_25940" data-name="Group 25940">
                  <path id="Path_182399" data-name="Path 182399" d="M927.428,360.348l.261-.3c-46.364-40.187-63.86-103.527-46.8-169.433l-.386-.1c-8.083,31.235-8.381,63.109-.861,92.176A152.765,152.765,0,0,0,927.428,360.348Z" fill="#fcfdfe"/>
                  <path id="Path_182400" data-name="Path 182400" d="M846.339,319.273c16.755-.945,42.562,5.792,57.526,15.018l.209-.34c-15.023-9.261-40.933-16.024-57.757-15.075Z" fill="#fcfdfe"/>
                  <path id="Path_182401" data-name="Path 182401" d="M918.417,352.355l.334-.217c-4.976-7.664-5.886-17.55-2.7-29.382,2.333-8.676,6.77-18.176,13.188-28.239l-.336-.214c-6.44,10.1-10.893,19.635-13.236,28.35C912.45,334.6,913.377,344.592,918.417,352.355Z" fill="#fcfdfe"/>
                  <path id="Path_182402" data-name="Path 182402" d="M878.732,278.523l.345-.2c-8.636-14.929-25.033-22.681-37.268-26.554l-.12.38C853.856,256,870.16,263.7,878.732,278.523Z" fill="#fcfdfe"/>
                  <path id="Path_182403" data-name="Path 182403" d="M874.143,239.309l.391.074c3.638-19.086,18.813-32.712,27.535-39.136l-.236-.321C893.064,206.385,877.806,220.089,874.143,239.309Z" fill="#fcfdfe"/>
                </g>
              </g>
            </g>
          </g>
        </g>
      </g>
      <g id="Group_25951" data-name="Group 25951">
        <g id="Group_25950" data-name="Group 25950">
          <g id="Group_25949" data-name="Group 25949">
            <path id="Path_182405" data-name="Path 182405" d="M947.559,446.614a15.446,15.446,0,0,0,5.993-4.139c4.268-7.061,13.117-19.763,11.544-28.342-.269-1.465-7.034-2.023-8.125-3.264-4.227-1.4-5.78-1.627-9.143-4.934-9.929-9.764,7.173-32.5-16.517-36.835-17.353-3.174-30.756,4.32-32.153-21.84s-27.786-70.891-52.947-49.425c-14.44,12.32,4.233,32.412-1.851,49.677-5.781,16.407,2.34,28.328,19.907,35.583s9.671,15.469,6.707,30.749c-3.56,18.354,23.974,18.138,36.677,16.953C917.88,429.844,944.571,434.317,947.559,446.614Z" fill="url(#linear-gradient-2)"/>
            <g id="Group_25948" data-name="Group 25948" clip-path="url(#clip-path-2)">
              <g id="Group_25947" data-name="Group 25947" style="mix-blend-mode: soft-light;isolation: isolate">
                <g id="Group_25946" data-name="Group 25946">
                  <path id="Path_182406" data-name="Path 182406" d="M959.185,429.077l.129-.377c-58.027-19.935-97.938-72.138-106.762-139.642l-.4.052c4.182,31.992,15.824,61.665,33.668,85.812A152.767,152.767,0,0,0,959.185,429.077Z" fill="#fcfdfe"/>
                  <path id="Path_182407" data-name="Path 182407" d="M868.62,421.3c15.186-7.142,41.639-10.543,58.968-7.583l.067-.392c-17.4-2.973-43.956.443-59.205,7.614Z" fill="#fcfdfe"/>
                  <path id="Path_182408" data-name="Path 182408" d="M947.839,425.033l.228-.326c-7.48-5.248-12.021-14.076-13.494-26.239-1.081-8.919-.519-19.389,1.672-31.122l-.392-.073c-2.2,11.772-2.762,22.284-1.676,31.243C935.665,410.8,940.261,419.718,947.839,425.033Z" fill="#fcfdfe"/>
                  <path id="Path_182409" data-name="Path 182409" d="M883.425,371.4l.245-.314c-13.592-10.617-31.7-11.675-44.493-10.693l.03.4C851.933,359.809,869.934,360.857,883.425,371.4Z" fill="#fcfdfe"/>
                  <path id="Path_182410" data-name="Path 182410" d="M864.506,336.742l.391-.077c-3.763-19.062,5.216-37.374,10.9-46.593l-.339-.209C869.744,299.132,860.716,317.547,864.506,336.742Z" fill="#fcfdfe"/>
                </g>
              </g>
            </g>
          </g>
        </g>
      </g>
      <g id="Group_25957" data-name="Group 25957">
        <g id="Group_25956" data-name="Group 25956">
          <g id="Group_25955" data-name="Group 25955">
            <path id="Path_182412" data-name="Path 182412" d="M1011.5,406.073a15.443,15.443,0,0,1-7.106-1.6c-6.6-4.953-19.556-13.425-21.3-21.97-.3-1.46,5.766-4.506,6.315-6.065,3.395-2.881,4.752-3.67,6.635-7.995,5.557-12.769-18.806-27.461,1.545-40.339,14.907-9.433,30.14-7.494,21.654-32.278s-.737-76.139,30.625-65.638c18,6.027,8.193,31.643,20.292,45.381,11.5,13.055,8.422,27.148-5.157,40.446s-3.186,17.963,5.276,31.026c10.165,15.691-15.452,25.786-27.676,29.438C1032.753,379.422,1009.671,393.551,1011.5,406.073Z" fill="url(#linear-gradient-3)"/>
            <g id="Group_25954" data-name="Group 25954" clip-path="url(#clip-path-3)">
              <g id="Group_25953" data-name="Group 25953" style="mix-blend-mode: soft-light;isolation: isolate">
                <g id="Group_25952" data-name="Group 25952">
                  <path id="Path_182413" data-name="Path 182413" d="M994.158,394.156l-.261-.3c46.363-40.187,63.86-103.527,46.8-169.434l.386-.1c8.084,31.236,8.382,63.11.861,92.177A152.774,152.774,0,0,1,994.158,394.156Z" fill="#fcfdfe"/>
                  <path id="Path_182414" data-name="Path 182414" d="M1075.246,353.081c-16.755-.945-42.561,5.792-57.526,15.017l-.209-.339c15.024-9.261,40.934-16.024,57.758-15.076Z" fill="#fcfdfe"/>
                  <path id="Path_182415" data-name="Path 182415" d="M1003.169,386.163l-.334-.217c4.975-7.665,5.885-17.55,2.7-29.382-2.332-8.676-6.769-18.176-13.188-28.239l.336-.214c6.44,10.1,10.894,19.635,13.237,28.349C1009.136,368.406,1008.209,378.4,1003.169,386.163Z" fill="#fcfdfe"/>
                  <path id="Path_182416" data-name="Path 182416" d="M1042.853,312.331l-.344-.2c8.636-14.929,25.033-22.681,37.268-26.555l.12.38C1067.729,289.809,1051.426,297.512,1042.853,312.331Z" fill="#fcfdfe"/>
                  <path id="Path_182417" data-name="Path 182417" d="M1047.443,273.117l-.392.074c-3.637-19.086-18.813-32.712-27.535-39.136l.236-.321C1028.521,240.193,1043.78,253.9,1047.443,273.117Z" fill="#fcfdfe"/>
                </g>
              </g>
            </g>
          </g>
        </g>
      </g>
      <g id="Group_25963" data-name="Group 25963">
        <g id="Group_25962" data-name="Group 25962">
          <g id="Group_25961" data-name="Group 25961">
            <path id="Path_182419" data-name="Path 182419" d="M990.654,443.265a15.437,15.437,0,0,1-5.993-4.138c-4.268-7.062-13.117-19.764-11.544-28.343.269-1.465,7.034-2.023,8.125-3.264,4.227-1.4,5.78-1.627,9.143-4.934,9.929-9.764-7.173-32.5,16.517-36.834,17.353-3.175,30.756,4.319,32.153-21.84s27.786-70.892,52.947-49.425c14.439,12.319-4.234,32.411,1.85,49.677,5.782,16.406-2.34,28.327-19.906,35.582s-9.671,15.469-6.708,30.749c3.56,18.354-23.973,18.138-36.676,16.954C1020.333,426.495,993.642,430.968,990.654,443.265Z" fill="url(#linear-gradient-4)"/>
            <g id="Group_25960" data-name="Group 25960" clip-path="url(#clip-path-4)">
              <g id="Group_25959" data-name="Group 25959" style="mix-blend-mode: soft-light;isolation: isolate">
                <g id="Group_25958" data-name="Group 25958">
                  <path id="Path_182420" data-name="Path 182420" d="M979.028,425.728l-.129-.376c58.027-19.936,97.938-72.139,106.762-139.643l.4.052c-4.182,31.992-15.824,61.665-33.668,85.812A152.765,152.765,0,0,1,979.028,425.728Z" fill="#fcfdfe"/>
                  <path id="Path_182421" data-name="Path 182421" d="M1069.593,417.954c-15.186-7.141-41.639-10.543-58.968-7.582l-.067-.393c17.4-2.972,43.956.444,59.2,7.614Z" fill="#fcfdfe"/>
                  <path id="Path_182422" data-name="Path 182422" d="M990.374,421.685l-.229-.327c7.481-5.248,12.022-14.076,13.495-26.239,1.081-8.918.518-19.389-1.672-31.122l.392-.072c2.2,11.772,2.761,22.283,1.676,31.242C1002.548,407.447,997.951,416.369,990.374,421.685Z" fill="#fcfdfe"/>
                  <path id="Path_182423" data-name="Path 182423" d="M1054.788,368.047l-.246-.314c13.593-10.617,31.7-11.675,44.494-10.693l-.03.4C1086.28,356.461,1068.279,357.509,1054.788,368.047Z" fill="#fcfdfe"/>
                  <path id="Path_182424" data-name="Path 182424" d="M1073.707,333.394l-.391-.078c3.763-19.062-5.217-37.374-10.9-46.593l.339-.209C1068.469,295.783,1077.5,314.2,1073.707,333.394Z" fill="#fcfdfe"/>
                </g>
              </g>
            </g>
          </g>
        </g>
      </g>
      <g id="Group_25967" data-name="Group 25967">
        <g id="Group_25965" data-name="Group 25965">
          <path id="Path_182426" data-name="Path 182426" d="M1049.562,227.4,879.871,217.047c-3.908-.2-7.427,4.295-7.427,8.07V455.463c0,5.235,5.074,6.289,8.982,5.868l168.136-18.1a6.615,6.615,0,0,0,5.551-6.619V233.7A6.171,6.171,0,0,0,1049.562,227.4Z" fill="#97a6b7"/>
          <path id="Path_182427" data-name="Path 182427" d="M1052.353,225.566l-170.026-8.818a6.579,6.579,0,0,0-7.092,6.522V455.415a6.16,6.16,0,0,0,7.092,6.119l170.026-18.448a6.65,6.65,0,0,0,5.551-6.67V231.922A6.2,6.2,0,0,0,1052.353,225.566Z" fill="#d8dee8"/>
          <path id="Path_182428" data-name="Path 182428" d="M882.327,458.386a3.335,3.335,0,0,1-3.828-3.311V223.424a3.562,3.562,0,0,1,3.828-3.527l170.026,8.466a3.358,3.358,0,0,1,3.008,3.438V436.68a3.6,3.6,0,0,1-3.008,3.609Z" fill="#fff" opacity="0.74"/>
          <path id="Path_182429" data-name="Path 182429" d="M1041.394,434.795,895.97,449.565V235.847l145.424,5.774Z" fill="#fff"/>
          <path id="Path_182430" data-name="Path 182430" d="M983.229,242.666l-58.119.767,1.3-13.817a3.684,3.684,0,0,1,2.951-3.532l9.843-1.594a3.573,3.573,0,0,0,2.663-2.155l1.067-2.443,25.745,1.675Z" fill="#97a6b7" opacity="0.3" style="mix-blend-mode: multiply;isolation: isolate"/>
          <path id="Path_182431" data-name="Path 182431" d="M1014.265,233.7a3.169,3.169,0,0,0-2.961-2.732l-9.286-.438c-4.216-.2-7.306-3.81-7.151-8.382l.358-10.6a3.376,3.376,0,0,0-3.085-3.644l-3.051-.192a4.031,4.031,0,0,1-3.55-4.809c.57-4.369-2.269-8.14-6.385-8.436-4.148-.3-8.02,3.043-8.637,7.468a5.091,5.091,0,0,1-.646,1.887,4.714,4.714,0,0,1-4.282,2.41l-3.148-.2a4.206,4.206,0,0,0-4.2,3.276l-2.617,10.756a10.079,10.079,0,0,1-9.935,7.8L935.5,227.39a4.4,4.4,0,0,0-4.074,2.553l-6.139,12.841a1.487,1.487,0,0,0,1.212,2.226l88.345,3.094a1.7,1.7,0,0,0,1.609-1.993ZM977.9,203.645a2.108,2.108,0,0,1-1.885-2.491,2.486,2.486,0,0,1,2.524-2.2,2.107,2.107,0,0,1,1.878,2.49A2.489,2.489,0,0,1,977.9,203.645Z" fill="url(#linear-gradient-9)"/>
          <path id="Path_182432" data-name="Path 182432" d="M1014.789,233.99a3.169,3.169,0,0,0-2.961-2.731l-9.287-.439c-4.215-.2-7.3-3.809-7.151-8.382l.359-10.6a3.377,3.377,0,0,0-3.086-3.645l-3.051-.192a4.031,4.031,0,0,1-3.55-4.809c.571-4.369-2.269-8.14-6.385-8.436-4.148-.3-8.019,3.043-8.637,7.468a5.1,5.1,0,0,1-.645,1.888,4.715,4.715,0,0,1-4.283,2.409l-3.147-.2a4.206,4.206,0,0,0-4.2,3.276l-2.617,10.756a10.079,10.079,0,0,1-9.935,7.8l-10.187-.481a4.4,4.4,0,0,0-4.074,2.553l-6.139,12.842a1.487,1.487,0,0,0,1.212,2.226l88.345,3.093a1.7,1.7,0,0,0,1.61-1.992Zm-36.364-30.058a2.107,2.107,0,0,1-1.885-2.491,2.487,2.487,0,0,1,2.525-2.195,2.106,2.106,0,0,1,1.877,2.49A2.488,2.488,0,0,1,978.425,203.932Z" fill="#97a6b7"/>
          <g id="Group_25964" data-name="Group 25964">
            <path id="Path_182433" data-name="Path 182433" d="M999.669,239.891c-7.88-5.129-13.927-1.492-18.838-7.277-5.258-6.192-1.712-14.343-7.152-18.19-3.483-2.463-6.59-.29-10.641-.957a10.863,10.863,0,0,1-4.71-2.077l-2.183,8.97a10.079,10.079,0,0,1-9.935,7.8l-10.187-.481a4.4,4.4,0,0,0-4.074,2.554l-6.139,12.841a1.487,1.487,0,0,0,1.212,2.226l80.288,2.811A24.671,24.671,0,0,0,999.669,239.891Z" fill="#fff" opacity="0.5" style="mix-blend-mode: soft-light;isolation: isolate"/>
          </g>
        </g>
        <g id="Group_25966" data-name="Group 25966">
          <path id="Path_182434" data-name="Path 182434" d="M960.957,269.169l-51.446-2.476V256.34l51.446,2.824Z" fill="#d8dee8"/>
          <path id="Path_182435" data-name="Path 182435" d="M1032.084,280.877l-54.9-2.329v-9.9l54.9,2.7Z" fill="#d8dee8"/>
          <path id="Path_182436" data-name="Path 182436" d="M1032.084,294.706l-54.9-1.789v-9.9l54.9,2.161Z" fill="#d8dee8"/>
          <path id="Path_182437" data-name="Path 182437" d="M959.922,326.286l-49.72-.476v-5.675l49.72.66Z" fill="#d8dee8"/>
          <path id="Path_182438" data-name="Path 182438" d="M1032.084,335.579,910.2,335.156v-5.675l121.882.874Z" fill="#d8dee8"/>
          <path id="Path_182439" data-name="Path 182439" d="M977.185,343.69l-66.984.145V338.16l66.984.1Z" fill="#d8dee8"/>
          <path id="Path_182440" data-name="Path 182440" d="M949.563,357.41l-39.361.443v-5.675l39.361-.3Z" fill="#d8dee8"/>
          <path id="Path_182441" data-name="Path 182441" d="M1032.084,417.94,910.2,424.613v-38.72l121.882-3.6Z" fill="#d8dee8"/>
        </g>
      </g>
      <g id="Group_25971" data-name="Group 25971">
        <g id="Group_25970" data-name="Group 25970">
          <path id="Path_182442" data-name="Path 182442" d="M1003.9,297.741a7.552,7.552,0,0,0,1.226-3.867c.094-3.587-2.566-6.385-2.924-6.224-.193.086.052,1.137.189,1.6.285.97.591,1.063.566,1.509-.053.917-1.377.952-2.075,2.169a3.282,3.282,0,0,0,0,3.113A3.708,3.708,0,0,0,1003.9,297.741Z" fill="url(#linear-gradient-10)"/>
          <path id="Path_182443" data-name="Path 182443" d="M1060.738,375.658l-1.023-3.519,4.269-3.164,2.661-1-1.576,4.924Z" fill="url(#linear-gradient-11)"/>
          <path id="Path_182444" data-name="Path 182444" d="M1055.453,446.533s2.335,5.875,1.72,8.481a26.18,26.18,0,0,0,4.13-.369,28.356,28.356,0,0,1-1.2-4.007,39.366,39.366,0,0,1-.246-4.7Z" fill="url(#linear-gradient-12)"/>
          <path id="Path_182445" data-name="Path 182445" d="M1029.711,460.274a1.84,1.84,0,0,1,.441,1.079,1.766,1.766,0,0,1-.132.723c-.4,1.048-1.024,1.186-1.7,2.3-.412.68-.334.884-.712,1.191a2.475,2.475,0,0,1-1.622.433,28.606,28.606,0,0,1-3.752-.212q1.257-1.62,2.677-3.285.624-.729,1.245-1.424l2.464-.832Z" fill="#26264f"/>
          <path id="Path_182446" data-name="Path 182446" d="M1027.661,448.311s-1.408,7.349.384,9.407c1.527,2.058-.737.59-.737.59l-2.7,2.359-1.622,2.8s1.493-7.193,1.1-10.048-.6-4.78-.6-4.78Z" fill="url(#linear-gradient-13)"/>
          <path id="Path_182447" data-name="Path 182447" d="M1022.351,367.921s-3.784,3.385-3.784,17.326,1.792,44.211,1.792,44.211l2.868,21.672a18.952,18.952,0,0,0,4.966-.492c1.792-8.165,4.713-21.977,3.319-33.528-.6-12.546,4.978-28.279,4.978-28.279s4.78,15.932,8.165,23.9,9.832,32.922,10.429,34.714c3.962.359,5.654-.688,5.654-.688s-2.54-26.856-4.93-37.013-2.191-34.652-6.174-41.622C1040.672,364.535,1022.351,367.921,1022.351,367.921Z" fill="url(#linear-gradient-14)"/>
          <path id="Path_182448" data-name="Path 182448" d="M1022.351,367.921s-3.784,3.385-3.784,17.326,1.792,44.211,1.792,44.211l2.868,21.672a18.952,18.952,0,0,0,4.966-.492c1.792-8.165,4.713-21.977,3.319-33.528-.6-12.546,4.978-28.279,4.978-28.279s4.78,15.932,8.165,23.9,9.832,32.922,10.429,34.714c3.962.359,5.654-.688,5.654-.688s-2.541-26.856-4.93-37.013-2.191-34.652-6.174-41.622C1040.673,364.535,1022.351,367.921,1022.351,367.921Z" fill="url(#linear-gradient-15)"/>
          <path id="Path_182449" data-name="Path 182449" d="M1042.007,393.464c1.18,7.669,3.54,11.8,9.439,17.108,4.72,3.539,1.18,11.209,2.95,17.108.59,1.77,2.36,3.54,2.95,5.309,2.2,4.391.144,9.762,1.14,14.41a6.334,6.334,0,0,0,2.252-.644s-2.541-26.856-4.93-37.013-2.191-34.652-6.174-41.622c-8.961-3.585-27.283-.2-27.283-.2s-3.784,3.385-3.784,17.326c0,1.131.012,2.371.034,3.692,3.928,3.476,11.962,4.249,16.917.4a2.346,2.346,0,0,1,.947-.429l.025-.074.021.069C1038.766,388.489,1041.495,391.417,1042.007,393.464Z" opacity="0.25" fill="url(#linear-gradient-16)" style="mix-blend-mode: multiply;isolation: isolate"/>
          <g id="Group_25968" data-name="Group 25968">
            <path id="Path_182450" data-name="Path 182450" d="M1056.559,457.243s-.582,0-.533.752-.262,3.338,2.7,3.459,3.415-.209,3.512-.209a24.217,24.217,0,0,0-.776-2.474l-.946-1.213-2.546-.266Z" fill="#26264f"/>
            <path id="Path_182451" data-name="Path 182451" d="M1063.119,459.839a9.381,9.381,0,0,0-.764-2.4c-.522-1.175-.093-1.614-.593-2.685a3.18,3.18,0,0,0-.7-1.069,3.059,3.059,0,0,0-2.089-.8,2.139,2.139,0,0,0-.984.231,2.3,2.3,0,0,0-.884.934,10.342,10.342,0,0,0-.713,2.114,5.29,5.29,0,0,0-.186.719,5.124,5.124,0,0,0-.078.646c.776,0,3.759.121,4.389.582a2.471,2.471,0,0,1,.946,2.013c0,.776.388,1.14.776,1.116A1.275,1.275,0,0,0,1063.119,459.839Z" fill="#444b8c"/>
          </g>
          <path id="Path_182452" data-name="Path 182452" d="M1027.283,456.685c.667.011,1.156.541,1.524,1.819s2.139,2.409.074,2.139-3.564,2.654-4.3,3.736-2.717,2.043-2.667.986.922-1.551,1.168-2.633S1025.763,456.661,1027.283,456.685Z" fill="#444b8c"/>
          <path id="Path_182453" data-name="Path 182453" d="M1062.305,369.6c.49-1.362,3.548-10.311-1.4-18.471a21.987,21.987,0,0,0-12.046-9.155c-6.077-1.795-9.122.511-11.04-1.611-3.253-3.6.432-15.866,7.561-18.323,8.037-2.769,17.677,7.879,21.584,14.873a32.255,32.255,0,0,1,3.567,20.174,31.487,31.487,0,0,1-3.89,10.89Z" fill="url(#linear-gradient-17)"/>
          <path id="Path_182454" data-name="Path 182454" d="M1041.319,320.311c-7.173-.287-12.7-.173-15.83,2.95-3.3,3.3.035,7.022-.682,15.65-1.1,13.209-9.515,16.437-10.148,29.838a34.247,34.247,0,0,0,1.144,10.428,36.023,36.023,0,0,0,9.333,8.262c6.494,3.951,10.259,3.262,19.585,5.814,15.253,4.175,16.611,9.146,24.174,7.88,7.644-1.28,14.351-7.713,13.541-11.246-.485-2.115-3.567-1.516-7.115-4.743-4.572-4.159-2.809-8.128-6.285-12.6-4.994-6.419-11.951-2.495-16.206-8.058-4.3-5.628-2.6-16.717,1.031-22.762,2.37-3.948,3.385-8.575,5.4-12.714a2.877,2.877,0,0,0,.276-1.613c-.327-2.7-4.821-4.159-8.225-5.231A40.589,40.589,0,0,0,1041.319,320.311Z" fill="url(#linear-gradient-18)"/>
          <path id="Path_182455" data-name="Path 182455" d="M1035.277,320.015l1.415-.436s.37,1.916,4.918,2.155a6.8,6.8,0,0,0,4.158-1.415l.966.7a7.435,7.435,0,0,1-5.494,2.582A6.766,6.766,0,0,1,1035.277,320.015Z" fill="url(#linear-gradient-19)"/>
          <g id="Group_25969" data-name="Group 25969">
            <path id="Path_182456" data-name="Path 182456" d="M1038.158,314.188a6.062,6.062,0,0,1,2.3-3.74c1.519-1.207,1.829-1.329,2.351-1.428l.712-.108.078,0a7.115,7.115,0,0,1,1.895.673c.726.511.191,4.128-2.01,8.626q-.131.572-.26,1.143c1.919.337,2.394.683,2.409.959.033.6-2.068,1.363-4.015,1.413-2.442.062-5.035-.989-4.985-1.773.02-.317.481-.708,2.254-1.093l.831-1.168C1039.464,317.39,1037.957,315.738,1038.158,314.188Z" fill="url(#linear-gradient-20)"/>
            <path id="Path_182457" data-name="Path 182457" d="M1041.176,313.4c.554-.331.976.381.715,1a1.23,1.23,0,0,1-1.669.641C1039.69,314.67,1040.431,313.842,1041.176,313.4Z" fill="url(#linear-gradient-21)"/>
            <path id="Path_182458" data-name="Path 182458" d="M1112.96,313.386c-7.29-7.911-24.252-5.742-33.661.612-4.371,2.952-6.615,6.439-11.781,6.732-3.927.222-10.174-1.254-13.464-5.508-.415-.536-2.072-2.784-4.562-5.618-1.1-1.25-2.189-2.423-3.881-2.688a3.274,3.274,0,0,0-2.8.624,3.311,3.311,0,0,0-.728,2.986c.136.561.311.62.286.987-.07,1.031-1.949,1.481-1.844,2,.075.371,1.052.235,1.221.7.184.511-.889.95-1.351,2.234-.864.578-1.41,2.018-1.6,3.945a17.559,17.559,0,0,0,.543,6.866c2.584,8.344,4.432,14.312,8.905,17.645,5.921,4.413,11.253.339,26.316-.306,20.626-.882,25.769,6.109,33.182,1.326C1116.994,339.952,1120.529,321.6,1112.96,313.386Z"/>
          </g>
          <path id="Path_182459" data-name="Path 182459" d="M1004.774,297.239c-.184,1.725-.806,9.36,4.46,15.806a21.806,21.806,0,0,0,13.185,7.422c6.265.947,8.967-1.754,11.156.086,3.716,3.122,1.742,15.776-4.985,19.185-7.582,3.842-18.588-5.389-23.414-11.783a32.248,32.248,0,0,1-6.292-19.5,31.474,31.474,0,0,1,2.365-11.319,5.591,5.591,0,0,1,3.525.1Z" fill="url(#linear-gradient-22)"/>
          <path id="Path_182460" data-name="Path 182460" d="M1069.125,396.084c-1.835-1.881.185-5.673-2.525-8.492-2.514-2.616-5.361-.5-9.41-2.754-5.192-2.888-3.761-8.174-8.721-11.016-3.566-2.044-5.242.153-10.786-.918a22.451,22.451,0,0,1-15.607-11.7,20.112,20.112,0,0,1-2.005-8.353c-2.49,4.448-5.072,8.71-5.412,15.9a34.247,34.247,0,0,0,1.144,10.428,36.023,36.023,0,0,0,9.333,8.262c6.494,3.951,10.259,3.262,19.585,5.814,15.253,4.175,16.611,9.146,24.174,7.88a20.476,20.476,0,0,0,11.78-6.666C1073.625,397.605,1070.456,397.448,1069.125,396.084Z" opacity="0.3" fill="url(#linear-gradient-23)" style="mix-blend-mode: multiply;isolation: isolate"/>
        </g>
      </g>
      <g id="Group_25973" data-name="Group 25973">
        <path id="Path_182461" data-name="Path 182461" d="M1089.157,280.4l-81.424,2.856a5.737,5.737,0,0,1-5.614-5.817l-.005-39.462a5.59,5.59,0,0,1,5.616-5.7l81.254,2.566a5.492,5.492,0,0,1,5.1,5.658l-.045,37.538C1094.036,281.086,1091.969,280.391,1089.157,280.4Z" fill="url(#linear-gradient-24)"/>
        <path id="Path_182462" data-name="Path 182462" d="M1066.582,278.255l.035,15.312,1.5.679,10.754-15.46Z" fill="url(#linear-gradient-24)"/>
        <path id="Path_182463" data-name="Path 182463" d="M1090.561,283.644l-81.532-.316a5.759,5.759,0,0,1-5.632-5.845l0-39.647a5.614,5.614,0,0,1,5.636-5.728l81.589,2.564a5.517,5.517,0,0,1,5.121,5.685l-.047,37.723A5.38,5.38,0,0,1,1090.561,283.644Z" fill="url(#linear-gradient-26)"/>
        <path id="Path_182464" data-name="Path 182464" d="M1068.128,278.153l-.013,16.092,12.348-15.562Z" fill="url(#linear-gradient-27)"/>
        <g id="Group_25972" data-name="Group 25972">
          <path id="Path_182465" data-name="Path 182465" d="M1071.733,244.779l-39.344-1.59a2.4,2.4,0,0,0-1.749.637,2.292,2.292,0,0,0-.744,1.674l-.276,24.746a3.035,3.035,0,0,0,.954,2.25,3.177,3.177,0,0,0,2.167.886c.046,0,.091,0,.137,0l38.623-.343a3.011,3.011,0,0,0,2.923-2.984l.264-22.159A3.1,3.1,0,0,0,1071.733,244.779Zm.163,3.654-14.03,12.168a4.828,4.828,0,0,1-3.27,1.187,4.943,4.943,0,0,1-2.809-.947L1033.216,247.4a.681.681,0,0,1-.158-.961.708.708,0,0,1,.98-.137l18.551,13.453a3.51,3.51,0,0,0,4.377-.169l14.047-12.168a.675.675,0,0,1,.883,1.02Z" fill="#fff"/>
        </g>
      </g>
      <g id="Group_25976" data-name="Group 25976">
        <g id="Group_25975" data-name="Group 25975">
          <g id="Group_25974" data-name="Group 25974">
            <path id="Path_182466" data-name="Path 182466" d="M928.936,438.875a7.52,7.52,0,0,0,6.788-13.369c-.176-.09-.357-.165-.538-.237a43.261,43.261,0,0,0,1.432-6.162c.2,0,.391,0,.591-.021a7.845,7.845,0,0,0,6.9-7.984,6.644,6.644,0,0,0-7.191-6.729c-.2.018-.4.05-.6.086a39.506,39.506,0,0,0-1.666-5.884c.179-.105.357-.213.531-.335a7.843,7.843,0,0,0,2.377-10.278,6.643,6.643,0,0,0-9.676-1.835c-.17.119-.33.248-.489.379a35.1,35.1,0,0,0-4.316-4.029c.11-.18.217-.362.314-.553,1.875-3.692,4.324-7.725.888-9.4-7.949-3.881-11.361-.559-13.235,3.133-.1.191-.181.386-.261.58a35.185,35.185,0,0,0-5.8-1.107c.012-.2.022-.411.018-.619-.082-4.063,1.124-6.261-2.781-6.337-8.515-.166-11.387,3.53-11.306,7.593,0,.212.022.42.043.626a39.636,39.636,0,0,0-5.733,2.127c-.089-.181-.181-.361-.286-.536a6.642,6.642,0,0,0-9.675-1.835,7.846,7.846,0,0,0-2.377,10.279c.1.171.216.331.331.49a43.069,43.069,0,0,0-4.129,4.791c-.165-.1-.332-.2-.509-.294a7.52,7.52,0,0,0-6.788,13.369c.177.09.357.165.538.237a43.279,43.279,0,0,0-1.432,6.161c-.2,0-.391,0-.59.022a7.844,7.844,0,0,0-6.9,7.984,6.644,6.644,0,0,0,7.191,6.729c.2-.019.4-.05.6-.086a39.667,39.667,0,0,0,1.666,5.884c-.179.1-.357.213-.531.335a7.844,7.844,0,0,0-2.377,10.278c2.016,3.345,8.689,4.9,12.017,2.568.17-.12-2.01-.981-1.852-1.112a35.254,35.254,0,0,0,4.316,4.029c-.109.179-.217.362-.314.553a6.946,6.946,0,1,0,12.347,6.269c.1-.191.181-.386.261-.58a35.186,35.186,0,0,0,5.8,1.107c-.012.2-.022.411-.018.619a6.643,6.643,0,0,0,7.191,6.728,7.843,7.843,0,0,0,6.9-7.984c0-.212-.022-.42-.043-.626a39.588,39.588,0,0,0,5.733-2.127c.089.181.181.361.286.536a6.644,6.644,0,0,0,9.676,1.835,7.844,7.844,0,0,0,2.376-10.279c-.1-.171-.216-.332-.331-.49a43.158,43.158,0,0,0,4.129-4.791C928.592,438.684,928.76,438.786,928.936,438.875Zm-42.5.54c-12.379-6.286-16.9-22.247-10.092-35.652s22.358-19.175,34.737-12.89,16.9,22.247,10.092,35.651S898.812,445.7,886.433,439.415Z" fill="url(#linear-gradient-28)"/>
            <path id="Path_182467" data-name="Path 182467" d="M937.209,419.086a7.845,7.845,0,0,0,6.9-7.984,6.644,6.644,0,0,0-7.191-6.729c-.2.018-.4.05-.6.086a39.506,39.506,0,0,0-1.666-5.884c.179-.105.357-.213.531-.335,3.328-2.332,7.446-7.965,5.1-11.086-4.457-5.923-9.068-3.359-12.4-1.027-.17.119-.33.248-.489.379a35.1,35.1,0,0,0-4.316-4.029c.11-.18.217-.362.314-.553a7.746,7.746,0,0,0,.436-6.108q-4.821,8.487-9.5,17.052c9.876,7.237,13.02,21.5,6.847,33.656-5.231,10.3-15.629,16.089-25.783,15.364-.452,1.175-.9,2.356-1.382,3.519-1.316,3.157-2.811,6.248-4.309,9.336q1.413.267,2.836.417c-.012.2-.022.411-.018.619.082,4.063,2.549,7.514,9.6,7.141,3.9-.207,4.57-4.334,4.488-8.4,0-.212-.022-.42-.043-.626a39.588,39.588,0,0,0,5.733-2.127c.089.181.181.361.286.536,2.016,3.345,9.008,4.766,12.336,2.434s1.732-7.533-.284-10.878c-.1-.171-.216-.332-.331-.49a43.158,43.158,0,0,0,4.129-4.791c.165.1.333.205.509.294a7.52,7.52,0,0,0,6.788-13.369c-.176-.09-.357-.165-.538-.237a43.261,43.261,0,0,0,1.432-6.162C936.813,419.107,937.009,419.1,937.209,419.086Z" fill="url(#linear-gradient-29)"/>
            <path id="Path_182468" data-name="Path 182468" d="M940.876,419.5a7.845,7.845,0,0,0,6.9-7.984,6.644,6.644,0,0,0-7.191-6.729c-.2.018-.4.05-.6.086a39.628,39.628,0,0,0-1.665-5.884c.179-.105.357-.213.531-.335a7.843,7.843,0,0,0,2.376-10.278,6.643,6.643,0,0,0-9.675-1.836c-.171.12-.331.249-.49.38a35.1,35.1,0,0,0-4.316-4.029c.11-.18.217-.362.314-.553a6.946,6.946,0,1,0-12.347-6.269c-.1.191-.181.386-.261.58a35.19,35.19,0,0,0-5.8-1.107c.012-.205.021-.411.017-.619a6.643,6.643,0,0,0-7.191-6.728,7.844,7.844,0,0,0-6.9,7.984c0,.212.022.42.043.626a39.679,39.679,0,0,0-5.733,2.127c-.088-.181-.18-.361-.286-.536a6.642,6.642,0,0,0-9.675-1.835,7.846,7.846,0,0,0-2.377,10.279c.1.171.217.331.331.489a43.274,43.274,0,0,0-4.129,4.792c-.165-.1-.332-.2-.509-.294a7.521,7.521,0,0,0-6.788,13.369c.177.09.357.165.538.237a43.283,43.283,0,0,0-1.431,6.161c-.2,0-.392,0-.591.022a7.844,7.844,0,0,0-6.9,7.984,6.644,6.644,0,0,0,7.191,6.729c.2-.018.4-.05.6-.086a39.784,39.784,0,0,0,1.666,5.884c-.179.1-.357.213-.531.335a7.844,7.844,0,0,0-2.377,10.278,6.644,6.644,0,0,0,9.676,1.835c.17-.119.331-.248.489-.379a35.251,35.251,0,0,0,4.316,4.029c-.109.18-.217.362-.314.553a6.946,6.946,0,1,0,12.347,6.269c.1-.191.181-.386.262-.58a35.153,35.153,0,0,0,5.8,1.107c-.012.205-.021.411-.017.619a6.642,6.642,0,0,0,7.191,6.728,7.842,7.842,0,0,0,6.9-7.984c0-.212-.021-.42-.043-.626a39.592,39.592,0,0,0,5.733-2.127c.089.181.181.361.286.536a6.644,6.644,0,0,0,9.676,1.835,7.844,7.844,0,0,0,2.376-10.279c-.1-.171-.216-.332-.331-.49a43.268,43.268,0,0,0,4.13-4.791c.165.1.332.2.508.294a7.52,7.52,0,0,0,6.788-13.369c-.176-.09-.357-.165-.538-.237a43.127,43.127,0,0,0,1.432-6.162C940.48,419.524,940.676,419.52,940.876,419.5Zm-14.45,8.245c-7.288,14.354-23.942,20.534-37.2,13.8s-18.095-23.823-10.807-38.177,23.942-20.534,37.2-13.8S933.714,413.394,926.426,427.748Z" fill="url(#linear-gradient-30)"/>
          </g>
        </g>
      </g>
    </g>
  </g>
</svg>
